<?xml version="1.0" encoding="UTF-8"?>
<svg id="Layer_1" data-name="Layer 1" xmlns="http://www.w3.org/2000/svg" viewBox="0 0 420.683 389.56">
  <defs>
    <style>
      .cls-1 {
        fill: #fff;
      }

      .cls-2 {
        fill: #fd0;
      }

      .cls-3 {
        fill: #231f20;
      }
    </style>
  </defs>
  <g>
    <path class="cls-2" d="m333.921,238.521c9.304-.811,18.228,4.939,21.064,14.229,3.258,10.674-2.753,21.969-13.428,25.227-1.47.449-2.95.705-4.422.814.546,3.616,1.176,7.296,1.909,11.016,6.451,32.717,15.099,41.669,15.099,41.669l7.025-122.218-27.119,16.018c-.113,3.279-.2,7.798-.129,13.245Z"/>
    <path class="cls-2" d="m340.781,250.081c-.018,1.981.437,3.127-2.207,6.035,0,0,1.929,1.438,3.383,5.016.643,1.607,1.841,4.143,2.643,6.164.851,2.146.998,3.465,1.603,4.468,5.201-4.185,7.625-11.252,5.557-18.027-1.376-4.507-4.475-8.01-8.351-10.021-.132.158-.224.261-.224.261-.789,1.592-2.389,4.123-2.404,6.105Z"/>
    <path class="cls-2" d="m336.008,246.528c1.422-1.951,2.601-2.599,4.006-3.465,0,0,.301-.194.742-.45-2.148-.686-4.445-.946-6.77-.712.051,2.116.124,4.336.23,6.667.598-.559,1.19-1.213,1.792-2.04Z"/>
    <path class="cls-2" d="m343.746,273.417c-2.016-1.201-4.98-3.305-6.486-4.772-.665-.724-1.195-1.307-1.665-1.846.3,2.818.65,5.704,1.057,8.642,1.304-.078,2.618-.291,3.923-.689,1.122-.343,2.182-.793,3.172-1.334Z"/>
    <path class="cls-2" d="m329.783,251.312c1.632-.732,3.048-1.45,4.433-2.743-.106-2.331-.18-4.551-.23-6.667-1.079.108-2.165.319-3.242.648-4.175,1.274-7.477,4.034-9.543,7.514,3.741.995,7.612,1.683,8.583,1.248Z"/>
    <path class="cls-2" d="m332.385,262.392c-.563-1.049-1.397-4.508-3.473-5.449-.779-.358-2.585-.577-10.039.62-.129,1.974.072,4.001.684,6.005,2.316,7.586,9.509,12.327,17.095,11.873-.406-2.937-.757-5.823-1.057-8.642-1.174-1.345-1.936-2.381-3.21-4.407Z"/>
    <path class="cls-3" d="m353.95,349.156c.288-.947.328-1.828.218-2.628-.395-2.868-2.744-4.686-2.744-4.686l-79.64-79.493c-.059.44-.119.885-.178,1.333-.11.836-.217,1.68-.317,2.528-.319,2.697-.565,5.406-.563,7.801-.002,1.206.067,2.319.207,3.289.115.8.278,1.503.496,2.064.261.696.571,1.424.903,2.186.57,1.311,1.205,2.731,1.785,4.289l58.658,59.21,6.61,6.673s.92,1.302,2.443,2.413c1.157.844,2.662,1.576,4.377,1.547.738-.013,1.516-.17,2.32-.518l32.584,32.697.119.183.016.021.136.179c.127.157.326.378.565.586.496.433,1.085.738,1.65.729.511-.011,1.268-.175,2.472-1.358,1.382-1.412,1.64-2.472,1.657-3.38.03-1.325-.839-2.583-1.057-2.832l-32.72-32.833Z"/>
    <path class="cls-3" d="m110.505,102.027c-.617.484-1.259.953-1.919,1.411-2.192,1.52-4.587,2.898-7.002,4.137-.293.15-.586.303-.879.449-.621.309-1.239.605-1.854.895l.687.693,27.883,28.146c.091-.445.186-.891.286-1.337.17-.764.351-1.529.548-2.296.728-2.839,1.646-5.709,2.804-8.628.264-.666.544-1.336.834-2.008.078-.18.154-.36.233-.541l-21.251-21.212c-.122.098-.247.194-.37.29Z"/>
    <path class="cls-3" d="m253.387,245.4c-.437.513-.88,1.018-1.332,1.51-1.861,2.025-3.85,3.874-5.876,5.55-.523.434-1.049.854-1.575,1.265-.437.34-.874.674-1.311.998l9.535,9.625c.225-.565.454-1.126.689-1.678.285-.666.578-1.32.877-1.966,1.253-2.704,2.612-5.206,4.002-7.431.371-.595.743-1.172,1.117-1.726.198-.294.396-.57.596-.852l-6.079-6.068c-.212.261-.427.518-.643.772Z"/>
    <path class="cls-3" d="m84.561,110.288c.45-.149,1.023-.342,1.701-.579,1.775-.62,4.237-1.529,6.965-2.68.849-.355,1.728-.744,2.615-1.146,4.243-1.922,8.766-4.344,12.166-7.008.461-.361.916-.723,1.331-1.092,2.783-2.45,4.294-4.935,4.261-7.065-.01-1.498-.628-3.149-2.615-5.154C95.819,70.417,46.92,21.601,29.856,4.556h0C26.558,1.282,23.049.016,19.51.001h-.04C14.71.001,9.789,2.489,6.093,6.318,2.379,10.146-.014,15.244,0,20.054c.015,3.579,1.236,7.017,4.302,10.097,8.055,8.047,28.335,28.297,46.603,46.536,15.781,15.758,30.061,30.013,33.655,33.601Z"/>
    <rect class="cls-3" x="156.326" y="38.959" width="2.251" height="49.18" transform="translate(-10.721 86.949) rotate(-29.901)"/>
    <path class="cls-3" d="m174.045,83.728c.66-.285,1.315-.573,1.985-.851l-9.426-38.671-2.187.533,9.51,39.019.118-.029Z"/>
    <path class="cls-3" d="m179.52,81.082l1.079-.014c.386-.146.777-.289,1.166-.434l-.493-39.746-2.25.029.498,40.165Z"/>
    <path class="cls-3" d="m134.628,42.586c-.178-.727-.26-1.429-.26-2.104.002-2.689,1.295-5.031,3.257-6.747,1.956-1.712,4.572-2.73,6.981-2.724,3.276.058,6.129,1.652,7.302,6.234l2.186-.532-.021-.09c-.209-.889-.305-1.733-.305-2.532.002-2.791,1.147-5.072,2.736-6.686,1.583-1.613,3.625-2.49,5.194-2.479,1.564.062,2.556.624,3.046,2.412h.001s0,.001,0,.001l2.184-.535v-.002s0,0,0,0c-.035-.146-.054-.3-.056-.466-.012-.832.523-1.971,1.461-2.845.928-.881,2.19-1.474,3.449-1.47,2.176,0,5.013,1.71,6.767,8.69l.009.038,2.187-.534c-.218-.893-.316-1.728-.316-2.498.031-4.095,2.648-6.417,5.485-6.433,2.73.002,6.095,2.203,7.689,8.619l2.187-.534c-1.675-7.002-5.822-10.339-9.876-10.337-2.067,0-4.025.878-5.441,2.412-.797.858-1.422,1.922-1.816,3.142-1.88-3.358-4.371-4.816-6.873-4.815-2.913.063-5.426,1.861-6.543,4.149-.986-.849-2.26-1.278-3.543-1.244-4.112.042-8.921,3.605-9.971,9.228-1.882-2.161-4.496-3.18-7.121-3.143-5.998.023-12.423,4.814-12.489,11.721,0,.858.104,1.741.324,2.638l2.186-.534Z"/>
    <path class="cls-3" d="m312.178,238.196l-1.32.779-1.32.78c0,.175-.002.345-.002.524.023,20.276,4.144,71.361,45.152,94.547l1.833,1.033.122-2.102,7.247-126.107-1.359.802-1.361.805-7.025,122.218s-8.647-8.952-15.099-41.669c-.733-3.72-1.363-7.399-1.909-11.016,1.472-.109,2.952-.365,4.422-.814,10.675-3.258,16.685-14.553,13.428-25.227-2.836-9.29-11.761-15.041-21.064-14.229-.071-5.447.016-9.966.129-13.245l-21.872,12.92Zm28.396,36.555c-1.305.398-2.619.611-3.923.689-7.586.454-14.778-4.287-17.095-11.873-.611-2.004-.812-4.031-.684-6.005,7.454-1.197,9.26-.979,10.039-.62,2.075.941,2.909,4.4,3.473,5.449,1.273,2.026,2.036,3.062,3.21,4.407.47.539,1,1.122,1.665,1.846,1.506,1.468,4.471,3.571,6.486,4.772-.99.541-2.05.991-3.172,1.334Zm11.185-21.015c2.068,6.775-.355,13.842-5.557,18.027-.605-1.003-.752-2.321-1.603-4.468-.802-2.021-2-4.557-2.643-6.164-1.454-3.577-3.383-5.016-3.383-5.016,2.644-2.908,2.189-4.054,2.207-6.035.016-1.982,1.615-4.514,2.404-6.105,0,0,.092-.102.224-.261,3.876,2.012,6.975,5.515,8.351,10.021Zm-17.774-11.835c2.325-.234,4.622.026,6.77.712-.441.256-.742.45-.742.45-1.404.866-2.584,1.514-4.006,3.465-.602.827-1.194,1.481-1.792,2.04-1.385,1.293-2.801,2.011-4.433,2.743-.971.435-4.842-.253-8.583-1.248,2.065-3.479,5.368-6.239,9.543-7.514,1.077-.329,2.163-.54,3.242-.648Z"/>
    <path class="cls-3" d="m367.102,203.715l-3.496-6.356-90.871,56.773c-.071,1.516-.313,3.486-.607,5.683l37.432-22.11,1.333-.787,1.333-.787,21.908-12.94,27.157-16.042,1.362-.804,1.358-.803,3.091-1.826Z"/>
    <path class="cls-3" d="m322.578,109.274c-.425-.196-.852-.397-1.281-.603-2.049-.982-4.133-2.076-6.131-3.269-1.525-.911-2.997-1.879-4.362-2.902-.126-.095-.253-.189-.378-.285l-17.757,17.725c-.035.289-.069.574-.104.863-.13,1.073-.26,2.152-.391,3.236-.513,4.277-1.025,8.627-1.521,12.967-.068.6-.138,1.2-.205,1.799-.054.474-.106.945-.159,1.417-.07.62-.141,1.24-.209,1.859l32.164-32.468.335-.338Z"/>
    <path class="cls-3" d="m117.751,310.508c-.554-3.287-.973-6.687-1.265-10.177-.074-.877-.142-1.758-.2-2.644-.035-.529-.061-1.065-.091-1.599l-45.839,45.755s-2.348,1.817-2.744,4.685c-.11.8-.07,1.681.218,2.627l-32.702,32.814h0l-.113.144c-.103.137-.25.355-.399.626-.296.549-.57,1.293-.565,2.083.019.912.273,1.968,1.656,3.378,1.207,1.185,1.963,1.35,2.474,1.36.532.006,1.074-.257,1.556-.651.473-.383.803-.846.82-.877h0s.108-.17.108-.17l32.585-32.698c.806.348,1.583.506,2.322.519,1.711.029,3.213-.699,4.369-1.541,1.529-1.112,2.453-2.419,2.453-2.419l7.03-7.097,29.219-29.494c-.16-.73-.311-1.469-.456-2.213-.154-.796-.3-1.6-.437-2.41Z"/>
    <path class="cls-3" d="m328.788,365.946c-.33-.31-.91-.68-1.65-1.09-1.47-.82-3.51-1.78-5.35-3.38-.97-.85-2.66-2.69-4.82-5.19-2.16-2.5-4.78-5.64-7.6-9.08-5.12-6.25-10.81-13.41-15.2-19.1l-.15.38-1.25-1.71c-.06-.07-.15-.18-.24-.31-6.63-8.67-15.16-14.72-18.98-17.18-1.27-.81-2-1.22-2.01-1.22l-.91-.52.41-.97c1.9-4.4,2.57-8.08,2.57-11.26.01-5.45-1.99-9.51-3.6-13.25-.09-.22-.18-.44-.27-.65-.17-.41-.34-.82-.5-1.22-.26-.71-.44-1.49-.57-2.33-.16-.96-.24-2-.26-3.1-.01-.25-.02-.5-.02-.75,0-3.08.38-6.59.8-9.91.03-.19.05-.37.07-.56.05-.37.1-.74.15-1.1.04-.29.08-.57.11-.85l.04-.26c.05-.36.1-.72.14-1.06.06-.41.11-.8.16-1.19.17-1.26.32-2.41.42-3.42.04-.39.07-.75.09-1.09.03-.39.04-.75.05-1.07v-.46c-.01-.13-.01-.26-.01-.4-.01-2.64.99-4.62,1.89-6.09.95-1.45,1.63-2.54,1.55-2.87v-.05l-.01-.05c-.04-.02-.18-.08-.45-.07-1.02-.03-3.24.76-5.62,2.29-1.43.89-3.36,2.93-5.4,5.76-.19.27-.38.54-.57.82s-.39.57-.59.87c-.37.55-.73,1.13-1.1,1.73-1.36,2.22-2.7,4.72-3.92,7.41l-.03.07c-.21.45-.41.9-.6,1.36-.09.21-.17.42-.26.63-.11.26-.21.51-.32.77l-.36.93c-.04.11-.08.23-.12.34-.41,1.09-.8,2.18-1.14,3.3-.15.47-.3.92-.45,1.37-.14.43-.28.86-.42,1.27-.15.43-.3.86-.45,1.28-3.6,10.1-7.87,16.51-14.18,22.3-3.61,3.33-7.2,4.87-11.14,5.53-3.92.67-8.18.53-13.46.66-.08,0-.31.02-.65.02-1.14.01-3.68-.17-6.35-1.47-.3-.14-.6-.3-.91-.48-.28-.16-.56-.33-.83-.52-.9-.61-1.77-1.39-2.58-2.33-.19-.22-.38-.45-.56-.69-.18-.23-.36-.46-.52-.72-.55-.83-1.05-1.76-1.49-2.82-.23-.59-.36-1.18-.36-1.77.04-2.22,1.66-3.66,3.56-4.99,1.94-1.34,4.44-2.67,7.03-4.4,5.16-3.49,10.61-8.42,12.51-17.88l.13-.65.63-.22c0-.01.24-.09.64-.25-1.18,3.35-2.56,7.03-3.4,9.89-.37,1.28-.64,2.39-.73,3.23-.02.2-.04.4-.04.57,0,3.62-2.85,7.8-.96,9.3.1.07.2.15.32.21.19.1.46.14.77.14.64,0,1.5-.19,2.51-.53l-7.47,4.66-.47-.74.42.77-10.42,5.74c.87.93,1.81,1.62,2.75,2.13l43.02-25.41c.44-1.24.88-2.53,1.31-3.9.2-.62.41-1.24.63-1.85l-17.52,10.95c.8-.77,1.53-1.57,2.16-2.39.45-.58.84-1.18,1.17-1.77.33-.58.6-1.16.8-1.75,1.74-5.23,1.99-10.17.31-14.39-.14-.37-.3-.73-.48-1.09-.17-.34-.36-.69-.56-1.03,1.22-.77,2.45-1.61,3.68-2.51.11-.08.21-.15.32-.23l.22-.15c.36-.27.72-.56,1.09-.84.52-.41,1.05-.83,1.57-1.26,2.05-1.68,4.04-3.52,5.89-5.54.45-.49.9-.99,1.33-1.51.22-.25.42-.52.63-.78.21-.26.43-.53.64-.8,2.6-3.38,4.74-7.18,6.1-11.4.06-.18.11-.37.17-.56-5.85-.58-11.83-.34-17.86.33-.45.05-.9.11-1.35.16-.39.05-.79.09-1.19.15-.83.1-1.66.22-2.49.34-3.26.48-6.52,1.04-9.78,1.64-.8.14-1.59.29-2.39.44-.62.12-1.23.23-1.84.34-.18.04-.37.07-.55.11-4.01.75-8.01,1.51-11.97,2.15-4.67.86-9.39,1.57-14.12,2.1-.24.03-.47.05-.71.08-.82.09-1.63.17-2.45.25-1.03.09-2.07.18-3.1.26-3.92.28-7.85.42-11.78.38-.93-.01-1.85-.04-2.78-.07-.44-.01-.89-.02-1.33-.04-.46-.02-.92-.05-1.39-.08-5.25-.29-10.5-.92-15.73-1.99-.11-.03-.21-.06-.32-.09-5.76-1.57-11.66-4-16.14-8.1-1.24-1.14-2.38-2.39-3.37-3.8-3.15-4.41-4.01-9.66-3.62-14.81.03-.39.06-.78.1-1.16.04-.37.09-.73.14-1.1l.01-.07c.26-1.77.64-3.52,1.12-5.2-.39,1.71-.65,3.47-.79,5.24-.04.38-.06.77-.08,1.16-.01.39-.03.79-.03,1.18-.04,5.3,1.27,10.52,4.76,14.47,2.52,2.96,5.76,5.07,9.31,6.62,3.49,1.51,7.28,2.48,11,3.16,5.4.98,10.89,1.52,16.43,1.7.48.02.96.02,1.44.04.44,0,.89.02,1.33.03.95.01,1.89,0,2.84-.01,4.01-.04,8.03-.26,12.04-.63,1.05-.1,2.11-.21,3.16-.33.83-.09,1.66-.19,2.48-.29.25-.03.5-.07.75-.1,3.71-.49,7.4-1.09,11.05-1.8,3.1-.48,6.19-1.05,9.28-1.63.19-.03.38-.07.57-.1.6-.12,1.21-.23,1.82-.35.79-.15,1.59-.3,2.39-.45,3.22-.6,6.45-1.19,9.69-1.71.82-.13,1.64-.26,2.46-.38.39-.06.78-.11,1.17-.16.44-.06.89-.12,1.33-.18,4.37-.56,8.79-.92,13.26-.92.65,0,1.29.02,1.94.03,1.99.05,3.82.11,5.83.32.1.03.16,0,.29.02.36.01.72.03,1.07.05l.09.01c.4.03.79.05,1.18.08,14.39.94,22.23-1.88,25.64-7.56,3.51-5.85-8.2-7.02-24.58-8.19-10.29-.73-24.29,1.31-38.2,2.63-.49.05-.97.09-1.45.13-.39.04-.77.07-1.16.1-.87.08-1.74.15-2.62.22-.46.04-.93.07-1.39.11-.27.02-.55.04-.82.06-.74.05-1.48.09-2.21.14-.48.02-.97.05-1.45.08-.51.02-1.03.05-1.54.07-1.15.05-2.3.09-3.43.11-.95.02-1.89.01-2.83,0-.71,0-1.41-.02-2.11-.04-.27,0-.53-.01-.79-.02-.32-.02-.63-.02-.94-.04-.35-.02-.71-.02-1.06-.04l-.21-.01c-.92-.06-1.79-.13-2.62-.21-.39-.04-.77-.08-1.14-.13-.48-.05-.95-.11-1.4-.18-.18-.03-.35-.05-.53-.08-2.76-.44-4.82-1.04-6.26-1.76-2.85-1.43-3.27-3.3-1.86-5.24,1.09.88,2.41,1.75,4.14,1.88.12.01.24.03.37.03.74,0,1.51-.15,2.32-.47.09.07.19.15.3.22.71.48,1.84.97,3.47.96.34,0,.71-.03,1.09-.07.24-.03.48-.07.73-.11.54-.11,1.11-.25,1.72-.45l.06-.02c.09.07.21.14.33.21.3.19.68.39,1.12.57.29.12.62.24.97.33.54.15,1.13.25,1.78.26h.05l.18-.01c.28-.01.57-.04.87-.1.94-.18,1.92-.61,2.82-1.37.93.41,2.62,1.04,4.44,1.06.94,0,1.97-.22,2.86-.77.13-.08.27-.15.4-.25.53.27,1.32.62,2.26.85.39.1.82.17,1.27.22.23.02.47.04.72.04.2,0,.4-.02.6-.04l.24-.02c.39-.05.79-.14,1.18-.27.6-.19,1.19-.48,1.74-.89.11.04.26.08.39.12.2.06.42.11.67.18.76.18,1.71.35,2.75.35,1.24,0,2.64-.24,3.85-1.04.54.22,1.37.51,2.37.7.52.1,1.1.17,1.7.19l.26.01c.86,0,1.78-.14,2.68-.47.2-.08.4-.15.59-.25l.06-.02.04.02.24.09c.96.37,2.64.91,4.48.92,1.11,0,2.31-.21,3.37-.87.87.19,2.78.55,4.85.56,1.26-.01,2.6-.14,3.82-.58.63.18,1.94.48,3.39.49.86-.01,1.8-.12,2.68-.5.73.13,2.36.4,3.97.41.95-.01,1.89-.08,2.74-.45l4.59.19.1-1.94-5.2-.22-.27.15c-.26.17-1.07.33-1.96.32-.9,0-1.88-.11-2.62-.22-.75-.11-1.27-.22-1.27-.22l-.41-.08-.36.2c-.1.05-.21.1-.32.14-.1.04-.21.07-.32.1-.41.11-.87.17-1.35.17-.44,0-.88-.05-1.29-.1-.31-.05-.61-.1-.86-.15-.59-.13-.94-.25-.95-.25l-.4-.13-.39.17c-.89.39-2.1.55-3.32.55s-2.41-.15-3.3-.31c-.9-.15-1.5-.3-1.5-.3l-.53-.13-.43.33c-.66.52-1.51.72-2.46.72-1.04.01-2.15-.25-2.98-.52-.42-.14-.76-.27-1-.37-.23-.1-.36-.16-.36-.16l-.55-.26-.51.32c-.83.51-1.75.7-2.69.7-1.02,0-2.04-.24-2.78-.48-.73-.24-1.16-.47-1.18-.47l-.66-.34-.56.48c-.82.7-1.88.95-3,.95-.33,0-.66-.03-.97-.06-.26-.03-.51-.07-.75-.12-.29-.05-.56-.12-.8-.18-.41-.11-.7-.21-.88-.28-.11-.04-.18-.07-.2-.07l-.66-.28-.51.47c-.83.76-1.67,1.02-2.54,1.07l-.26.02-.17-.01c-.55-.02-1.09-.13-1.59-.27-.32-.1-.63-.2-.9-.32-.36-.15-.66-.31-.86-.42-.2-.11-.29-.17-.29-.17l-.81-.54-.62.73c-.28.32-.59.53-.93.67-.39.16-.83.23-1.34.24-.93,0-2-.28-2.8-.57-.42-.16-.75-.31-.98-.41-.21-.1-.34-.17-.34-.17l-.74-.4-.57.59c-1.05,1.09-2,1.36-2.9,1.38h-.03c-.38,0-.76-.06-1.12-.16-.45-.12-.87-.29-1.22-.47h-.01c-.17-.09-.32-.18-.46-.26-.1-.07-.2-.13-.27-.18-.18-.12-.24-.18-.24-.18l-.49-.4-.6.22c-.56.21-1.06.35-1.53.46-.72.17-1.35.25-1.86.25h-.06c-.38-.01-.7-.05-.98-.11-.49-.1-.86-.26-1.11-.42-.2-.12-.33-.24-.41-.32l-.08-.09-.2-.3-.31-.47-.86.43c-.23.11-.44.2-.64.28-.56.21-1.03.29-1.44.29-1.02.02-2.11-.55-3.17-1.38.88-.76,2.02-1.52,3.37-2.24.18-.1.36-.19.55-.29.43-.22.89-.43,1.36-.64.5-.23,1.01-.45,1.55-.67.14-.06.3-.11.46-.16,2.23-.78,5.73-1.2,10.05-1.36.89-.04,1.81-.06,2.77-.07.36-.01.73-.01,1.1-.01h.07c.52-.01,1.05-.01,1.59,0h1.17c.91.01,1.84.03,2.79.05,3.46.09,7.15.25,10.94.47.89.05,1.78.1,2.68.16.62.04,1.24.08,1.87.12.26.02.52.04.79.06,17.13,1.16,34.81,3.08,40.94,3.08,11.7,0,14.03-2.34,10.53-10.53-1.78-4.14-.26-23.97,2.13-46.34.05-.44.09-.88.14-1.31.07-.63.14-1.26.21-1.88.11-1.07.23-2.14.35-3.21.48-4.29.98-8.63,1.49-12.93.12-1.08.25-2.16.38-3.23.04-.3.07-.59.11-.89.09-.79.18-1.57.28-2.35.39-3.2.77-6.36,1.15-9.42-1.16-.26-2.42-.64-3.79-1.13-.29-.11-.58-.21-.88-.32-21.22-8.15-29.06-29.17-31.02-35.55.54.08,1.09.16,1.64.24.55.08,1.11.17,1.66.26.13.36.26.75.41,1.16.96,2.62,2.48,6.22,4.74,10.1,4.52,7.75,11.95,16.55,23.64,20.99l.18.07c1.42.53,2.67.92,3.79,1.18,1.37.33,2.52.48,3.44.48.15,0,.29-.01.43-.02,1.58-.08,2.37-.55,2.89-1.16.57-.68.9-1.82.9-3.32.02-2.65-1.02-6.1-2.13-8.97-.63-1.66-1.29-3.13-1.78-4.12-.27-.55-.47-.96-.6-1.2-.27-.23-.54-.45-.81-.68l-.11-.09.15-.23.69-1.02.83-1.26,2.64-3.95,1.04-1.56-.57-.46c5.72-14.74,42.36-32.29,15.75-45.1-17.25-8.31-57.03,2.22-69.5,4.8-11.02,2.27-19.28,6.28-25.27,11.68-6.83,6.17-5.07,16.81,2.7,14.95,2.15-.51,4.35-.89,6.57-1.16l-1.33,2.36-2.44,4.3.11-.01c-31.77,5.04-65.23,17.12-78.27,34.5-4.27,5.69-7.35,10.99-9.61,16.1-.22.48-.43.96-.63,1.43-.08.19-.15.37-.22.56-.28.69-.56,1.37-.81,2.04-1.1,3-1.93,5.94-2.57,8.86-.18.79-.34,1.58-.49,2.36-.08.47-.16.94-.24,1.4-.06.34-.12.69-.17,1.03-2.71,17.52.21,35.24-6.32,61.38-1.33,5.31-1.33,9.82-.31,13.64.21.77.46,1.49.74,2.2.25.62.52,1.23.82,1.81-.34,1.69-.69,3.51-1.05,5.45-.46,2.44-.93,5.06-1.4,7.82-.4.17-.83.34-1.27.51-.41.16-.83.32-1.26.49-3.76,1.43-8.44,3.06-13.27,5.01l2.96-24.23c.41-.68.65-1.42.65-2.22-.01-1.6-.95-2.96-2.3-4.04-4.07-3.22-12.63-5.18-22.69-5.21-6.7,0-12.76.91-17.24,2.44-2.24.76-4.09,1.67-5.45,2.77-1.04.83-1.83,1.83-2.15,2.97h-.13l.04.4c-.03.22-.06.44-.06.67,0,.56.12,1.09.33,1.59l8.41,70.13h-.02c.01,1.18.7,2.13,1.6,2.85,2.71,2.11,8.1,3.3,14.46,3.33,4.22,0,8.05-.57,10.91-1.54,1.43-.49,2.63-1.07,3.54-1.79.75-.6,1.36-1.38,1.54-2.3l.17.02,2.07-16.69c4.29.84,8.79,1.16,12.59-.27.41-.16.81-.33,1.2-.53.43-.21.83-.45,1.23-.72-.43,5.89-.69,11.86-.68,17.75-.01,2.31.04,4.61.12,6.88.02.38.03.75.05,1.13.02.53.05,1.07.07,1.6.05.9.11,1.79.17,2.68.25,3.54.61,6.99,1.12,10.32.13.82.26,1.63.4,2.44.14.75.28,1.5.43,2.23l.03.16c1.08,5.34,2.58,10.27,4.57,14.57,5.15,11.04,13.23,17.92,26.31,17.96,1,0,2.02-.04,3.08-.12,18.87-1.49,27.72-3.43,34.04-5.65,6.3-2.21,10.31-4.84,19.3-7.66l.06-.02.05-.01c13.61-2.84,24.7-6.39,32.12-6.41.94,0,1.83.06,2.66.19,9.14,1.49,11.75,10.54,14.59,13.33,7.74,8.14,14.17,10.75,24.4,16.55,8.45,4.82,28.57,11.92,35.14,12.94.72.11,1.22.14,1.65.15h.12c1.13.13,2.17.19,3.11.19,2.54,0,4.44-.42,5.64-1,1.22-.59,1.63-1.25,1.66-1.64l.01-.09c-.01-.17-.04-.3-.37-.63Zm-44.46-294.35c.35-1.81,1.56-4.32,3.57-6.61,2.59-3.07,5.82-4.81,7.46-4.81l.09.01c.52,0,.78.12.97.28.23.2.45.59.46,1.42.03,1.77-1.26,4.89-3.69,7.67-1.54,1.82-3.3,3.16-4.82,3.96-1.09.57-2.06.87-2.73.84-.52,0-.79-.12-.97-.28-.24-.2-.45-.6-.46-1.43-.01-.31.04-.67.12-1.05Zm-54.66-2.52l1.07-1.89c1.71.03,5.78.14,10.97.5.39.02.82.06,1.22.09,4.16.31,8.91.78,13.68,1.49,2.93.44,5.87.97,8.66,1.61,1.75.4,4.41.85,6.04,1.33,6.72,2,9.76,3.25,13.88,5.49,1.1.6,3.99,2.26,4.82,2.87.73.53,1.19.9,1.76,1.34.28.21.62.5.87.67.34.23.64.44.9.62l-.87,1.3-1.11,1.67-.48.72c-.58-.7-1.38-1.53-2.44-2.43-2.85-2.45-7.66-5.45-15.46-7.85-1.09-.33-2.21-.66-3.42-.96-5.59-1.44-11.29-2.45-16.64-3.16-2.92-.38-5.73-.68-8.37-.91-7.07-.62-12.88-.75-16.06-.76l.98-1.74ZM63.158,214.026c0-.32.1-.68.33-1.07.23-.38.6-.79,1.13-1.22,3.15-2.59,11.44-4.71,21.06-4.71h.22c6.48-.01,12.35.9,16.51,2.32,2.08.7,3.72,1.54,4.77,2.39.53.43.89.84,1.13,1.22.23.39.33.75.33,1.07,0,.41-.16.88-.56,1.4-.22.28-.52.58-.9.88-3.17,2.62-11.57,4.75-21.28,4.72-6.48,0-12.36-.9-16.51-2.32-2.08-.71-3.72-1.54-4.77-2.4-.48-.38-.82-.75-1.06-1.1-.28-.43-.4-.83-.4-1.18Zm38.56,55.07l-2.06,16.65h-.17c0,.22-.14.59-.76,1.09-1.82,1.52-7.04,2.88-13.04,2.84-4.02.01-7.66-.55-10.2-1.42-1.27-.43-2.26-.94-2.86-1.42-.41-.34-.6-.61-.68-.83l-.03-.26-8.06-67.21c4.29,2.93,12.49,4.71,22.04,4.74,6.69-.01,12.76-.92,17.24-2.44,1.78-.61,3.3-1.31,4.54-2.12l-2.69,21.98-3.27,28.4Z"/>
    <path class="cls-3" d="m309.7,85.564c-1.988,2.005-2.604,3.655-2.615,5.153-.006,1.612.798,3.376,2.419,5.229,1.005,1.151,2.303,2.3,3.787,3.409.892.666,1.851,1.316,2.853,1.944,2.973,1.868,6.317,3.528,9.46,4.92,2.51,1.112,4.895,2.058,6.835,2.773,1.566.58,2.842,1.016,3.688,1.295,3.593-3.587,17.873-17.843,33.655-33.602,18.267-18.238,38.549-38.49,46.601-46.536,3.063-3.079,4.283-6.516,4.298-10.095.013-4.813-2.38-9.909-6.092-13.737C410.886,2.478,405.947-.013,401.177,0c-3.539.015-7.048,1.283-10.346,4.555h.001c-17.065,17.047-65.964,65.862-81.132,81.009Z"/>
    <polygon class="cls-3" points="281.508 205.323 281.508 207.867 281.508 209.714 281.508 211.948 289.861 212.772 312.511 215.008 312.511 202.26 287.013 204.779 281.508 205.323"/>
    <polygon class="cls-3" points="313.349 215.274 313.682 215.274 314.521 215.274 314.521 202.325 313.682 202.325 313.349 202.325 313.349 215.274"/>
    <rect class="cls-3" x="315.173" y="202.325" width="1.17" height="12.947"/>
    <rect class="cls-3" x="317.002" y="202.324" width="1.171" height="12.951"/>
    <path class="cls-2" d="m103.442,229.414c-.171-.253-.403-.521-.752-.812-.807-.672-2.092-1.349-3.728-1.919-3.272-1.148-7.927-1.888-13.066-1.886h-.2c-7.61,0-14.177,1.745-16.59,3.805-.349.291-.581.56-.752.812-.129.19-.229.372-.278.538-.039.131-.057.255-.056.37l.024.165c.055.429.335.95,1.061,1.558.804.671,2.092,1.35,3.726,1.919,3.272,1.149,7.925,1.89,13.064,1.888,7.696.031,14.358-1.728,16.794-3.807.726-.606,1.006-1.128,1.061-1.556l.024-.167c0-.115-.017-.239-.056-.37-.049-.166-.149-.348-.278-.538Z"/>
    <path class="cls-2" d="m86.372,248.192c-.641,0-1.16.52-1.162,1.164.002.643.521,1.163,1.162,1.163.645,0,1.166-.52,1.166-1.163s-.521-1.164-1.166-1.164Z"/>
    <path class="cls-2" d="m102.349,238.37c-.938.609-2.073,1.137-3.384,1.594-3.412,1.181-8.004,1.885-13.074,1.889-7.198-.027-13.374-1.367-16.694-3.646l4.916,44.228h.114c-.057.167-.095.337-.095.51l.004.029c.004.183.048.361.115.537.322.855,1.358,1.626,2.887,2.234,2.113.841,5.152,1.372,8.543,1.372s6.433-.531,8.546-1.372c1.53-.608,2.565-1.38,2.887-2.234.066-.176.111-.354.115-.537l.004-.029c0-.173-.038-.343-.095-.51h.314l4.897-44.064Zm-6.994,23.826c-.199,3.287-2.018,4.81-3.754,5.48-1.629.69-2.937,1.022-3.665,2.151l-1.533,3.757-1.538-3.763c-.728-1.121-2.027-1.455-3.647-2.141-1.74-.669-3.568-2.188-3.768-5.484l-1.653.962,2.494-6.112,2.499,6.112-1.57-.912c.241,2.604,1.249,3.116,2.696,3.823.913.406,2.106.749,3.141,1.486v-11.784h-2.601v.672h-1.755v-2.743h1.755v.316h2.601v-2.07c-.946-.482-1.6-1.456-1.6-2.591,0-1.612,1.304-2.918,2.916-2.921,1.614,0,2.92,1.309,2.92,2.921,0,1.136-.655,2.109-1.603,2.592v2.069h2.552v-.316h1.755v2.743h-1.755v-.672h-2.552v11.823c1.052-.77,2.28-1.113,3.213-1.53,1.438-.705,2.443-1.22,2.684-3.817l-1.569.911,2.499-6.112,2.495,6.112-1.655-.963Z"/>
    <path class="cls-3" d="m95.355,262.196c-.199,3.287-2.018,4.81-3.754,5.48-1.629.69-2.937,1.022-3.665,2.151l-1.533,3.757-1.538-3.763c-.728-1.121-2.027-1.455-3.647-2.141-1.74-.669-3.568-2.188-3.768-5.484l-1.653.962,2.494-6.112,2.499,6.112-1.57-.912c.241,2.604,1.249,3.116,2.696,3.823.913.406,2.106.749,3.141,1.486v-11.784h-2.601v.672h-1.755v-2.743h1.755v.316h2.601v-2.07c-.946-.482-1.6-1.456-1.6-2.591,0-1.612,1.304-2.918,2.916-2.921,1.614,0,2.92,1.309,2.92,2.921,0,1.136-.655,2.109-1.603,2.592v2.069h2.552v-.316h1.755v2.743h-1.755v-.672h-2.552v11.823c1.052-.77,2.28-1.113,3.213-1.53,1.438-.705,2.443-1.22,2.684-3.817l-1.569.911,2.499-6.112,2.495,6.112-1.655-.963Zm-8.983-14.004c-.641,0-1.16.52-1.162,1.164.002.643.521,1.163,1.162,1.163.645,0,1.166-.52,1.166-1.163s-.521-1.164-1.166-1.164Z"/>
    <path class="cls-2" d="m284.325,71.595c.35-1.805,1.562-4.32,3.568-6.612,2.592-3.063,5.828-4.804,7.467-4.804h.09c.514.008.779.125.973.287.229.197.445.594.453,1.422.034,1.763-1.26,4.887-3.685,7.671-1.543,1.82-3.303,3.156-4.826,3.953-1.087.569-2.058.872-2.727.845-.515-.004-.785-.124-.969-.28-.236-.204-.453-.601-.461-1.428-.006-.309.043-.671.117-1.053Z"/>
    <path class="cls-2" d="m229.668,69.08l1.07-1.892c1.709.03,5.778.136,10.97.495.394.027.815.061,1.222.092,4.159.31,8.907.78,13.675,1.493,2.935.438,5.869.965,8.661,1.604,1.749.4,4.417.858,6.038,1.339,6.727,1.996,9.767,3.245,13.882,5.488,1.102.6,3.994,2.255,4.827,2.864.725.53,1.183.902,1.757,1.338.278.211.616.505.865.673.346.234.645.443.902.624l-.868,1.301-1.11,1.663-.479.719c-.581-.692-1.378-1.522-2.439-2.431-2.853-2.441-7.662-5.441-15.463-7.841-1.087-.334-2.212-.661-3.418-.969-5.591-1.433-11.288-2.441-16.644-3.152-2.917-.388-5.729-.686-8.37-.917-7.062-.616-12.881-.743-16.058-.759l.981-1.733Z"/>
    <path class="cls-2" d="m289.635,112.625c-1.154-.262-2.417-.642-3.791-1.133-.288-.103-.574-.204-.873-.317-21.218-8.147-29.065-29.167-31.025-35.55.544.077,1.092.156,1.642.239.552.083,1.106.169,1.664.259.123.363.258.748.409,1.163.954,2.622,2.477,6.223,4.738,10.096,4.523,7.757,11.954,16.549,23.639,20.992l.183.066c1.415.533,2.673.92,3.784,1.187l-.369,2.997Z"/>
  </g>
  <circle class="cls-1" cx="166.008" cy="179.01" r="7.526"/>
  <path class="cls-3" d="m169.932,178.153c-.465-.73-1.146-1.306-1.958-1.633-.111-.045-.229-.072-.345-.107-.385-.118-.786-.2-1.21-.2l-.072.007c.247.255.405.592.441.967l.016.157c0,.246-.06.477-.16.687-.259.544-.811.924-1.451.924-.89,0-1.614-.723-1.615-1.609-.814.761-1.33,1.836-1.33,3.038,0,2.3,1.867,4.173,4.172,4.173,1.822,0,3.358-1.183,3.924-2.814.087-.25.149-.509.187-.778.027-.191.059-.382.059-.581,0-.546-.112-1.065-.303-1.543-.097-.242-.216-.47-.354-.687Z"/>
  <path class="cls-1" d="m155.982,172.744c-.564-.639,2.35-6.085,7.551-7.551,6.448-1.817,12.983,3.449,12.783,3.967-.134.345-3.186-1.592-7.875-1.375-7.351.34-11.843,5.656-12.458,4.958Z"/>
</svg>