<?xml version="1.0" encoding="utf-8"?>
<!-- Generator: Adobe Illustrator 27.6.1, SVG Export Plug-In . SVG Version: 6.00 Build 0)  -->
<svg version="1.1" id="Layer_1" xmlns="http://www.w3.org/2000/svg" xmlns:xlink="http://www.w3.org/1999/xlink" x="0px" y="0px"
	 viewBox="0 0 450 414" style="enable-background:new 0 0 450 414;" xml:space="preserve">
<style type="text/css">
	.st0{fill:#FFFFFF;}
	.st1{fill:#FFDD00;}
	.st2{fill:#231F20;}
</style>
<circle class="st0" cx="193.119" cy="175.771" r="36.881"/>
<path class="st1" d="M349.94,251.986c9.304-0.811,18.228,4.939,21.064,14.229c3.258,10.674-2.753,21.969-13.428,25.227
	c-1.47,0.449-2.95,0.705-4.422,0.814c0.546,3.616,1.176,7.296,1.909,11.016c6.451,32.717,15.099,41.669,15.099,41.669l7.025-122.218
	l-27.119,16.018c-0.113,3.279-0.2,7.798-0.129,13.245L349.94,251.986z"/>
<path class="st1" d="M356.801,263.546c-0.018,1.981,0.437,3.127-2.207,6.035c0,0,1.929,1.438,3.383,5.016
	c0.643,1.607,1.841,4.143,2.643,6.164c0.851,2.146,0.998,3.465,1.603,4.468c5.201-4.185,7.625-11.252,5.557-18.027
	c-1.376-4.507-4.475-8.01-8.351-10.021c-0.132,0.158-0.224,0.261-0.224,0.261C358.416,259.034,356.816,261.565,356.801,263.546
	L356.801,263.546z"/>
<path class="st1" d="M352.027,259.993c1.422-1.951,2.601-2.599,4.006-3.465c0,0,0.301-0.194,0.742-0.45
	c-2.148-0.686-4.445-0.946-6.77-0.712c0.051,2.116,0.124,4.336,0.23,6.667C350.833,261.474,351.425,260.82,352.027,259.993
	L352.027,259.993z"/>
<path class="st1" d="M359.766,286.882c-2.016-1.201-4.98-3.305-6.486-4.772c-0.665-0.724-1.195-1.307-1.665-1.846
	c0.3,2.818,0.65,5.704,1.057,8.642c1.304-0.078,2.618-0.291,3.923-0.689c1.122-0.343,2.182-0.793,3.172-1.334L359.766,286.882z"/>
<path class="st1" d="M345.803,264.776c1.632-0.732,3.048-1.45,4.433-2.743c-0.106-2.331-0.18-4.551-0.23-6.667
	c-1.079,0.108-2.165,0.319-3.242,0.648c-4.175,1.274-7.477,4.034-9.543,7.514c3.741,0.995,7.612,1.683,8.583,1.248H345.803z"/>
<path class="st1" d="M348.404,275.856c-0.563-1.049-1.397-4.508-3.473-5.449c-0.779-0.358-2.585-0.577-10.039,0.62
	c-0.129,1.974,0.072,4.001,0.684,6.005c2.316,7.586,9.509,12.327,17.095,11.873c-0.406-2.937-0.757-5.823-1.057-8.642
	C350.44,278.918,349.678,277.882,348.404,275.856L348.404,275.856z"/>
<path class="st2" d="M369.97,362.621c0.288-0.947,0.328-1.828,0.218-2.628c-0.395-2.868-2.744-4.686-2.744-4.686l-79.64-79.493
	c-0.059,0.44-0.119,0.885-0.178,1.333c-0.11,0.836-0.217,1.68-0.317,2.528c-0.319,2.697-0.565,5.406-0.563,7.801
	c-0.002,1.206,0.067,2.319,0.207,3.289c0.115,0.8,0.278,1.503,0.496,2.064c0.261,0.696,0.571,1.424,0.903,2.186
	c0.57,1.311,1.205,2.731,1.785,4.289l58.658,59.21l6.61,6.673c0,0,0.92,1.302,2.443,2.413c1.157,0.844,2.662,1.576,4.377,1.547
	c0.738-0.013,1.516-0.17,2.32-0.518l32.584,32.697l0.119,0.183l0.016,0.021l0.136,0.179c0.127,0.157,0.326,0.378,0.565,0.586
	c0.496,0.433,1.085,0.738,1.65,0.729c0.511-0.011,1.268-0.175,2.472-1.358c1.382-1.412,1.64-2.472,1.657-3.38
	c0.03-1.325-0.839-2.583-1.057-2.832l-32.72-32.833H369.97z"/>
<path class="st2" d="M126.524,115.492c-0.617,0.484-1.259,0.953-1.919,1.411c-2.192,1.52-4.587,2.898-7.002,4.137
	c-0.293,0.15-0.586,0.303-0.879,0.449c-0.621,0.309-1.239,0.605-1.854,0.895l0.687,0.693l27.883,28.146
	c0.091-0.445,0.186-0.891,0.286-1.337c0.17-0.764,0.351-1.529,0.548-2.296c0.728-2.839,1.646-5.709,2.804-8.628
	c0.264-0.666,0.544-1.336,0.834-2.008c0.078-0.18,0.154-0.36,0.233-0.541l-21.251-21.212c-0.122,0.098-0.247,0.194-0.37,0.29
	V115.492z"/>
<path class="st2" d="M269.406,258.865c-0.437,0.513-0.88,1.018-1.332,1.51c-1.861,2.025-3.85,3.874-5.876,5.55
	c-0.523,0.434-1.049,0.854-1.575,1.265c-0.437,0.34-0.874,0.674-1.311,0.998l9.535,9.625c0.225-0.565,0.454-1.126,0.689-1.678
	c0.285-0.666,0.578-1.32,0.877-1.966c1.253-2.704,2.612-5.206,4.002-7.431c0.371-0.595,0.743-1.172,1.117-1.726
	c0.198-0.294,0.396-0.57,0.596-0.852l-6.079-6.068c-0.212,0.261-0.427,0.518-0.643,0.772V258.865z"/>
<path class="st2" d="M100.58,123.753c0.45-0.149,1.023-0.342,1.701-0.579c1.775-0.62,4.237-1.529,6.965-2.68
	c0.849-0.355,1.728-0.744,2.615-1.146c4.243-1.922,8.766-4.344,12.166-7.008c0.461-0.361,0.916-0.723,1.331-1.092
	c2.783-2.45,4.294-4.935,4.261-7.065c-0.01-1.498-0.628-3.149-2.615-5.154c-15.167-15.146-64.065-63.962-81.129-81.007l0,0
	c-3.299-3.273-6.808-4.54-10.348-4.554h-0.04c-4.759,0-9.68,2.487-13.376,6.317c-3.714,3.828-6.107,8.925-6.093,13.735
	c0.015,3.579,1.236,7.017,4.302,10.097c8.055,8.047,28.335,28.297,46.603,46.536c15.781,15.758,30.061,30.013,33.655,33.601
	L100.58,123.753z"/>
<rect x="172.347" y="52.423" transform="matrix(0.8669 -0.4985 0.4985 0.8669 -15.3002 96.7277)" class="st2" width="2.251" height="49.18"/>
<path class="st2" d="M190.065,97.193c0.66-0.285,1.315-0.573,1.985-0.851l-9.426-38.671l-2.187,0.533l9.51,39.019l0.118-0.029
	V97.193z"/>
<path class="st2" d="M195.539,94.546l1.079-0.014c0.386-0.146,0.777-0.289,1.166-0.434l-0.493-39.746l-2.25,0.029
	C195.041,54.381,195.539,94.546,195.539,94.546z"/>
<path class="st2" d="M150.647,56.051c-0.178-0.727-0.26-1.429-0.26-2.104c0.002-2.689,1.295-5.031,3.257-6.747
	c1.956-1.712,4.572-2.73,6.981-2.724c3.276,0.058,6.129,1.652,7.302,6.234l2.186-0.532l-0.021-0.09
	c-0.209-0.889-0.305-1.733-0.305-2.532c0.002-2.791,1.147-5.072,2.736-6.686c1.583-1.613,3.625-2.49,5.194-2.479
	c1.564,0.062,2.556,0.624,3.046,2.412h0.001v0.001l2.184-0.535v-0.002l0,0c-0.035-0.146-0.054-0.3-0.056-0.466
	c-0.012-0.832,0.523-1.971,1.461-2.845c0.928-0.881,2.19-1.474,3.449-1.47c2.176,0,5.013,1.71,6.767,8.69l0.009,0.038l2.187-0.534
	c-0.218-0.893-0.316-1.728-0.316-2.498c0.031-4.095,2.648-6.417,5.485-6.433c2.73,0.002,6.095,2.203,7.689,8.619l2.187-0.534
	c-1.675-7.002-5.822-10.339-9.876-10.337c-2.067,0-4.025,0.878-5.441,2.412c-0.797,0.858-1.422,1.922-1.816,3.142
	c-1.88-3.358-4.371-4.816-6.873-4.815c-2.913,0.063-5.426,1.861-6.543,4.149c-0.986-0.849-2.26-1.278-3.543-1.244
	c-4.112,0.042-8.921,3.605-9.971,9.228c-1.882-2.161-4.496-3.18-7.121-3.143c-5.998,0.023-12.423,4.814-12.489,11.721
	c0,0.858,0.104,1.741,0.324,2.638L150.647,56.051L150.647,56.051z"/>
<path class="st2" d="M328.197,251.661l-1.32,0.779l-1.32,0.78c0,0.175-0.002,0.345-0.002,0.524
	c0.023,20.276,4.144,71.361,45.152,94.547l1.833,1.033l0.122-2.102l7.247-126.107l-1.359,0.802l-1.361,0.805l-7.025,122.218
	c0,0-8.647-8.952-15.099-41.669c-0.733-3.72-1.363-7.399-1.909-11.016c1.472-0.109,2.952-0.365,4.422-0.814
	c10.675-3.258,16.685-14.553,13.428-25.227c-2.836-9.29-11.761-15.041-21.064-14.229c-0.071-5.447,0.016-9.966,0.129-13.245
	l-21.872,12.92L328.197,251.661z M356.593,288.216c-1.305,0.398-2.619,0.611-3.923,0.689c-7.586,0.454-14.778-4.287-17.095-11.873
	c-0.611-2.004-0.812-4.031-0.684-6.005c7.454-1.197,9.26-0.979,10.039-0.62c2.075,0.941,2.909,4.4,3.473,5.449
	c1.273,2.026,2.036,3.062,3.21,4.407c0.47,0.539,1,1.122,1.665,1.846c1.506,1.468,4.471,3.571,6.486,4.772
	c-0.99,0.541-2.05,0.991-3.172,1.334L356.593,288.216z M367.778,267.201c2.068,6.775-0.355,13.842-5.557,18.027
	c-0.605-1.003-0.752-2.321-1.603-4.468c-0.802-2.021-2-4.557-2.643-6.164c-1.454-3.577-3.383-5.016-3.383-5.016
	c2.644-2.908,2.189-4.054,2.207-6.035c0.016-1.982,1.615-4.514,2.404-6.105c0,0,0.092-0.102,0.224-0.261
	C363.303,259.191,366.402,262.694,367.778,267.201L367.778,267.201z M350.004,255.366c2.325-0.234,4.622,0.026,6.77,0.712
	c-0.441,0.256-0.742,0.45-0.742,0.45c-1.404,0.866-2.584,1.514-4.006,3.465c-0.602,0.827-1.194,1.481-1.792,2.04
	c-1.385,1.293-2.801,2.011-4.433,2.743c-0.971,0.435-4.842-0.253-8.583-1.248c2.065-3.479,5.368-6.239,9.543-7.514
	c1.077-0.329,2.163-0.54,3.242-0.648L350.004,255.366z"/>
<path class="st2" d="M383.121,217.18l-3.496-6.356l-90.871,56.773c-0.071,1.516-0.313,3.486-0.607,5.683l37.432-22.11l1.333-0.787
	l1.333-0.787l21.908-12.94l27.157-16.042l1.362-0.804l1.358-0.803L383.121,217.18L383.121,217.18z"/>
<path class="st2" d="M338.598,122.739c-0.425-0.196-0.852-0.397-1.281-0.603c-2.049-0.982-4.133-2.076-6.131-3.269
	c-1.525-0.911-2.997-1.879-4.362-2.902c-0.126-0.095-0.253-0.189-0.378-0.285l-17.757,17.725c-0.035,0.289-0.069,0.574-0.104,0.863
	c-0.13,1.073-0.26,2.152-0.391,3.236c-0.513,4.277-1.025,8.627-1.521,12.967c-0.068,0.6-0.138,1.2-0.205,1.799
	c-0.054,0.474-0.106,0.945-0.159,1.417c-0.07,0.62-0.141,1.24-0.209,1.859l32.164-32.468l0.335-0.338L338.598,122.739z"/>
<path class="st2" d="M133.771,323.973c-0.554-3.287-0.973-6.687-1.265-10.177c-0.074-0.877-0.142-1.758-0.2-2.644
	c-0.035-0.529-0.061-1.065-0.091-1.599l-45.839,45.755c0,0-2.348,1.817-2.744,4.685c-0.11,0.8-0.07,1.681,0.218,2.627
	l-32.702,32.814l0,0l-0.113,0.144c-0.103,0.137-0.25,0.355-0.399,0.626c-0.296,0.549-0.57,1.293-0.565,2.083
	c0.019,0.912,0.273,1.968,1.656,3.378c1.207,1.185,1.963,1.35,2.474,1.36c0.532,0.006,1.074-0.257,1.556-0.651
	c0.473-0.383,0.803-0.846,0.82-0.877l0,0l0.108-0.17l32.585-32.698c0.806,0.348,1.583,0.506,2.322,0.519
	c1.711,0.029,3.213-0.699,4.369-1.541c1.529-1.112,2.453-2.419,2.453-2.419l7.03-7.097l29.219-29.494
	c-0.16-0.73-0.311-1.469-0.456-2.213c-0.154-0.796-0.3-1.6-0.437-2.41L133.771,323.973z"/>
<path class="st2" d="M343.162,378.323c-1.47-0.82-3.512-1.784-5.357-3.386l0,0c-1.929-1.69-6.777-7.388-12.42-14.269
	c-5.119-6.251-10.807-13.404-15.2-19.101l-0.151,0.379l-1.247-1.702c-0.057-0.077-0.148-0.188-0.237-0.309
	c-6.637-8.68-15.161-14.728-18.981-17.181c-1.274-0.817-2.004-1.228-2.006-1.228l-0.919-0.518l0.417-0.967
	c1.897-4.402,2.57-8.078,2.57-11.258c0.004-5.454-1.995-9.51-3.603-13.256c-0.094-0.218-0.184-0.434-0.275-0.65
	c-0.17-0.408-0.337-0.813-0.491-1.217c-0.267-0.706-0.443-1.495-0.577-2.326c-0.154-0.965-0.234-2.005-0.258-3.104
	c-0.006-0.252-0.02-0.496-0.02-0.754c0.003-3.072,0.377-6.589,0.802-9.907c0.024-0.187,0.048-0.373,0.072-0.559
	c0.048-0.37,0.097-0.739,0.145-1.103c0.038-0.288,0.077-0.568,0.115-0.85l0.035-0.259c0.049-0.36,0.097-0.713,0.144-1.062
	c0.055-0.405,0.107-0.8,0.159-1.186c0.169-1.258,0.313-2.411,0.413-3.416c0.039-0.389,0.069-0.753,0.093-1.093
	c0.026-0.389,0.044-0.749,0.046-1.066l0.004-0.146c0-0.111-0.002-0.229-0.002-0.318c-0.007-0.13-0.011-0.26-0.011-0.396
	c-0.005-2.638,0.991-4.625,1.895-6.091c0.943-1.448,1.626-2.54,1.549-2.87v-0.048l-0.008-0.058c-0.044-0.02-0.185-0.071-0.453-0.068
	c-1.017-0.027-3.237,0.759-5.615,2.296c-1.431,0.885-3.362,2.928-5.401,5.759c-0.189,0.264-0.381,0.538-0.572,0.814
	c-0.195,0.283-0.391,0.573-0.587,0.869c-0.369,0.557-0.737,1.137-1.106,1.737c-1.359,2.216-2.699,4.716-3.918,7.408l-0.033,0.073
	c-0.203,0.449-0.403,0.899-0.599,1.358c-0.088,0.207-0.172,0.418-0.259,0.627c-0.105,0.256-0.213,0.51-0.316,0.768
	c-0.123,0.31-0.24,0.622-0.359,0.934c-0.043,0.112-0.084,0.226-0.126,0.339c-0.406,1.085-0.794,2.183-1.142,3.304
	c-0.146,0.467-0.295,0.913-0.443,1.366c-0.14,0.428-0.28,0.855-0.422,1.27c-0.147,0.434-0.298,0.859-0.448,1.28
	c-3.607,10.101-7.874,16.513-14.181,22.3c-3.609,3.327-7.201,4.868-11.137,5.529c-3.929,0.667-8.183,0.533-13.46,0.657
	c-0.082,0.007-0.311,0.021-0.655,0.021c-1.135,0.015-3.679-0.173-6.348-1.466c-0.301-0.146-0.604-0.304-0.907-0.479
	c-0.28-0.163-0.561-0.336-0.839-0.526c-0.894-0.611-1.767-1.383-2.579-2.324c-0.19-0.221-0.375-0.453-0.557-0.694
	c-0.177-0.233-0.355-0.463-0.523-0.717c-0.549-0.827-1.05-1.762-1.482-2.822c-0.239-0.585-0.367-1.181-0.367-1.766
	c0.042-2.226,1.665-3.664,3.56-4.989c1.948-1.342,4.447-2.674,7.03-4.409c5.168-3.486,10.616-8.418,12.516-17.875l0.131-0.652
	l0.626-0.222c0,0,0.241-0.09,0.645-0.245c-1.187,3.351-2.562,7.03-3.401,9.89c-0.377,1.283-0.64,2.392-0.727,3.23
	c-0.02,0.199-0.045,0.403-0.045,0.569c0,3.619-2.853,7.801-0.964,9.296c0.1,0.078,0.201,0.154,0.327,0.218
	c0.19,0.095,0.455,0.135,0.77,0.134c0.632-0.002,1.492-0.186,2.506-0.529l-7.471,4.667l-0.467-0.745l0.423,0.768l-10.43,5.739
	c0.873,0.93,1.815,1.623,2.757,2.135l43.017-25.41c0.444-1.238,0.881-2.529,1.312-3.898c0.199-0.625,0.411-1.24,0.625-1.854
	l-17.521,10.947c0.8-0.771,1.535-1.57,2.165-2.388c0.448-0.583,0.839-1.175,1.174-1.771c0.324-0.579,0.597-1.162,0.791-1.745
	c1.746-5.234,1.99-10.169,0.319-14.392c-0.145-0.367-0.306-0.729-0.48-1.086c-0.172-0.35-0.36-0.693-0.56-1.032
	c1.212-0.776,2.442-1.612,3.68-2.512c0.105-0.076,0.21-0.148,0.314-0.227l0.22-0.157c0.363-0.27,0.725-0.554,1.088-0.834
	c0.529-0.409,1.055-0.829,1.579-1.261c2.043-1.68,4.035-3.521,5.885-5.541c0.452-0.494,0.898-0.994,1.333-1.509
	c0.214-0.255,0.416-0.521,0.626-0.78c0.214-0.266,0.43-0.528,0.638-0.798c2.607-3.383,4.748-7.184,6.101-11.402
	c0.06-0.186,0.117-0.371,0.173-0.559c-5.849-0.585-11.829-0.344-17.863,0.331c-0.447,0.05-0.895,0.101-1.343,0.155
	c-0.397,0.049-0.795,0.095-1.192,0.147c-0.831,0.107-1.662,0.223-2.494,0.344c-3.254,0.475-6.516,1.039-9.775,1.637
	c-0.798,0.145-1.596,0.294-2.394,0.443c-0.613,0.114-1.227,0.227-1.839,0.343c-0.184,0.035-0.367,0.069-0.551,0.103
	c-4.01,0.755-8.006,1.51-11.965,2.148c-4.676,0.86-9.391,1.577-14.128,2.107c-0.234,0.026-0.468,0.05-0.703,0.075
	c-0.818,0.088-1.636,0.173-2.455,0.249c-1.032,0.096-2.064,0.184-3.098,0.259c-3.919,0.288-7.85,0.421-11.782,0.379
	c-0.924-0.01-1.849-0.032-2.773-0.062c-0.446-0.015-0.892-0.024-1.337-0.044c-0.461-0.02-0.922-0.049-1.383-0.074
	c-5.256-0.291-10.508-0.923-15.734-1.991c-0.106-0.028-0.212-0.06-0.318-0.089c-5.761-1.571-11.661-4.008-16.141-8.106
	c-1.241-1.136-2.379-2.391-3.367-3.799c-3.157-4.41-4.011-9.663-3.628-14.808c0.029-0.39,0.065-0.778,0.108-1.166
	c0.04-0.366,0.084-0.73,0.136-1.094l0.01-0.067c0.257-1.779,0.641-3.528,1.118-5.204c-0.383,1.707-0.652,3.467-0.792,5.235
	c-0.031,0.389-0.055,0.778-0.072,1.168c-0.017,0.391-0.03,0.782-0.033,1.172c-0.04,5.308,1.268,10.523,4.755,14.472
	c2.525,2.964,5.765,5.075,9.318,6.618c3.485,1.514,7.273,2.48,10.992,3.161c5.399,0.981,10.897,1.523,16.432,1.705
	c0.478,0.016,0.958,0.023,1.437,0.034c0.445,0.009,0.89,0.025,1.336,0.031c0.945,0.01,1.892,0.006,2.838-0.004
	c4.011-0.041,8.031-0.264,12.037-0.635c1.056-0.098,2.11-0.205,3.163-0.324c0.829-0.093,1.657-0.191,2.484-0.297
	c0.248-0.031,0.496-0.064,0.743-0.097c3.712-0.489,7.402-1.092,11.049-1.799c3.101-0.484,6.192-1.048,9.287-1.628
	c0.188-0.035,0.376-0.07,0.564-0.105c0.607-0.114,1.216-0.229,1.823-0.345c0.795-0.15,1.591-0.3,2.388-0.45
	c3.222-0.607,6.451-1.198,9.696-1.715c0.819-0.13,1.639-0.259,2.46-0.378c0.389-0.057,0.778-0.106,1.167-0.159
	c0.443-0.061,0.886-0.125,1.33-0.183c4.374-0.562,8.788-0.921,13.265-0.922c0.644,0,1.29,0.019,1.936,0.034
	c1.989,0.047,3.816,0.104,5.834,0.315c0.096,0.031,0.159,0,0.284,0.02c0.362,0.016,0.726,0.03,1.067,0.057l0.092,0.006
	c0.406,0.031,0.789,0.051,1.186,0.076c14.382,0.939,22.225-1.872,25.633-7.554c3.51-5.849-8.191-7.019-24.572-8.188
	c-10.295-0.734-24.291,1.303-38.206,2.627c-0.484,0.047-0.968,0.087-1.452,0.131c-0.384,0.035-0.768,0.07-1.151,0.103
	c-0.875,0.077-1.748,0.148-2.62,0.218c-0.465,0.036-0.93,0.071-1.393,0.105c-0.274,0.019-0.551,0.043-0.825,0.061
	c-0.739,0.052-1.472,0.093-2.206,0.136c-0.482,0.028-0.965,0.058-1.445,0.082c-0.518,0.026-1.035,0.052-1.549,0.073
	c-1.149,0.048-2.293,0.088-3.422,0.108c-0.956,0.017-1.894,0.009-2.833,0.003c-0.709-0.005-1.412-0.018-2.11-0.037
	c-0.266-0.007-0.526-0.019-0.791-0.029c-0.315-0.011-0.632-0.021-0.944-0.035c-0.349-0.016-0.709-0.019-1.055-0.039l-0.205-0.015
	c-0.927-0.057-1.796-0.128-2.625-0.21c-0.388-0.038-0.767-0.078-1.135-0.122c-0.483-0.057-0.952-0.117-1.4-0.183
	c-0.182-0.027-0.357-0.055-0.533-0.083c-2.759-0.437-4.819-1.041-6.258-1.761c-2.85-1.426-3.271-3.302-1.868-5.239
	c1.091,0.881,2.416,1.746,4.143,1.879c0.123,0.01,0.24,0.03,0.369,0.032c0.737,0,1.511-0.154,2.323-0.47
	c0.09,0.072,0.19,0.146,0.301,0.22c0.707,0.479,1.833,0.969,3.463,0.962c0.342,0,0.711-0.03,1.094-0.076
	c0.237-0.028,0.479-0.062,0.732-0.11c0.537-0.102,1.108-0.245,1.72-0.445l0.057-0.017c0.097,0.065,0.207,0.135,0.328,0.208
	c0.302,0.183,0.684,0.383,1.12,0.565c0.297,0.124,0.62,0.237,0.97,0.332c0.541,0.147,1.137,0.251,1.785,0.259h0.046l0.179-0.008
	c0.286-0.009,0.577-0.04,0.873-0.097c0.944-0.182,1.923-0.614,2.822-1.376c0.928,0.413,2.619,1.042,4.443,1.058
	c0.939,0.009,1.963-0.216,2.855-0.768c0.133-0.082,0.271-0.15,0.398-0.248c0.535,0.275,1.318,0.618,2.258,0.849
	c0.398,0.098,0.824,0.176,1.271,0.22c0.236,0.022,0.477,0.038,0.725,0.04c0.195,0,0.4-0.022,0.601-0.04l0.238-0.016
	c0.391-0.049,0.785-0.14,1.18-0.27c0.594-0.195,1.184-0.479,1.736-0.893c0.111,0.037,0.262,0.079,0.396,0.119
	c0.199,0.06,0.42,0.117,0.664,0.177c0.764,0.186,1.707,0.352,2.752,0.356c1.236,0.002,2.637-0.246,3.853-1.044
	c0.533,0.218,1.365,0.512,2.367,0.704c0.523,0.1,1.096,0.166,1.695,0.185l0.266,0.011c0.855,0,1.777-0.135,2.68-0.469
	c0.197-0.073,0.395-0.149,0.588-0.244l0.059-0.024l0.039,0.015l0.242,0.096c0.957,0.372,2.644,0.911,4.478,0.922
	c1.107,0.002,2.312-0.216,3.367-0.871c0.879,0.193,2.789,0.553,4.851,0.555c1.266-0.002,2.6-0.132,3.822-0.576
	c0.633,0.175,1.941,0.482,3.387,0.486c0.869-0.003,1.807-0.113,2.684-0.497c0.728,0.134,2.365,0.403,3.971,0.406
	c0.951-0.011,1.895-0.075,2.74-0.446l4.588,0.193l0.098-1.947l-5.195-0.22l-0.273,0.158c-0.258,0.17-1.065,0.323-1.957,0.31
	c-0.902,0-1.875-0.108-2.621-0.217c-0.748-0.11-1.271-0.218-1.271-0.216l-0.41-0.084l-0.359,0.199
	c-0.098,0.055-0.207,0.099-0.32,0.142c-0.102,0.039-0.207,0.071-0.318,0.101c-0.404,0.109-0.867,0.167-1.353,0.166
	c-0.437,0-0.877-0.041-1.287-0.099c-0.31-0.043-0.607-0.096-0.859-0.15c-0.588-0.126-0.943-0.247-0.945-0.245l-0.402-0.132
	l-0.387,0.169c-0.891,0.388-2.109,0.549-3.328,0.547c-1.217,0-2.408-0.151-3.301-0.302c-0.9-0.153-1.494-0.307-1.496-0.3
	l-0.533-0.139l-0.424,0.333c-0.662,0.518-1.508,0.723-2.465,0.725c-1.035,0.002-2.146-0.257-2.977-0.528
	c-0.422-0.135-0.762-0.268-0.998-0.366c-0.228-0.096-0.359-0.159-0.361-0.156l-0.549-0.267l-0.516,0.319
	c-0.832,0.514-1.752,0.7-2.685,0.7c-1.024,0.002-2.037-0.234-2.783-0.478c-0.744-0.243-1.178-0.475-1.18-0.468l-0.664-0.34
	l-0.555,0.476c-0.824,0.708-1.885,0.953-3,0.955c-0.332,0-0.656-0.027-0.975-0.064c-0.258-0.03-0.506-0.069-0.742-0.115
	c-0.289-0.056-0.566-0.118-0.805-0.183c-0.41-0.11-0.703-0.213-0.883-0.279c-0.117-0.043-0.193-0.075-0.195-0.073l-0.662-0.28
	l-0.51,0.476c-0.83,0.757-1.668,1.016-2.539,1.065l-0.258,0.02l-0.172-0.012c-0.547-0.018-1.088-0.123-1.586-0.27
	c-0.324-0.096-0.635-0.202-0.902-0.315c-0.363-0.153-0.66-0.309-0.863-0.42c-0.201-0.112-0.287-0.172-0.289-0.172l-0.807-0.536
	l-0.006-0.004l-0.619,0.731c-0.273,0.316-0.584,0.526-0.93,0.668c-0.391,0.16-0.828,0.232-1.334,0.239
	c-0.937,0.004-2-0.275-2.805-0.572c-0.418-0.153-0.75-0.301-0.98-0.41c-0.211-0.099-0.336-0.166-0.338-0.164l-0.74-0.402
	l-0.568,0.595c-1.057,1.085-2.001,1.354-2.904,1.374h-0.027c-0.383,0.002-0.76-0.063-1.12-0.158
	c-0.45-0.118-0.872-0.286-1.222-0.466l-0.009-0.005c-0.174-0.09-0.324-0.178-0.459-0.261c-0.103-0.064-0.201-0.126-0.276-0.178
	c-0.171-0.12-0.238-0.178-0.238-0.178l-0.484-0.402l-0.604,0.224c-0.562,0.208-1.06,0.348-1.526,0.458
	c-0.727,0.171-1.353,0.25-1.866,0.25l-0.054-0.003c-0.383-0.005-0.698-0.049-0.979-0.108c-0.496-0.104-0.862-0.265-1.114-0.419
	c-0.197-0.126-0.334-0.247-0.409-0.325l-0.076-0.085l0,0l-0.203-0.306l-0.308-0.462l-0.866,0.429
	c-0.226,0.111-0.435,0.2-0.635,0.275c-0.565,0.212-1.034,0.291-1.442,0.291c-1.015,0.023-2.112-0.544-3.173-1.382
	c0.881-0.759,2.024-1.512,3.377-2.237c0.179-0.096,0.358-0.191,0.544-0.287c0.432-0.219,0.889-0.435,1.359-0.648
	c0.499-0.225,1.012-0.447,1.552-0.664c0.145-0.058,0.3-0.112,0.457-0.166c2.236-0.772,5.737-1.191,10.053-1.356
	c0.888-0.034,1.814-0.057,2.767-0.07c0.364-0.005,0.732-0.009,1.105-0.012h0.064c0.523-0.003,1.055-0.003,1.594-0.001h0.061
	c0.367,0.002,0.738,0.005,1.112,0.009c0.91,0.01,1.84,0.026,2.787,0.049c3.465,0.083,7.155,0.247,10.938,0.466
	c0.889,0.051,1.782,0.105,2.678,0.162c0.623,0.039,1.247,0.08,1.873,0.121c0.262,0.018,0.525,0.036,0.788,0.054
	c17.132,1.162,34.811,3.088,40.938,3.088c11.701,0,14.039-2.342,10.531-10.531c-1.777-4.146-0.256-23.978,2.134-46.347
	c0.047-0.436,0.094-0.872,0.141-1.31c0.067-0.625,0.136-1.252,0.204-1.88c0.116-1.064,0.234-2.133,0.354-3.205
	c0.479-4.295,0.98-8.634,1.487-12.933c0.127-1.079,0.256-2.156,0.384-3.229c0.035-0.297,0.07-0.592,0.106-0.888
	c0.094-0.786,0.187-1.569,0.281-2.35c0.387-3.203,0.771-6.355,1.148-9.42c-1.154-0.262-2.417-0.642-3.791-1.133
	c-0.288-0.103-0.574-0.204-0.873-0.317c-21.218-8.147-29.065-29.167-31.025-35.55c0.544,0.077,1.092,0.156,1.642,0.239
	c0.552,0.083,1.106,0.169,1.664,0.259c0.123,0.363,0.258,0.748,0.409,1.163c0.954,2.622,2.477,6.223,4.738,10.096
	c4.523,7.757,11.954,16.549,23.639,20.992l0.183,0.066c1.415,0.533,2.673,0.92,3.784,1.187c1.37,0.33,2.519,0.48,3.442,0.478
	c0.153-0.001,0.289-0.011,0.43-0.019c1.577-0.087,2.37-0.552,2.893-1.166c0.572-0.678,0.9-1.813,0.897-3.316
	c0.02-2.648-1.02-6.101-2.123-8.969c-0.639-1.662-1.299-3.128-1.785-4.125c-0.266-0.549-0.473-0.957-0.596-1.196
	c-0.27-0.232-0.54-0.453-0.81-0.678l-0.113-0.095l0.152-0.229l0.683-1.023l0.837-1.254l2.64-3.956l1.039-1.557l-0.575-0.456
	c5.723-14.74,42.367-32.293,15.752-45.101c-17.248-8.309-57.029,2.222-69.502,4.794c-11.012,2.272-19.279,6.289-25.262,11.685
	c-6.836,6.169-5.076,16.805,2.691,14.95c2.155-0.515,4.351-0.893,6.571-1.157l-1.331,2.352l-2.433,4.299l0.106-0.002
	c-31.765,5.032-65.233,17.114-78.271,34.499c-4.263,5.684-7.344,10.988-9.612,16.1c-0.211,0.475-0.43,0.954-0.627,1.426
	c-0.079,0.19-0.146,0.377-0.223,0.566c-0.277,0.682-0.554,1.364-0.803,2.04c-1.103,2.993-1.932,5.933-2.575,8.858
	c-0.173,0.788-0.336,1.576-0.482,2.362c-0.086,0.465-0.168,0.931-0.246,1.396c-0.058,0.343-0.116,0.688-0.169,1.031
	c-2.708,17.517,0.213,35.243-6.32,61.38c-1.327,5.31-1.331,9.817-0.308,13.643c0.204,0.761,0.455,1.49,0.738,2.197
	c0.248,0.62,0.519,1.225,0.825,1.806c-0.342,1.696-0.697,3.514-1.06,5.448c-0.458,2.441-0.926,5.064-1.391,7.826
	c-0.407,0.167-0.83,0.336-1.269,0.508c-0.412,0.161-0.831,0.323-1.268,0.489c-3.761,1.43-8.432,3.059-13.262,5.016l2.959-24.238
	c0.406-0.676,0.643-1.416,0.646-2.216c-0.006-1.6-0.947-2.959-2.296-4.04c-4.071-3.219-12.638-5.183-22.695-5.214
	c-6.695,0.002-12.755,0.916-17.236,2.442c-2.243,0.766-4.094,1.676-5.457,2.771c-1.036,0.83-1.826,1.826-2.143,2.967H76.95
	l0.048,0.399c-0.038,0.221-0.063,0.443-0.064,0.674c0.002,0.561,0.125,1.092,0.335,1.594l8.403,70.125h-0.015
	c0.006,1.177,0.698,2.133,1.595,2.847c2.712,2.116,8.1,3.306,14.457,3.339c4.225-0.004,8.053-0.575,10.914-1.543
	c1.433-0.487,2.629-1.069,3.542-1.796c0.751-0.6,1.355-1.372,1.535-2.3l0.176,0.021v-0.002l2.069-16.686
	c4.284,0.843,8.789,1.16,12.585-0.271c0.412-0.155,0.814-0.332,1.207-0.53c0.42-0.211,0.827-0.452,1.224-0.716
	c-0.428,5.891-0.684,11.862-0.683,17.745c0,2.313,0.043,4.609,0.126,6.884c0.014,0.376,0.028,0.751,0.044,1.126
	c0.023,0.535,0.049,1.068,0.077,1.601c0.047,0.898,0.102,1.792,0.164,2.68c0.249,3.539,0.616,6.994,1.122,10.319
	c0.126,0.823,0.261,1.637,0.404,2.443c0.133,0.753,0.276,1.495,0.425,2.232l0.03,0.155c1.085,5.343,2.576,10.271,4.566,14.569
	c5.155,11.042,13.235,17.923,26.317,17.963c0.996,0,2.019-0.04,3.074-0.122c18.877-1.49,27.726-3.425,34.043-5.649
	c6.304-2.212,10.313-4.837,19.303-7.661l0.061-0.018l0.05-0.009c13.611-2.845,24.695-6.388,32.119-6.411
	c0.939,0,1.828,0.057,2.662,0.191c9.137,1.49,11.749,10.537,14.582,13.331c7.738,8.137,14.174,10.747,24.401,16.546
	c8.451,4.822,28.573,11.925,35.145,12.939c0.713,0.113,1.216,0.146,1.648,0.149h0.046l0.073,0.008
	c1.126,0.128,2.164,0.184,3.113,0.184c2.537,0.002,4.439-0.423,5.638-1c1.223-0.587,1.627-1.249,1.658-1.642l0.007-0.09
	c-0.009-0.168-0.04-0.3-0.371-0.627c-0.323-0.311-0.908-0.684-1.642-1.088L343.162,378.323z M79.511,226.418
	c0.231-0.38,0.594-0.787,1.122-1.215c3.151-2.597,11.444-4.715,21.061-4.715h0.222c6.484-0.004,12.355,0.902,16.513,2.321
	c2.076,0.704,3.719,1.544,4.771,2.395c0.528,0.428,0.891,0.835,1.123,1.215c0.236,0.388,0.336,0.748,0.333,1.073
	c0.004,0.413-0.162,0.883-0.561,1.395c-0.222,0.284-0.514,0.581-0.895,0.89c-3.175,2.615-11.571,4.744-21.285,4.713
	c-6.483,0.003-12.353-0.901-16.511-2.318c-2.076-0.706-3.719-1.544-4.771-2.394c-0.48-0.389-0.818-0.759-1.051-1.108
	c-0.284-0.427-0.409-0.822-0.405-1.176c-0.003-0.325,0.097-0.685,0.333-1.073L79.511,226.418z M117.739,282.558l-2.066,16.652h-0.17
	c0.006,0.218-0.137,0.594-0.751,1.092c-1.819,1.516-7.04,2.874-13.049,2.843c-4.018,0.002-7.654-0.558-10.194-1.422
	c-1.268-0.428-2.257-0.938-2.857-1.421c-0.414-0.337-0.603-0.611-0.687-0.826l-0.032-0.266l-8.055-67.208
	c4.289,2.933,12.488,4.707,22.038,4.737c6.695-0.004,12.757-0.918,17.238-2.44c1.781-0.608,3.3-1.311,4.54-2.121l-2.684,21.986
	l-3.27,28.393L117.739,282.558z M168.451,176.472c0.352-0.252,0.708-0.484,1.066-0.703c0.612-0.376,1.232-0.702,1.857-0.982
	c3.506-1.572,7.182-1.682,10.748-0.658c1.728,0.496,3.429,1.257,5.074,2.245c1.205,0.724,2.379,1.569,3.509,2.522
	c0.224,0.188,0.446,0.379,0.666,0.576c4.235,3.791,6.288,6.044,8.664,6.939c2.208,0.831,4.695,0.489,9.475-0.898
	c-2.48,2.026-4.902,2.96-7.359,3.021c-0.635,0.016-1.272-0.023-1.914-0.123c-0.442-0.069-0.887-0.167-1.334-0.289
	c-1.746-0.478-3.532-1.353-5.387-2.564v0.006c0.269,1.384,0.36,2.779,0.361,4.017c0,2.35-0.311,4.126-0.313,4.144l-0.039,0.221
	l-0.197,0.106c-0.613,0.332-1.247,0.486-1.876,0.486h-0.013c-0.144-0.001-0.284-0.029-0.426-0.044
	c-0.651-0.069-1.289-0.263-1.917-0.56c-0.097,0.383-0.214,0.757-0.367,1.114c-0.184,0.43-0.406,0.839-0.662,1.225
	c-0.126,0.19-0.262,0.373-0.404,0.55c-1.393,1.736-3.527,2.851-5.924,2.851c-4.193,0-7.598-3.409-7.598-7.605
	c0-1.102,0.24-2.147,0.663-3.093c-0.262,0.1-0.511,0.201-0.731,0.297c-0.971,0.42-1.51,0.758-1.512,0.758l-0.709,0.442v-0.835
	c0-2.327,0.602-4.676,2.035-6.638c0.144-0.197,0.293-0.392,0.455-0.581c0.184-0.215,0.368-0.431,0.575-0.634
	c0.099-0.097,0.214-0.184,0.318-0.277c0.487-0.439,1.02-0.851,1.626-1.215c1.922-1.155,4.473-1.884,7.718-2.022
	c-4.455-3.311-8.754-3.456-12.236-2.512c-0.743,0.201-1.449,0.449-2.11,0.729c-0.421,0.178-0.827,0.365-1.211,0.561
	c-0.239,0.122-0.47,0.247-0.693,0.373c-2.465,1.387-3.969,2.927-3.969,2.927c1.118-1.352,2.284-2.481,3.482-3.414
	c0.203-0.158,0.405-0.314,0.61-0.46L168.451,176.472z M245.687,82.545l1.07-1.892c1.709,0.03,5.778,0.136,10.97,0.495
	c0.394,0.027,0.815,0.061,1.222,0.092c4.159,0.31,8.907,0.78,13.675,1.493c2.935,0.438,5.869,0.965,8.661,1.604
	c1.749,0.4,4.417,0.858,6.038,1.339c6.727,1.996,9.767,3.245,13.882,5.488c1.102,0.6,3.994,2.255,4.827,2.864
	c0.725,0.53,1.183,0.902,1.757,1.338c0.278,0.211,0.616,0.505,0.865,0.673c0.346,0.234,0.645,0.443,0.902,0.624l-0.868,1.301
	l-1.11,1.663l-0.479,0.719c-0.581-0.692-1.378-1.522-2.439-2.431c-2.853-2.441-7.662-5.441-15.463-7.841
	c-1.087-0.334-2.212-0.661-3.418-0.969c-5.591-1.433-11.288-2.441-16.644-3.152c-2.917-0.388-5.729-0.686-8.37-0.917
	c-7.062-0.616-12.881-0.743-16.058-0.759l0.981-1.733L245.687,82.545z M300.344,85.061c0.35-1.805,1.562-4.32,3.568-6.612
	c2.592-3.063,5.828-4.804,7.467-4.804h0.09c0.514,0.008,0.779,0.125,0.973,0.287c0.229,0.197,0.445,0.594,0.453,1.422
	c0.034,1.763-1.26,4.887-3.685,7.671c-1.543,1.82-3.303,3.156-4.826,3.953c-1.087,0.569-2.058,0.872-2.727,0.845
	c-0.515-0.004-0.785-0.124-0.969-0.28c-0.236-0.204-0.453-0.601-0.461-1.428C300.221,85.806,300.27,85.444,300.344,85.061
	L300.344,85.061z"/>
<path class="st2" d="M325.72,99.029c-1.988,2.005-2.604,3.655-2.615,5.153c-0.006,1.612,0.798,3.376,2.419,5.229
	c1.005,1.151,2.303,2.3,3.787,3.409c0.892,0.666,1.851,1.316,2.853,1.944c2.973,1.868,6.317,3.528,9.46,4.92
	c2.51,1.112,4.895,2.058,6.835,2.773c1.566,0.58,2.842,1.016,3.688,1.295c3.593-3.587,17.873-17.843,33.655-33.602
	c18.267-18.238,38.549-38.49,46.601-46.536c3.063-3.079,4.283-6.516,4.298-10.095c0.013-4.813-2.38-9.909-6.092-13.737
	c-3.705-3.84-8.644-6.33-13.414-6.318c-3.539,0.015-7.048,1.283-10.346,4.555h0.001c-17.065,17.047-65.964,65.862-81.132,81.009
	L325.72,99.029z"/>
<polygon class="st2" points="297.527,218.788 297.527,221.332 297.527,223.179 297.527,225.413 305.881,226.237 328.53,228.473 
	328.53,215.725 303.032,218.244 "/>
<polygon class="st2" points="329.368,228.739 329.701,228.739 330.54,228.739 330.54,215.79 329.701,215.79 329.368,215.79 "/>
<rect x="331.192" y="215.79" class="st2" width="1.17" height="12.947"/>
<rect x="333.021" y="215.789" class="st2" width="1.171" height="12.951"/>
<path class="st1" d="M119.462,242.879c-0.171-0.253-0.403-0.521-0.752-0.812c-0.807-0.672-2.092-1.349-3.728-1.919
	c-3.272-1.148-7.927-1.888-13.066-1.886h-0.2c-7.61,0-14.177,1.745-16.59,3.805c-0.349,0.291-0.581,0.56-0.752,0.812
	c-0.129,0.19-0.229,0.372-0.278,0.538c-0.039,0.131-0.057,0.255-0.056,0.37l0.024,0.165c0.055,0.429,0.335,0.95,1.061,1.558
	c0.804,0.671,2.092,1.35,3.726,1.919c3.272,1.149,7.925,1.89,13.064,1.888c7.696,0.031,14.358-1.728,16.794-3.807
	c0.726-0.606,1.006-1.128,1.061-1.556l0.024-0.167c0-0.115-0.017-0.239-0.056-0.37c-0.049-0.166-0.149-0.348-0.278-0.538
	L119.462,242.879z"/>
<path class="st2" d="M175.873,182.145c-0.327,0.291-0.614,0.604-0.882,0.926c-0.158,0.189-0.314,0.38-0.454,0.578
	c-1.079,1.539-1.599,3.339-1.726,5.187c0.59-0.298,1.513-0.715,2.679-1.085c0.721-0.229,1.534-0.44,2.422-0.595l0.11-0.01
	c0.25-0.038,0.5-0.066,0.753-0.066l0.206,0.019c0.835,0.037,1.641,0.252,2.421,0.594c1.477,0.647,2.868,1.715,4.211,2.749
	c1.27,0.994,2.505,1.945,3.663,2.542c0.147,0.076,0.293,0.14,0.438,0.204c0.601,0.265,1.18,0.429,1.726,0.421
	c0.422-0.001,0.829-0.082,1.246-0.274c0.08-0.537,0.266-1.976,0.265-3.757c0.003-1.485-0.139-3.195-0.559-4.786
	c-1.914-1.365-3.905-3.054-6.013-5.027c-0.231-0.217-0.462-0.41-0.693-0.608c-3.543,0.019-6.198,0.701-8.151,1.809
	c-0.622,0.353-1.176,0.747-1.661,1.179H175.873z"/>
<path class="st2" d="M185.715,191.691c-0.465-0.73-1.146-1.306-1.958-1.633c-0.111-0.045-0.229-0.072-0.345-0.107
	c-0.385-0.118-0.786-0.2-1.21-0.2l-0.072,0.007c0.247,0.255,0.405,0.592,0.441,0.967l0.016,0.157c0,0.246-0.06,0.477-0.16,0.687
	c-0.259,0.544-0.811,0.924-1.451,0.924c-0.89,0-1.614-0.723-1.615-1.609c-0.814,0.761-1.33,1.836-1.33,3.038
	c0,2.3,1.867,4.173,4.172,4.173c1.822,0,3.358-1.183,3.924-2.814c0.087-0.25,0.149-0.509,0.187-0.778
	c0.027-0.191,0.059-0.382,0.059-0.581c0-0.546-0.112-1.065-0.303-1.543c-0.097-0.242-0.216-0.47-0.354-0.687L185.715,191.691z"/>
<path class="st1" d="M102.392,261.657c-0.641,0-1.16,0.52-1.162,1.164c0.002,0.643,0.521,1.163,1.162,1.163
	c0.645,0,1.166-0.52,1.166-1.163S103.037,261.657,102.392,261.657z"/>
<path class="st1" d="M118.369,251.835c-0.938,0.609-2.073,1.137-3.384,1.594c-3.412,1.181-8.004,1.885-13.074,1.889
	c-7.198-0.027-13.374-1.367-16.694-3.646l4.916,44.228h0.114c-0.057,0.167-0.095,0.337-0.095,0.51l0.004,0.029
	c0.004,0.183,0.048,0.361,0.115,0.537c0.322,0.855,1.358,1.626,2.887,2.234c2.113,0.841,5.152,1.372,8.543,1.372
	s6.433-0.531,8.546-1.372c1.53-0.608,2.565-1.38,2.887-2.234c0.066-0.176,0.111-0.354,0.115-0.537l0.004-0.029
	c0-0.173-0.038-0.343-0.095-0.51h0.314l4.897-44.064L118.369,251.835z M111.375,275.661c-0.199,3.287-2.018,4.81-3.754,5.48
	c-1.629,0.69-2.937,1.022-3.665,2.151l-1.533,3.757l-1.538-3.763c-0.728-1.121-2.027-1.455-3.647-2.141
	c-1.74-0.669-3.568-2.188-3.768-5.484l-1.653,0.962l2.494-6.112l2.499,6.112l-1.57-0.912c0.241,2.604,1.249,3.116,2.696,3.823
	c0.913,0.406,2.106,0.749,3.141,1.486v-11.784h-2.601v0.672h-1.755v-2.743h1.755v0.316h2.601v-2.07
	c-0.946-0.482-1.6-1.456-1.6-2.591c0-1.612,1.304-2.918,2.916-2.921c1.614,0,2.92,1.309,2.92,2.921c0,1.136-0.655,2.109-1.603,2.592
	v2.069h2.552v-0.316h1.755v2.743h-1.755v-0.672h-2.552v11.823c1.052-0.77,2.28-1.113,3.213-1.53c1.438-0.705,2.443-1.22,2.684-3.817
	l-1.569,0.911l2.499-6.112l2.495,6.112l-1.655-0.963L111.375,275.661z"/>
<path class="st2" d="M111.375,275.661c-0.199,3.287-2.018,4.81-3.754,5.48c-1.629,0.69-2.937,1.022-3.665,2.151l-1.533,3.757
	l-1.538-3.763c-0.728-1.121-2.027-1.455-3.647-2.141c-1.74-0.669-3.568-2.188-3.768-5.484l-1.653,0.962l2.494-6.112l2.499,6.112
	l-1.57-0.912c0.241,2.604,1.249,3.116,2.696,3.823c0.913,0.406,2.106,0.749,3.141,1.486v-11.784h-2.601v0.672h-1.755v-2.743h1.755
	v0.316h2.601v-2.07c-0.946-0.482-1.6-1.456-1.6-2.591c0-1.612,1.304-2.918,2.916-2.921c1.614,0,2.92,1.309,2.92,2.921
	c0,1.136-0.655,2.109-1.603,2.592v2.069h2.552v-0.316h1.755v2.743h-1.755v-0.672h-2.552v11.823c1.052-0.77,2.28-1.113,3.213-1.53
	c1.438-0.705,2.443-1.22,2.684-3.817l-1.569,0.911l2.499-6.112l2.495,6.112l-1.655-0.963L111.375,275.661z M102.392,261.657
	c-0.641,0-1.16,0.52-1.162,1.164c0.002,0.643,0.521,1.163,1.162,1.163c0.645,0,1.166-0.52,1.166-1.163
	S103.037,261.657,102.392,261.657z"/>
<path class="st1" d="M300.345,85.06c0.35-1.805,1.562-4.32,3.568-6.612c2.592-3.063,5.828-4.804,7.467-4.804h0.09
	c0.514,0.008,0.779,0.125,0.973,0.287c0.229,0.197,0.445,0.594,0.453,1.422c0.034,1.763-1.26,4.887-3.685,7.671
	c-1.543,1.82-3.303,3.156-4.826,3.953c-1.087,0.569-2.058,0.872-2.727,0.845c-0.515-0.004-0.785-0.124-0.969-0.28
	c-0.236-0.204-0.453-0.601-0.461-1.428C300.222,85.805,300.271,85.443,300.345,85.06L300.345,85.06z"/>
<path class="st1" d="M245.687,82.544l1.07-1.892c1.709,0.03,5.778,0.136,10.97,0.495c0.394,0.027,0.815,0.061,1.222,0.092
	c4.159,0.31,8.907,0.78,13.675,1.493c2.935,0.438,5.869,0.965,8.661,1.604c1.749,0.4,4.417,0.858,6.038,1.339
	c6.727,1.996,9.767,3.245,13.882,5.488c1.102,0.6,3.994,2.255,4.827,2.864c0.725,0.53,1.183,0.902,1.757,1.338
	c0.278,0.211,0.616,0.505,0.865,0.673c0.346,0.234,0.645,0.443,0.902,0.624l-0.868,1.301l-1.11,1.663l-0.479,0.719
	c-0.581-0.692-1.378-1.522-2.439-2.431c-2.853-2.441-7.662-5.441-15.463-7.841c-1.087-0.334-2.212-0.661-3.418-0.969
	c-5.591-1.433-11.288-2.441-16.644-3.152c-2.917-0.388-5.729-0.686-8.37-0.917c-7.062-0.616-12.881-0.743-16.058-0.759l0.981-1.733
	L245.687,82.544z"/>
<path class="st1" d="M305.654,126.09c-1.154-0.262-2.417-0.642-3.791-1.133c-0.288-0.103-0.574-0.204-0.873-0.317
	c-21.218-8.147-29.065-29.167-31.025-35.55c0.544,0.077,1.092,0.156,1.642,0.239c0.552,0.083,1.106,0.169,1.664,0.259
	c0.123,0.363,0.258,0.748,0.409,1.163c0.954,2.622,2.477,6.223,4.738,10.096c4.523,7.757,11.954,16.549,23.639,20.992l0.183,0.066
	c1.415,0.533,2.673,0.92,3.784,1.187l-0.369,2.997L305.654,126.09z"/>
</svg>
