<?xml version="1.0" encoding="utf-8"?>
<!-- Generator: Adobe Illustrator 27.6.1, SVG Export Plug-In . SVG Version: 6.00 Build 0)  -->
<svg version="1.1" id="Layer_1" xmlns="http://www.w3.org/2000/svg" xmlns:xlink="http://www.w3.org/1999/xlink" x="0px" y="0px"
	 viewBox="0 0 407.871 389.558" style="enable-background:new 0 0 407.871 389.558;" xml:space="preserve">
<style type="text/css">
	.st0{fill:#FFDD00;}
	.st1{fill:#231F20;}
	.st2{fill:#FFFFFF;}
	.st3{fill:#E12827;}
	.st4{fill:#F58B23;}
	.st5{fill:#F9E83F;}
</style>
<g>
	<path class="st0" d="M341.743,263.361c8.811,3.097,14.571,12.016,13.324,21.648c-1.433,11.068-11.566,18.88-22.634,17.447
		c-1.524-0.197-2.978-0.574-4.364-1.081c-0.994,3.52-1.937,7.132-2.802,10.823c-7.612,32.466-3.424,44.188-3.424,44.188
		l56.79-108.451l-31.311,3.412C345.867,254.288,343.925,258.369,341.743,263.361L341.743,263.361z"/>
	<path class="st0" d="M343.228,276.721c-0.833,1.798-0.891,3.029-4.499,4.588c0,0,1.164,2.106,1.014,5.964
		c-0.077,1.729-0.031,4.533-0.134,6.705c-0.109,2.307-0.519,3.568-0.381,4.731c6.464-1.669,11.586-7.107,12.495-14.133
		c0.605-4.673-0.774-9.142-3.476-12.573c-0.185,0.09-0.311,0.145-0.311,0.145c-1.375,1.125-3.876,2.772-4.708,4.571L343.228,276.721
		z"/>
	<path class="st0" d="M340.344,271.516c2.1-1.191,3.442-1.295,5.078-1.505c0,0,0.354-0.053,0.862-0.104
		c-1.675-1.51-3.66-2.695-5.875-3.44c-0.826,1.949-1.675,4.001-2.539,6.169C338.645,272.373,339.455,272.022,340.344,271.516z"/>
	<path class="st0" d="M336.308,299.204c-1.341-1.925-3.175-5.064-3.942-7.022c-0.308-0.933-0.55-1.683-0.756-2.368
		c-0.889,2.691-1.759,5.465-2.6,8.309c1.22,0.466,2.505,0.814,3.858,0.989C334.031,299.262,335.182,299.289,336.308,299.204z"/>
	<path class="st0" d="M332.701,273.308c1.789,0.006,3.375-0.065,5.169-0.672c0.864-2.168,1.713-4.22,2.539-6.169
		c-1.028-0.346-2.104-0.602-3.221-0.746c-4.329-0.56-8.476,0.592-11.792,2.911C328.394,271.081,331.638,273.304,332.701,273.308z"/>
	<path class="st0" d="M330.502,284.475c-0.081-1.188,0.585-4.683-0.917-6.396c-0.562-0.648-2.117-1.592-9.402-3.574
		c-0.931,1.745-1.584,3.675-1.853,5.753c-1.017,7.866,3.581,15.151,10.679,17.865c0.841-2.844,1.711-5.617,2.6-8.309
		C331.094,288.105,330.826,286.846,330.502,284.475z"/>
	<path class="st1" d="M110.505,102.026c-0.617,0.484-1.259,0.953-1.919,1.411c-2.192,1.52-4.587,2.898-7.002,4.137
		c-0.293,0.15-0.586,0.303-0.879,0.449c-0.621,0.309-1.239,0.605-1.854,0.895l0.687,0.693l27.883,28.146
		c0.091-0.445,0.186-0.891,0.286-1.337c0.17-0.764,3.042-0.318,0.548-2.296s1.733-2.101,0.811-2.909
		c-4.036-3.535,0.042-1.8,0.659-2.07c0.819-0.359,0.545-1.575,0.757-2.146c0.276-0.744,4.598,0.458,0.577-1.503
		s0.617-1.506,0.834-2.008c0.078-0.18,0.154-0.36,0.233-0.541l-21.251-21.212c-0.122,0.098-0.247,0.194-0.37,0.29L110.505,102.026z"
		/>
	<path class="st1" d="M84.561,110.287c0.45-0.149,1.023-0.342,1.701-0.579c1.775-0.62,4.237-1.529,6.965-2.68
		c0.849-0.355,1.728-0.744,2.615-1.146c4.243-1.922,8.766-4.344,12.166-7.008c0.461-0.361,0.916-0.723,1.331-1.092
		c2.783-2.45,4.294-4.935,4.261-7.065c-0.01-1.498-0.628-3.149-2.615-5.154C95.819,70.415,46.92,21.6,29.856,4.554l0,0
		C26.558,1.281,23.049,0.014,19.51,0h-0.04C14.711,0,9.79,2.487,6.094,6.317C2.379,10.145-0.014,15.242,0,20.052
		c0.015,3.579,1.236,7.017,4.302,10.097c8.055,8.047,28.335,28.297,46.603,46.536c15.781,15.758,30.061,30.013,33.655,33.601
		L84.561,110.287z"/>
	<path class="st1" d="M322.068,254.101l-1.524,0.166l-1.525,0.167c-0.073,0.159-0.144,0.313-0.218,0.477
		c-8.338,18.483-25.646,66.723,2.155,104.753l1.244,1.697l0.978-1.864l58.595-111.903l-1.569,0.17l-1.572,0.172l-56.79,108.451
		c0,0-4.187-11.721,3.424-44.188c0.865-3.691,1.809-7.303,2.802-10.823c1.386,0.507,2.84,0.884,4.364,1.081
		c11.068,1.433,21.201-6.379,22.634-17.447c1.247-9.633-4.513-18.552-13.324-21.648c2.181-4.992,4.123-9.073,5.578-12.014
		L322.068,254.101L322.068,254.101z M332.868,299.112c-1.353-0.175-2.638-0.523-3.858-0.989
		c-7.098-2.714-11.696-9.999-10.679-17.865c0.269-2.078,0.922-4.008,1.853-5.753c7.285,1.982,8.84,2.926,9.402,3.574
		c1.502,1.713,0.836,5.208,0.917,6.396c0.325,2.371,0.592,3.63,1.107,5.339c0.206,0.685,0.448,1.435,0.756,2.368
		c0.767,1.958,2.601,5.097,3.942,7.022C335.183,299.289,334.032,299.262,332.868,299.112z M351.723,284.578
		c-0.909,7.026-6.031,12.464-12.495,14.133c-0.138-1.163,0.272-2.425,0.381-4.731c0.103-2.172,0.057-4.976,0.134-6.705
		c0.15-3.859-1.014-5.964-1.014-5.964c3.608-1.559,3.666-2.79,4.499-4.588c0.832-1.8,3.332-3.446,4.708-4.571
		c0,0,0.126-0.056,0.311-0.145c2.702,3.431,4.081,7.9,3.476,12.573L351.723,284.578z M340.409,266.467
		c2.215,0.745,4.2,1.93,5.875,3.44c-0.508,0.051-0.862,0.104-0.862,0.104c-1.637,0.21-2.978,0.314-5.078,1.505
		c-0.889,0.505-1.699,0.857-2.474,1.12c-1.795,0.607-3.381,0.677-5.169,0.672c-1.064-0.004-4.307-2.227-7.305-4.676
		c3.316-2.318,7.463-3.471,11.792-2.911C338.305,265.865,339.381,266.121,340.409,266.467z"/>
	<path class="st1" d="M386.323,245.331l-0.565-7.232l-106.195,14.258c-0.69,1.351-1.723,3.047-2.896,4.927l43.218-4.711l1.539-0.168
		l1.539-0.168l25.295-2.757l31.356-3.418l1.573-0.171l1.569-0.171l3.569-0.389L386.323,245.331z"/>
	<path class="st1" d="M323.042,127.495c-0.425-0.196-0.852-0.397-1.281-0.603c-2.049-0.982-4.133-2.076-6.131-3.269
		c-1.525-0.911-2.997-1.879-4.362-2.902c-0.126-0.095-0.253-0.189-0.378-0.285l-17.757,17.725c-0.035,0.289-0.069,0.574-0.104,0.863
		c-0.13,1.073-0.26,2.152-0.391,3.236c-0.513,4.277-1.025,8.627-1.521,12.967c-0.068,0.6-0.138,1.2-0.205,1.799
		c-0.054,0.474-0.106,0.945-0.159,1.417c-0.07,0.62-0.141,1.24-0.209,1.859l32.164-32.468l0.335-0.338L323.042,127.495z"/>
	<path class="st1" d="M117.751,310.506c-0.554-3.287-0.973-6.687-1.265-10.177c-0.074-0.877-0.142-1.758-0.2-2.644
		c-0.035-0.529-0.061-1.065-0.091-1.599l-45.839,45.755c0,0-2.348,1.817-2.744,4.685c-0.11,0.8-0.07,1.681,0.218,2.627
		l-32.702,32.814l0,0l-0.113,0.144c-0.103,0.137-0.25,0.355-0.399,0.626c-0.296,0.549-0.57,1.293-0.565,2.083
		c0.019,0.912,0.273,1.968,1.656,3.378c1.207,1.185,1.963,1.35,2.474,1.36c0.532,0.006,1.074-0.257,1.556-0.651
		c0.473-0.383,0.803-0.846,0.82-0.877l0,0l0.108-0.17l32.585-32.698c0.806,0.348,1.583,0.506,2.322,0.519
		c1.711,0.029,3.213-0.699,4.369-1.541c1.529-1.112,2.453-2.419,2.453-2.419l7.03-7.097l29.219-29.494
		c-0.16-0.73-0.311-1.469-0.456-2.213c-0.154-0.796-0.3-1.6-0.437-2.41L117.751,310.506z"/>
	<path class="st1" d="M401.349,93.22c0.67-0.809,1.346-1.614,2.04-2.405c1.098-1.864,2.371-3.645,3.724-5.354
		c0.274-0.604,0.534-1.218,0.759-1.853c-0.68-0.607-1.374-1.195-2.069-1.784c-3.147,2.922-6.081,6.083-9.491,8.706
		c1.237-0.951,2.219-2.629,3.243-3.806c1.033-1.188,2.067-2.779,3.318-3.741c0.749-0.576,1.471-1.184,2.181-1.805
		c-0.964-0.799-1.945-1.575-2.947-2.323c-28.689,7.188-64.394,16.131-78.582,19.687c-2.735,0.7-4.111,1.799-4.89,3.079
		c-0.833,1.381-1.049,3.307-0.609,5.73c0.271,1.503,0.795,3.156,1.5,4.87c0.423,1.029,0.912,2.08,1.451,3.134
		c1.592,3.129,3.61,6.271,5.592,9.079c1.583,2.243,3.144,4.279,4.442,5.889c1.047,1.302,1.917,2.331,2.5,3.005
		c4.925-1.234,24.498-6.136,46.132-11.557c7.023-1.759,14.262-3.573,21.289-5.334c1.445-4.395,2.906-8.785,4.378-13.17
		c-3.463-0.738-6.91-1.561-10.332-2.513c1.26,0.351,4.811-7.274,6.37-7.533L401.349,93.22z"/>
	<polygon class="st1" points="304.656,221.624 302.881,223.447 301.593,224.771 300.035,226.372 305.446,232.789 320.119,250.187 
		329.01,241.052 308.98,225.074 	"/>
	<polygon class="st1" points="316.425,249.227 316.616,249.5 317.098,250.187 327.701,242.754 327.22,242.067 327.029,241.795 	"/>
	
		<rect x="317.183" y="247.956" transform="matrix(0.8896 -0.4568 0.4568 0.8896 -77.7921 175.2942)" class="st1" width="12.947" height="1.17"/>
	
		<rect x="318.315" y="251.499" transform="matrix(0.9452 -0.3266 0.3266 0.9452 -64.521 119.9035)" class="st1" width="12.951" height="1.171"/>
	<path class="st0" d="M86.372,248.191c-0.641,0-1.16,0.52-1.162,1.164c0.002,0.643,0.521,1.163,1.162,1.163
		c0.645,0,1.166-0.52,1.166-1.163S87.017,248.191,86.372,248.191z"/>
	<path class="st0" d="M102.151,245.531c-0.901,1.569-3.11,4.924-7.338,7.259c-1.501,0.829-6.891,3.537-13.616,1.826
		c-6.357-1.618-9.735-6.123-10.6-7.357c1.337,12.031,2.674,24.062,4.012,36.092h0.114c-0.057,0.167-0.095,0.337-0.095,0.51
		l0.004,0.029c0.004,0.183,0.048,0.361,0.115,0.537c0.003,0.007,0.008,0.01,0.009,0.01c0.637,0.733,0.805,2.181,0.805,2.181
		c0.137,0.924,0.285,2.348,0.188,4.073c-0.357,6.357-3.49,7.113-3.269,11.765c0.15,3.164,1.725,5.477,0.337,8.5
		c-0.252,0.55-0.327,0.522-0.577,1.104c-1.231,2.864-0.375,5.738,0.077,7.396c0,0,1.37,5.03,1.917,9.917
		c0.703,6.278-0.868,6.563,0.417,10.083c0.855,2.342,2.218,4.045,1.917,6.833c-0.08,0.738-0.276,1.554,0.167,1.917
		c0.742,0.607,3.001-0.29,3.333-1.583c0.248-0.967-0.708-1.66-1.583-3c-2.288-3.499-1.704-7.854-1.417-10
		c0.295-2.201,0.677-1.896,1.5-5.833c0.529-2.527,0.873-4.174,0.917-6.083c0.114-4.969-1.947-5.58-1.999-10.54
		c-0.028-2.687,0.552-4.894,1.115-7.036c0.947-3.602,1.488-3.344,2.127-6.346c0.788-3.704,0.271-5.539,1.809-6.913
		c0.405-0.361,0.691-0.458,2.885-1.087c0,0,2.183-0.715,9.301-3.124c0.727-0.246,2.367-0.858,2.887-2.234
		c0.066-0.176,0.111-0.354,0.115-0.537l0.004-0.029c0-0.173-0.038-0.343-0.095-0.51h0.314
		C99.348,270.744,100.749,258.138,102.151,245.531z"/>
	<path class="st1" d="M95.355,262.195c-0.199,3.287-2.018,4.81-3.754,5.48c-1.629,0.69-2.937,1.022-3.665,2.151l-1.533,3.757
		l-1.538-3.763c-0.728-1.121-2.027-1.455-3.647-2.141c-1.74-0.669-3.568-2.188-3.768-5.484l-1.653,0.962l2.494-6.112l2.499,6.112
		l-1.57-0.912c0.241,2.604,1.249,3.116,2.696,3.823c0.913,0.406,2.106,0.749,3.141,1.486V255.77h-2.601v0.672h-1.755v-2.743h1.755
		v0.316h2.601v-2.07c-0.946-0.482-1.6-1.456-1.6-2.591c0-1.612,1.304-2.918,2.916-2.921c1.614,0,2.92,1.309,2.92,2.921
		c0,1.136-0.655,2.109-1.603,2.592v2.069h2.552v-0.316h1.755v2.743h-1.755v-0.672H87.69v11.823c1.052-0.77,2.28-1.113,3.213-1.53
		c1.438-0.705,2.443-1.22,2.684-3.817l-1.569,0.911l2.499-6.112l2.495,6.112l-1.655-0.963L95.355,262.195z"/>
	<path class="st0" d="M284.321,71.613c0.992-1.212,1.811-6.901,3.568-6.612c1.757,0.289,7.51-4.342,7.467-4.804
		c-0.043-0.462,0.09,0,0.09,0c0.514,0.008,0.779,0.125,0.973,0.287c0.229,0.197,0.445,0.594,0.453,1.422
		c0.034,1.763-1.26,4.887-3.685,7.671c-1.543,1.82-3.303,3.156-4.826,3.953c-1.087,0.569-2.058,0.872-2.727,0.845
		c-0.515-0.004-0.785-0.124-0.969-0.28c-0.236-0.204-0.453-0.601-0.461-1.428C284.198,72.358,284.247,71.996,284.321,71.613
		L284.321,71.613z"/>
	<path class="st0" d="M229.668,69.078l1.07-1.892c1.709,0.03,5.778,0.136,10.97,0.495c0.394,0.027,0.815,0.061,1.222,0.092
		c4.159,0.31,8.907,0.78,13.675,1.493c2.935,0.438,5.869,0.965,8.661,1.604c1.749,0.4,4.417,0.858,6.038,1.339
		c6.727,1.996,9.767,3.245,13.882,5.488c1.102,0.6,3.994,2.255,4.827,2.864c0.725,0.53,1.183,0.902,1.757,1.338
		c0.278,0.211,0.616,0.505,0.865,0.673c0.346,0.234,0.645,0.443,0.902,0.624l-0.868,1.301l-1.11,1.663l-0.479,0.719
		c-0.581-0.692-1.378-1.522-2.439-2.431c-2.853-2.441-7.662-5.441-15.463-7.841c-1.087-0.334-2.212-0.661-3.418-0.969
		c-5.591-1.433-11.288-2.441-16.644-3.152c-2.917-0.388-5.729-0.686-8.37-0.917c-7.062-0.616-12.881-0.743-16.058-0.759l0.981-1.733
		L229.668,69.078z"/>
	<path class="st0" d="M289.635,112.624c-1.154-0.262-2.417-0.642-3.791-1.133c-0.288-0.103-0.574-0.204-0.873-0.317
		c-21.218-8.147-29.065-29.167-31.025-35.55c0.544,0.077,1.092,0.156,1.642,0.239c0.552,0.083,1.106,0.169,1.664,0.259
		c0.123,0.363,0.258,0.748,0.409,1.163c0.954,2.622,2.477,6.223,4.738,10.096c4.523,7.757,11.954,16.549,23.639,20.992l0.183,0.066
		c1.415,0.533,2.673,0.92,3.784,1.187l-0.369,2.997L289.635,112.624z"/>
	<path class="st1" d="M328.788,365.944c-0.33-0.31-0.91-0.68-1.65-1.09c-1.47-0.82-3.51-1.78-5.35-3.38
		c-0.97-0.85-2.66-2.69-4.82-5.19s-4.78-5.64-7.6-9.08c-5.12-6.25-10.81-13.41-15.2-19.1l-0.15,0.38l-1.25-1.71
		c-0.06-0.07-0.15-0.18-0.24-0.31c-6.63-8.67-15.16-14.72-18.98-17.18c-1.27-0.81-2-1.22-2.01-1.22l-0.91-0.52l0.41-0.97
		c1.9-4.4,2.57-8.08,2.57-11.26c0.01-5.45-1.99-9.51-3.6-13.25c-0.09-0.22-0.18-0.44-0.27-0.65c-0.17-0.41-0.34-0.82-0.5-1.22
		c-0.26-0.71-0.44-1.49-0.57-2.33c-0.16-0.96-0.24-2-0.26-3.1c-0.01-0.25-0.02-0.5-0.02-0.75c0-3.08,0.38-6.59,0.8-9.91
		c0.03-0.19,0.05-0.37,0.07-0.56c0.05-0.37,0.1-0.74,0.15-1.1c0.04-0.29,0.08-0.57,0.11-0.85l0.04-0.26
		c0.05-0.36,0.1-0.72,0.14-1.06c0.06-0.41,0.11-0.8,0.16-1.19c0.17-1.26,0.32-2.41,0.42-3.42c0.04-0.39,0.07-0.75,0.09-1.09
		c0.03-0.39,0.04-0.75,0.05-1.07v-0.46c-0.01-0.13-0.01-0.26-0.01-0.4c-0.01-2.64,0.99-4.62,1.89-6.09
		c0.95-1.45,1.63-2.54,1.55-2.87v-0.05l-0.01-0.05c-0.04-0.02-0.18-0.08-0.45-0.07c-1.02-0.03-3.24,0.76-5.62,2.29
		c-1.43,0.89-3.36,2.93-5.4,5.76c-0.19,0.27-0.38,0.54-0.57,0.82s-0.39,0.57-0.59,0.87c-0.37,0.55-0.73,1.13-1.1,1.73
		c-1.36,2.22-2.7,4.72-3.92,7.41l-0.03,0.07c-0.21,0.45-0.41,0.9-0.6,1.36c-0.09,0.21-0.17,0.42-0.26,0.63
		c-0.11,0.26-0.21,0.51-0.32,0.77l-0.36,0.93c-0.04,0.11-0.08,0.23-0.12,0.34c-0.41,1.09-0.8,2.18-1.14,3.3
		c-0.15,0.47-0.3,0.92-0.45,1.37c-0.14,0.43-0.28,0.86-0.42,1.27c-0.15,0.43-0.3,0.86-0.45,1.28c-3.6,10.1-7.87,16.51-14.18,22.3
		c-3.61,3.33-7.2,4.87-11.14,5.53c-3.92,0.67-8.18,0.53-13.46,0.66c-0.08,0-0.31,0.02-0.65,0.02c-1.14,0.01-3.68-0.17-6.35-1.47
		c-0.3-0.14-0.6-0.3-0.91-0.48c-0.28-0.16-0.56-0.33-0.83-0.52c-0.9-0.61-1.77-1.39-2.58-2.33c-0.19-0.22-0.38-0.45-0.56-0.69
		c-0.18-0.23-0.36-0.46-0.52-0.72c-0.55-0.83-1.05-1.76-1.49-2.82c-0.23-0.59-0.36-1.18-0.36-1.77c0.04-2.22,1.66-3.66,3.56-4.99
		c1.94-1.34,4.44-2.67,7.03-4.4c5.16-3.49,10.61-8.42,12.51-17.88l0.13-0.65l0.63-0.22c0-0.01,0.24-0.09,0.64-0.25
		c-1.18,3.35-2.56,7.03-3.4,9.89c-0.37,1.28-0.64,2.39-0.73,3.23c-0.02,0.2-0.04,0.4-0.04,0.57c0,3.62-2.85,7.8-0.96,9.3
		c0.1,0.07,0.2,0.15,0.32,0.21c0.19,0.1,0.46,0.14,0.77,0.14c0.64,0,1.5-0.19,2.51-0.53l-7.47,4.66l-0.47-0.74l0.42,0.77
		l-10.42,5.74c0.87,0.93,1.81,1.62,2.75,2.13l43.02-25.41c0.44-1.24,0.88-2.53,1.31-3.9c0.2-0.62,0.41-1.24,0.63-1.85l-17.52,10.95
		c0.8-0.77,1.53-1.57,2.16-2.39c0.45-0.58,0.84-1.18,1.17-1.77c0.33-0.58,0.6-1.16,0.8-1.75c1.74-5.23,1.99-10.17,0.31-14.39
		c-0.14-0.37-0.3-0.73-0.48-1.09c-0.17-0.34-0.36-0.69-0.56-1.03c1.22-0.77,2.45-1.61,3.68-2.51c0.11-0.08,0.21-0.15,0.32-0.23
		l0.22-0.15c0.36-0.27,0.72-0.56,1.09-0.84c0.52-0.41,1.05-0.83,1.57-1.26c2.05-1.68,4.04-3.52,5.89-5.54
		c0.45-0.49,0.9-0.99,1.33-1.51c0.22-0.25,0.42-0.52,0.63-0.78s0.43-0.53,0.64-0.8c2.6-3.38,4.74-7.18,6.1-11.4
		c0.06-0.18,0.11-0.37,0.17-0.56c-5.85-0.58-11.83-0.34-17.86,0.33c-0.45,0.05-0.9,0.11-1.35,0.16c-0.39,0.05-0.79,0.09-1.19,0.15
		c-0.83,0.1-1.66,0.22-2.49,0.34c-3.26,0.48-6.52,1.04-9.78,1.64c-0.8,0.14-1.59,0.29-2.39,0.44c-0.62,0.12-1.23,0.23-1.84,0.34
		c-0.18,0.04-0.37,0.07-0.55,0.11c-4.01,0.75-8.01,1.51-11.97,2.15c-4.67,0.86-9.39,1.57-14.12,2.1c-0.24,0.03-0.47,0.05-0.71,0.08
		c-0.82,0.09-1.63,0.17-2.45,0.25c-1.03,0.09-2.07,0.18-3.1,0.26c-3.92,0.28-7.85,0.42-11.78,0.38c-0.93-0.01-1.85-0.04-2.78-0.07
		c-0.44-0.01-0.89-0.02-1.33-0.04c-0.46-0.02-0.92-0.05-1.39-0.08c-5.25-0.29-10.5-0.92-15.73-1.99c-0.11-0.03-0.21-0.06-0.32-0.09
		c-5.76-1.57-11.66-4-16.14-8.1c-1.24-1.14-2.38-2.39-3.37-3.8c-3.15-4.41-4.01-9.66-3.62-14.81c0.03-0.39,0.06-0.78,0.1-1.16
		c0.04-0.37,0.09-0.73,0.14-1.1l0.01-0.07c0.26-1.77,0.64-3.52,1.12-5.2c-0.39,1.71-0.65,3.47-0.79,5.24
		c-0.04,0.38-0.06,0.77-0.08,1.16c-0.01,0.39-0.03,0.79-0.03,1.18c-0.04,5.3,1.27,10.52,4.76,14.47c2.52,2.96,5.76,5.07,9.31,6.62
		c3.49,1.51,7.28,2.48,11,3.16c5.4,0.98,10.89,1.52,16.43,1.7c0.48,0.02,0.96,0.02,1.44,0.04c0.44,0,0.89,0.02,1.33,0.03
		c0.95,0.01,1.89,0,2.84-0.01c4.01-0.04,8.03-0.26,12.04-0.63c1.05-0.1,2.11-0.21,3.16-0.33c0.83-0.09,1.66-0.19,2.48-0.29
		c0.25-0.03,0.5-0.07,0.75-0.1c3.71-0.49,7.4-1.09,11.05-1.8c3.1-0.48,6.19-1.05,9.28-1.63c0.19-0.03,0.38-0.07,0.57-0.1
		c0.6-0.12,1.21-0.23,1.82-0.35c0.79-0.15,1.59-0.3,2.39-0.45c3.22-0.6,6.45-1.19,9.69-1.71c0.82-0.13,1.64-0.26,2.46-0.38
		c0.39-0.06,0.78-0.11,1.17-0.16c0.44-0.06,0.89-0.12,1.33-0.18c4.37-0.56,8.79-0.92,13.26-0.92c0.65,0,1.29,0.02,1.94,0.03
		c1.99,0.05,3.82,0.11,5.83,0.32c0.1,0.03,0.16,0,0.29,0.02c0.36,0.01,0.72,0.03,1.07,0.05l0.09,0.01c0.4,0.03,0.79,0.05,1.18,0.08
		c14.39,0.94,22.23-1.88,25.64-7.56c3.51-5.85-8.2-7.02-24.58-8.19c-10.29-0.73-24.29,1.31-38.2,2.63
		c-0.49,0.05-0.97,0.09-1.45,0.13c-0.39,0.04-0.77,0.07-1.16,0.1c-0.87,0.08-1.74,0.15-2.62,0.22c-0.46,0.04-0.93,0.07-1.39,0.11
		c-0.27,0.02-0.55,0.04-0.82,0.06c-0.74,0.05-1.48,0.09-2.21,0.14c-0.48,0.02-0.97,0.05-1.45,0.08c-0.51,0.02-1.03,0.05-1.54,0.07
		c-1.15,0.05-2.3,0.09-3.43,0.11c-0.95,0.02-1.89,0.01-2.83,0c-0.71,0-1.41-0.02-2.11-0.04c-0.27,0-0.53-0.01-0.79-0.02
		c-0.32-0.02-0.63-0.02-0.94-0.04c-0.35-0.02-0.71-0.02-1.06-0.04l-0.21-0.01c-0.92-0.06-1.79-0.13-2.62-0.21
		c-0.39-0.04-0.77-0.08-1.14-0.13c-0.48-0.05-0.95-0.11-1.4-0.18c-0.18-0.03-0.35-0.05-0.53-0.08c-2.76-0.44-4.82-1.04-6.26-1.76
		c-2.85-1.43-3.27-3.3-1.86-5.24c1.09,0.88,2.41,1.75,4.14,1.88c0.12,0.01,0.24,0.03,0.37,0.03c0.74,0,1.51-0.15,2.32-0.47
		c0.09,0.07,0.19,0.15,0.3,0.22c0.71,0.48,1.84,0.97,3.47,0.96c0.34,0,0.71-0.03,1.09-0.07c0.24-0.03,0.48-0.07,0.73-0.11
		c0.54-0.11,1.11-0.25,1.72-0.45l0.06-0.02c0.09,0.07,0.21,0.14,0.33,0.21c0.3,0.19,0.68,0.39,1.12,0.57
		c0.29,0.12,0.62,0.24,0.97,0.33c0.54,0.15,1.13,0.25,1.78,0.26h0.05l0.18-0.01c0.28-0.01,0.57-0.04,0.87-0.1
		c0.94-0.18,1.92-0.61,2.82-1.37c0.93,0.41,2.62,1.04,4.44,1.06c0.94,0,1.97-0.22,2.86-0.77c0.13-0.08,0.27-0.15,0.4-0.25
		c0.53,0.27,1.32,0.62,2.26,0.85c0.39,0.1,0.82,0.17,1.27,0.22c0.23,0.02,0.47,0.04,0.72,0.04c0.2,0,0.4-0.02,0.6-0.04l0.24-0.02
		c0.39-0.05,0.79-0.14,1.18-0.27c0.6-0.19,1.19-0.48,1.74-0.89c0.11,0.04,0.26,0.08,0.39,0.12c0.2,0.06,0.42,0.11,0.67,0.18
		c0.76,0.18,1.71,0.35,2.75,0.35c1.24,0,2.64-0.24,3.85-1.04c0.54,0.22,1.37,0.51,2.37,0.7c0.52,0.1,1.1,0.17,1.7,0.19l0.26,0.01
		c0.86,0,1.78-0.14,2.68-0.47c0.2-0.08,0.4-0.15,0.59-0.25l0.06-0.02l0.04,0.02l0.24,0.09c0.96,0.37,2.64,0.91,4.48,0.92
		c1.11,0,2.31-0.21,3.37-0.87c0.87,0.19,2.78,0.55,4.85,0.56c1.26-0.01,2.6-0.14,3.82-0.58c0.63,0.18,1.94,0.48,3.39,0.49
		c0.86-0.01,1.8-0.12,2.68-0.5c0.73,0.13,2.36,0.4,3.97,0.41c0.95-0.01,1.89-0.08,2.74-0.45l4.59,0.19l0.1-1.94l-5.2-0.22
		l-0.27,0.15c-0.26,0.17-1.07,0.33-1.96,0.32c-0.9,0-1.88-0.11-2.62-0.22c-0.75-0.11-1.27-0.22-1.27-0.22l-0.41-0.08l-0.36,0.2
		c-0.1,0.05-0.21,0.1-0.32,0.14c-0.1,0.04-0.21,0.07-0.32,0.1c-0.41,0.11-0.87,0.17-1.35,0.17c-0.44,0-0.88-0.05-1.29-0.1
		c-0.31-0.05-0.61-0.1-0.86-0.15c-0.59-0.13-0.94-0.25-0.95-0.25l-0.4-0.13l-0.39,0.17c-0.89,0.39-2.1,0.55-3.32,0.55
		s-2.41-0.15-3.3-0.31c-0.9-0.15-1.5-0.3-1.5-0.3l-0.53-0.13l-0.43,0.33c-0.66,0.52-1.51,0.72-2.46,0.72
		c-1.04,0.01-2.15-0.25-2.98-0.52c-0.42-0.14-0.76-0.27-1-0.37c-0.23-0.1-0.36-0.16-0.36-0.16l-0.55-0.26l-0.51,0.32
		c-0.83,0.51-1.75,0.7-2.69,0.7c-1.02,0-2.04-0.24-2.78-0.48c-0.73-0.24-1.16-0.47-1.18-0.47l-0.66-0.34l-0.56,0.48
		c-0.82,0.7-1.88,0.95-3,0.95c-0.33,0-0.66-0.03-0.97-0.06c-0.26-0.03-0.51-0.07-0.75-0.12c-0.29-0.05-0.56-0.12-0.8-0.18
		c-0.41-0.11-0.7-0.21-0.88-0.28c-0.11-0.04-0.18-0.07-0.2-0.07l-0.66-0.28l-0.51,0.47c-0.83,0.76-1.67,1.02-2.54,1.07l-0.26,0.02
		l-0.17-0.01c-0.55-0.02-1.09-0.13-1.59-0.27c-0.32-0.1-0.63-0.2-0.9-0.32c-0.36-0.15-0.66-0.31-0.86-0.42s-0.29-0.17-0.29-0.17
		l-0.81-0.54l-0.62,0.73c-0.28,0.32-0.59,0.53-0.93,0.67c-0.39,0.16-0.83,0.23-1.34,0.24c-0.93,0-2-0.28-2.8-0.57
		c-0.42-0.16-0.75-0.31-0.98-0.41c-0.21-0.1-0.34-0.17-0.34-0.17l-0.74-0.4l-0.57,0.59c-1.05,1.09-2,1.36-2.9,1.38h-0.03
		c-0.38,0-0.76-0.06-1.12-0.16c-0.45-0.12-0.87-0.29-1.22-0.47h-0.01c-0.17-0.09-0.32-0.18-0.46-0.26c-0.1-0.07-0.2-0.13-0.27-0.18
		c-0.18-0.12-0.24-0.18-0.24-0.18l-0.49-0.4l-0.6,0.22c-0.56,0.21-1.06,0.35-1.53,0.46c-0.72,0.17-1.35,0.25-1.86,0.25h-0.06
		c-0.38-0.01-0.7-0.05-0.98-0.11c-0.49-0.1-0.86-0.26-1.11-0.42c-0.2-0.12-0.33-0.24-0.41-0.32l-0.08-0.09l-0.2-0.3l-0.31-0.47
		l-0.86,0.43c-0.23,0.11-0.44,0.2-0.64,0.28c-0.56,0.21-1.03,0.29-1.44,0.29c-1.02,0.02-2.11-0.55-3.17-1.38
		c0.88-0.76,2.02-1.52,3.37-2.24c0.18-0.1,0.36-0.19,0.55-0.29c0.43-0.22,0.89-0.43,1.36-0.64c0.5-0.23,1.01-0.45,1.55-0.67
		c0.14-0.06,0.3-0.11,0.46-0.16c2.23-0.78,5.73-1.2,10.05-1.36c0.89-0.04,1.81-0.06,2.77-0.07c0.36-0.01,0.73-0.01,1.1-0.01h0.07
		c0.52-0.01,1.05-0.01,1.59,0h1.17c0.91,0.01,1.84,0.03,2.79,0.05c3.46,0.09,7.15,0.25,10.94,0.47c0.89,0.05,1.78,0.1,2.68,0.16
		c0.62,0.04,1.24,0.08,1.87,0.12c0.26,0.02,0.52,0.04,0.79,0.06c17.13,1.16,34.81,3.08,40.94,3.08c11.7,0,14.03-2.34,10.53-10.53
		c-1.78-4.14-0.26-23.97,2.13-46.34c0.05-0.44,0.09-0.88,0.14-1.31c0.07-0.63,0.14-1.26,0.21-1.88c0.11-1.07,0.23-2.14,0.35-3.21
		c0.48-4.29,0.98-8.63,1.49-12.93c0.12-1.08,0.25-2.16,0.38-3.23c0.04-0.3,0.07-0.59,0.11-0.89c0.09-0.79,0.18-1.57,0.28-2.35
		c0.39-3.2,0.77-6.36,1.15-9.42c-1.16-0.26-2.42-0.64-3.79-1.13c-0.29-0.11-0.58-0.21-0.88-0.32
		c-21.22-8.15-29.06-29.17-31.02-35.55c0.54,0.08,1.09,0.16,1.64,0.24c0.55,0.08,1.11,0.17,1.66,0.26c0.13,0.36,0.26,0.75,0.41,1.16
		c0.96,2.62,2.48,6.22,4.74,10.1c4.52,7.75,11.95,16.55,23.64,20.99l0.18,0.07c1.42,0.53,2.67,0.92,3.79,1.18
		c1.37,0.33,2.52,0.48,3.44,0.48c0.15,0,0.29-0.01,0.43-0.02c1.58-0.08,2.37-0.55,2.89-1.16c0.57-0.68,0.9-1.82,0.9-3.32
		c0.02-2.65-1.02-6.1-2.13-8.97c-0.63-1.66-1.29-3.13-1.78-4.12c-0.27-0.55-0.47-0.96-0.6-1.2c-0.27-0.23-0.54-0.45-0.81-0.68
		l-0.11-0.09l0.15-0.23l0.69-1.02l0.83-1.26l2.64-3.95l1.04-1.56l-0.57-0.46c5.085-1.597,8.945-5.651,9.965-10.635
		c1.42-6.939-3.398-12.091-4.667-13.333c-1.315-1.288-4.976-4.412-13.111-4.889c-16.232-0.952-19.046,10.462-34,11.111
		c-12.768,0.554-17.206-7.485-28.444-3.556c-5.227,1.828-10.893,5.884-10.421,7.149c0.241,0.647,2.15,1.006,4.358,0.483
		c2.15-0.51,4.35-0.89,6.57-1.16l-1.33,2.36l-2.44,4.3l0.11-0.01c-31.77,5.04-65.23,17.12-78.27,34.5
		c-4.27,5.69-7.35,10.99-9.61,16.1c-0.22,0.48-0.43,0.96-0.63,1.43c-0.08,0.19-0.15,0.37-0.22,0.56c-0.28,0.69-0.56,1.37-0.81,2.04
		c-1.1,3-1.93,5.94-2.57,8.86c-0.18,0.79-0.34,1.58-0.49,2.36c-0.08,0.47-0.16,0.94-0.24,1.4c-0.06,0.34-0.12,0.69-0.17,1.03
		c-2.71,17.52,0.21,35.24-6.32,61.38c-1.33,5.31-1.33,9.82-0.31,13.64c0.21,0.77,0.46,1.49,0.74,2.2c0.25,0.62,0.52,1.23,0.82,1.81
		c-0.34,1.69-0.69,3.51-1.05,5.45c-0.46,2.44-0.93,5.06-1.4,7.82c-0.4,0.17-0.83,0.34-1.27,0.51c-0.41,0.16-0.83,0.32-1.26,0.49
		c-3.76,1.43-8.44,3.06-13.27,5.01l2.96-24.23c0.41-0.68,0.65-1.42,0.65-2.22c-0.01-1.6-0.95-2.96-2.3-4.04
		c-4.07-3.22-12.63-5.18-22.69-5.21c-6.7,0-12.76,0.91-17.24,2.44c-2.24,0.76-4.09,1.67-5.45,2.77c-1.04,0.83-1.83,1.83-2.15,2.97
		h-0.13l0.04,0.4c-0.03,0.22-0.06,0.44-0.06,0.67c0,0.56,0.12,1.09,0.33,1.59l8.41,70.13h-0.02c0.01,1.18,0.7,2.13,1.6,2.85
		c1.101,0.857,2.65,1.56,4.521,2.097c0.299-0.533,0.599-1.04,0.9-1.518c-0.225-0.243-0.473-0.512-0.732-0.784
		c-0.144-0.044-0.292-0.088-0.429-0.135c-1.27-0.43-2.26-0.94-2.86-1.42c-0.41-0.34-0.6-0.61-0.68-0.83l-0.03-0.26l-8.06-67.21
		c4.29,2.93,12.49,4.71,22.04,4.74c6.69-0.01,12.76-0.92,17.24-2.44c1.78-0.61,3.3-1.31,4.54-2.12l-2.69,21.98l-3.27,28.4
		l-2.06,16.65h-0.17c0,0.22-0.14,0.59-0.76,1.09c-1.82,1.52-7.04,2.88-13.04,2.84c-0.827,0.002-1.631-0.025-2.415-0.073
		c-0.311,0.423-0.603,0.838-0.84,1.169c0.033,0.033,0.074,0.076,0.103,0.102c0.179,0.161,0.524,0.539,0.936,0.984
		c0.724,0.038,1.459,0.064,2.216,0.068c4.22,0,8.05-0.57,10.91-1.54c1.43-0.49,2.63-1.07,3.54-1.79c0.75-0.6,1.36-1.38,1.54-2.3
		l0.17,0.02l2.07-16.69c4.29,0.84,8.79,1.16,12.59-0.27c0.41-0.16,0.81-0.33,1.2-0.53c0.43-0.21,0.83-0.45,1.23-0.72
		c-0.43,5.89-0.69,11.86-0.68,17.75c-0.01,2.31,0.04,4.61,0.12,6.88c0.02,0.38,0.03,0.75,0.05,1.13c0.02,0.53,0.05,1.07,0.07,1.6
		c0.05,0.9,0.11,1.79,0.17,2.68c0.25,3.54,0.61,6.99,1.12,10.32c0.13,0.82,0.26,1.63,0.4,2.44c0.14,0.75,0.28,1.5,0.43,2.23
		l0.03,0.16c1.08,5.34,2.58,10.27,4.57,14.57c5.15,11.04,13.23,17.92,26.31,17.96c1,0,2.02-0.04,3.08-0.12
		c18.87-1.49,27.72-3.43,34.04-5.65c6.3-2.21,10.31-4.84,19.3-7.66l0.06-0.02l0.05-0.01c13.61-2.84,24.7-6.39,32.12-6.41
		c0.94,0,1.83,0.06,2.66,0.19c9.14,1.49,11.75,10.54,14.59,13.33c7.74,8.14,14.17,10.75,24.4,16.55
		c8.45,4.82,28.57,11.92,35.14,12.94c0.72,0.11,1.22,0.14,1.65,0.15h0.12c1.13,0.13,2.17,0.19,3.11,0.19c2.913,0,4.47,0.032,5.64-1
		C327.864,367.972,328.48,367.288,328.788,365.944z M295.358,60.174l0.09,0.01c0.52,0,0.78,0.12,0.97,0.28
		c0.23,0.2,0.45,0.59,0.46,1.42c0.03,1.77-1.26,4.89-3.69,7.67c-1.54,1.82-3.3,3.16-4.82,3.96c-1.09,0.57-2.06,0.87-2.73,0.84
		c-0.629-0.028-0.873-0.2-0.97-0.28c-0.682-0.564-0.456-1.859-0.34-2.48 M229.668,69.074l1.07-1.89c1.71,0.03,5.78,0.14,10.97,0.5
		c0.39,0.02,0.82,0.06,1.22,0.09c4.16,0.31,8.91,0.78,13.68,1.49c2.93,0.44,5.87,0.97,8.66,1.61c1.75,0.4,4.41,0.85,6.04,1.33
		c6.72,2,9.76,3.25,13.88,5.49c1.1,0.6,3.99,2.26,4.82,2.87c0.73,0.53,1.19,0.9,1.76,1.34c0.28,0.21,0.62,0.5,0.87,0.67
		c0.34,0.23,0.64,0.44,0.9,0.62l-0.87,1.3l-1.11,1.67l-0.48,0.72c-0.58-0.7-1.38-1.53-2.44-2.43c-2.85-2.45-7.66-5.45-15.46-7.85
		c-1.09-0.33-2.21-0.66-3.42-0.96c-5.59-1.44-11.29-2.45-16.64-3.16c-2.92-0.38-5.73-0.68-8.37-0.91
		c-7.07-0.62-12.88-0.75-16.06-0.76L229.668,69.074L229.668,69.074z M107.178,216.304c-3.17,2.62-11.57,4.75-21.28,4.72
		c-6.48,0-12.36-0.9-16.51-2.32c-2.08-0.71-3.72-1.54-4.77-2.4c-0.48-0.38-0.82-0.75-1.06-1.1c-0.28-0.43-0.4-0.83-0.4-1.18
		c0-0.32,0.1-0.68,0.33-1.07c0.23-0.38,0.6-0.79,1.13-1.22c3.15-2.59,11.44-4.71,21.06-4.71h0.22c6.48-0.01,12.35,0.9,16.51,2.32
		c2.08,0.7,3.72,1.54,4.77,2.39c0.53,0.43,0.89,0.84,1.13,1.22c0.23,0.39,0.33,0.75,0.33,1.07c0,0.41-0.16,0.88-0.56,1.4
		C107.858,215.704,107.558,216.004,107.178,216.304z"/>
</g>
<circle class="st2" cx="166.008" cy="179.008" r="7.526"/>
<path class="st1" d="M169.932,178.152c-0.465-0.73-1.146-1.306-1.958-1.633c-0.111-0.045-0.229-0.072-0.345-0.107
	c-0.385-0.118-0.786-0.2-1.21-0.2l-0.072,0.007c0.247,0.255,0.405,0.592,0.441,0.967l0.016,0.157c0,0.246-0.06,0.477-0.16,0.687
	c-0.259,0.544-0.811,0.924-1.451,0.924c-0.89,0-1.614-0.723-1.615-1.609c-0.814,0.761-1.33,1.836-1.33,3.038
	c0,2.3,1.867,4.173,4.172,4.173c1.822,0,3.358-1.183,3.924-2.814c0.087-0.25,0.149-0.509,0.187-0.778
	c0.027-0.191,0.059-0.382,0.059-0.581c0-0.546-0.112-1.065-0.303-1.543c-0.097-0.242-0.216-0.47-0.354-0.687L169.932,178.152z"/>
<path class="st2" d="M155.982,172.743c-0.564-0.639,2.35-6.085,7.551-7.551c6.448-1.817,12.983,3.449,12.783,3.967
	c-0.134,0.345-3.186-1.592-7.875-1.375c-7.351,0.34-11.843,5.656-12.458,4.958L155.982,172.743z"/>
<path class="st1" d="M149.408,27.457c-0.331,0.175-0.807,0.048-1.429-0.379s-1.104-1.463-1.446-3.111
	c-0.11-0.508-0.15-1.055-0.115-1.64c0.033-0.585,0.126-1.185,0.275-1.8c0.15-0.614,0.32-1.192,0.508-1.733
	c0.19-0.54,0.383-1.022,0.583-1.443c0.216-0.492,0.467-1.113,0.756-1.865c0.289-0.75,0.598-1.512,0.929-2.287
	c0.33-0.772,0.706-1.46,1.127-2.061s0.872-0.996,1.352-1.188c0.712-0.249,1.499-0.46,2.357-0.632
	c0.86-0.171,1.728-0.252,2.604-0.242c0.876,0.009,1.712,0.167,2.506,0.471c0.794,0.305,1.528,0.846,2.203,1.624
	c0.172,0.225,0.511,0.566,1.016,1.022c0.506,0.458,1.037,0.964,1.595,1.52c0.558,0.555,1.062,1.108,1.511,1.659
	c0.45,0.551,0.69,1.006,0.723,1.366c-0.05,0.405,0.053,0.775,0.311,1.112c0.257,0.337,0.53,0.68,0.821,1.03
	c0.292,0.352,0.535,0.711,0.73,1.081c0.195,0.368,0.226,0.778,0.094,1.226c-0.52,1.914-0.957,3.657-1.312,5.23
	c-0.355,1.575-1,3.177-1.934,4.804c0.145,0.176,0.102,0.418-0.129,0.73s-0.262,0.58-0.09,0.804c0.436,0.525,0.496,1.14,0.182,1.841
	c-0.314,0.704-0.699,1.425-1.15,2.168c-0.452,0.744-0.83,1.477-1.13,2.205c-0.303,0.727-0.208,1.403,0.279,2.027
	c0.291,0.351,0.582,0.575,0.871,0.674c0.29,0.098,0.618,0.397,0.988,0.895c0.265,0.301,0.516,0.577,0.755,0.829
	c0.238,0.252,0.503,0.554,0.794,0.903c0.238,0.252,0.482,0.439,0.731,0.559c0.249,0.121,0.518,0.356,0.809,0.707
	c0.489,0.624,0.54,1.32,0.156,2.091c-0.385,0.771-0.847,1.394-1.388,1.869c-0.501,0.453-1.049,0.713-1.648,0.776
	c-0.599,0.066-1.216-0.002-1.85-0.203c-0.634-0.2-1.252-0.52-1.853-0.958s-1.132-0.944-1.595-1.52
	c-0.686-0.896-1.038-1.814-1.058-2.75c-0.019-0.935,0.084-1.887,0.311-2.857c0.226-0.97,0.493-1.962,0.802-2.977
	c0.308-1.014,0.448-2.047,0.418-3.104c0.033-0.836,0.091-1.498,0.178-1.985c0.086-0.485,0.201-0.941,0.348-1.365
	c0.145-0.423,0.322-0.863,0.529-1.319s0.441-1.038,0.702-1.742c0.287-0.655,0.364-1.484,0.23-2.484
	c-0.134-1.002,0.006-1.861,0.416-2.584c0.384-0.771,0.439-1.54,0.165-2.308c-0.275-0.768-0.693-1.46-1.257-2.077
	c-0.562-0.615-1.211-1.092-1.943-1.43c-0.732-0.336-1.365-0.459-1.897-0.367c-0.345,0.245-0.705,0.341-1.077,0.285
	c-0.372-0.053-0.757-0.133-1.156-0.239c-0.399-0.104-0.791-0.197-1.175-0.277c-0.387-0.08-0.776-0.046-1.174,0.101
	c-1.208,0.514-2.016,1.256-2.425,2.227c-0.409,0.974-0.66,1.972-0.751,2.998c-0.091,1.025-0.129,1.927-0.113,2.707
	c0.017,0.78-0.174,1.243-0.571,1.389L149.408,27.457z M164.38,66.707c-0.416-0.787-0.607-1.647-0.572-2.58
	c0.035-0.931,0.188-1.815,0.458-2.653c0.271-0.835,0.603-1.579,0.999-2.229c0.396-0.649,0.757-1.062,1.088-1.237
	c0.412-0.218,0.811-0.287,1.197-0.208c0.385,0.081,0.78,0.203,1.184,0.367c0.404,0.165,0.836,0.362,1.301,0.589
	c0.463,0.227,0.938,0.402,1.424,0.522c0.486,0.122,0.994,0.184,1.524,0.187c0.529,0.004,0.951,0.302,1.263,0.892
	c0.338,0.641,0.515,1.226,0.531,1.752c0.014,0.529-0.069,1.045-0.25,1.549c-0.181,0.507-0.395,1.028-0.637,1.566
	c-0.244,0.539-0.446,1.102-0.61,1.692c-0.159,0.4-0.209,0.853-0.153,1.358c0.056,0.505,0.099,0.987,0.13,1.444
	c0.03,0.456,0.002,0.88-0.08,1.271c-0.085,0.39-0.333,0.695-0.745,0.913c-0.371,0.196-0.743,0.218-1.112,0.068
	c-0.371-0.151-0.734-0.415-1.092-0.793s-0.732-0.81-1.122-1.298c-0.39-0.486-0.789-0.968-1.2-1.446
	c-0.172-0.223-0.423-0.374-0.754-0.452c-0.331-0.076-0.679-0.161-1.044-0.251c-0.364-0.091-0.704-0.21-1.021-0.359
	C164.772,67.224,164.535,67.002,164.38,66.707L164.38,66.707z"/>
<path class="st1" d="M289.428,69.207"/>
<path class="st1" d="M289.206,67.651"/>
<path class="st1" d="M128.767,51.502c-0.146,0.276-0.535,0.385-1.168,0.331c-0.632-0.055-1.457-0.631-2.474-1.732
	c-0.317-0.337-0.603-0.734-0.856-1.193c-0.254-0.457-0.474-0.952-0.662-1.483c-0.187-0.53-0.343-1.041-0.469-1.533
	c-0.124-0.491-0.219-0.94-0.28-1.345c-0.084-0.466-0.204-1.045-0.36-1.74c-0.155-0.693-0.302-1.404-0.441-2.134
	c-0.137-0.728-0.203-1.411-0.197-2.049c0.007-0.637,0.131-1.132,0.373-1.485c0.375-0.497,0.819-0.997,1.331-1.498
	c0.514-0.501,1.076-0.938,1.687-1.309c0.61-0.372,1.263-0.614,1.956-0.727c0.694-0.112,1.458-0.02,2.293,0.278
	c0.226,0.096,0.622,0.208,1.187,0.335c0.567,0.128,1.174,0.282,1.823,0.462c0.649,0.179,1.259,0.38,1.831,0.604
	c0.572,0.223,0.954,0.464,1.147,0.722c0.157,0.328,0.404,0.564,0.742,0.708c0.337,0.144,0.689,0.286,1.056,0.425
	c0.369,0.14,0.707,0.307,1.017,0.503c0.309,0.194,0.525,0.492,0.646,0.888c0.547,1.675,1.07,3.185,1.57,4.53
	c0.5,1.347,0.813,2.839,0.938,4.476c0.184,0.071,0.269,0.273,0.257,0.609c-0.012,0.336,0.093,0.553,0.319,0.648
	c0.55,0.209,0.883,0.649,0.998,1.316c0.116,0.669,0.191,1.382,0.231,2.14c0.04,0.759,0.125,1.478,0.263,2.159
	c0.135,0.682,0.521,1.153,1.153,1.415c0.368,0.14,0.675,0.184,0.922,0.134c0.247-0.051,0.616,0.034,1.107,0.251
	c0.326,0.113,0.63,0.214,0.915,0.302c0.284,0.088,0.61,0.202,0.977,0.341c0.284,0.088,0.541,0.124,0.77,0.107
	c0.23-0.016,0.527,0.046,0.894,0.186c0.634,0.261,0.999,0.767,1.098,1.517c0.099,0.751,0.074,1.422-0.075,2.016
	c-0.132,0.56-0.388,0.994-0.772,1.301c-0.383,0.309-0.842,0.524-1.376,0.646c-0.533,0.123-1.112,0.147-1.735,0.075
	c-0.623-0.072-1.23-0.226-1.823-0.462c-0.899-0.382-1.577-0.926-2.034-1.626c-0.456-0.7-0.836-1.466-1.138-2.299
	c-0.303-0.833-0.588-1.7-0.855-2.602c-0.267-0.901-0.66-1.745-1.181-2.532c-0.373-0.648-0.647-1.174-0.817-1.581
	c-0.17-0.405-0.307-0.8-0.406-1.185c-0.1-0.383-0.186-0.793-0.259-1.228c-0.073-0.435-0.187-0.977-0.339-1.623
	c-0.112-0.62-0.451-1.282-1.017-1.981c-0.567-0.701-0.877-1.413-0.936-2.138c-0.1-0.75-0.426-1.357-0.979-1.82
	c-0.554-0.463-1.171-0.806-1.853-1.03c-0.68-0.223-1.355-0.304-2.021-0.243c-0.665,0.062-1.162,0.242-1.486,0.542
	c-0.123,0.335-0.326,0.563-0.61,0.682c-0.282,0.121-0.587,0.227-0.913,0.319c-0.325,0.094-0.64,0.193-0.944,0.298
	c-0.306,0.107-0.559,0.301-0.764,0.584c-0.592,0.912-0.8,1.823-0.623,2.736c0.178,0.915,0.477,1.779,0.9,2.596
	c0.423,0.816,0.823,1.516,1.204,2.1c0.381,0.584,0.468,1.017,0.263,1.299L128.767,51.502z M157.713,74.766
	c-0.661-0.416-1.2-0.985-1.618-1.707c-0.417-0.721-0.73-1.456-0.94-2.208c-0.208-0.75-0.331-1.457-0.365-2.121
	c-0.033-0.663,0.021-1.132,0.167-1.408c0.182-0.343,0.425-0.568,0.729-0.675c0.305-0.105,0.636-0.183,0.993-0.234
	c0.358-0.05,0.75-0.087,1.179-0.116c0.428-0.028,0.839-0.101,1.232-0.22c0.394-0.118,0.775-0.29,1.143-0.517
	c0.368-0.226,0.801-0.182,1.296,0.13c0.537,0.339,0.937,0.706,1.197,1.098c0.26,0.395,0.447,0.822,0.561,1.282
	c0.115,0.462,0.214,0.95,0.301,1.462c0.087,0.514,0.213,1.028,0.379,1.546c0.079,0.372,0.259,0.737,0.537,1.095
	c0.278,0.358,0.536,0.705,0.774,1.038c0.237,0.333,0.418,0.666,0.547,0.998c0.126,0.332,0.099,0.671-0.083,1.014
	c-0.164,0.309-0.411,0.486-0.737,0.532c-0.328,0.046-0.704,0.003-1.131-0.129c-0.427-0.132-0.89-0.297-1.391-0.498
	c-0.5-0.2-1.004-0.392-1.515-0.577c-0.225-0.095-0.47-0.1-0.736-0.016c-0.265,0.086-0.546,0.172-0.841,0.261
	c-0.295,0.088-0.586,0.145-0.876,0.169c-0.288,0.025-0.557-0.041-0.805-0.198L157.713,74.766z"/>
<path class="st1" d="M180.687,26.695c-0.31,0.039-0.623-0.216-0.943-0.765c-0.319-0.549-0.322-1.554-0.008-3.02
	c0.094-0.453,0.253-0.916,0.482-1.387c0.228-0.471,0.506-0.936,0.831-1.395c0.326-0.458,0.654-0.88,0.983-1.266
	c0.33-0.384,0.642-0.72,0.939-1.004c0.333-0.337,0.737-0.769,1.215-1.296c0.477-0.526,0.974-1.056,1.492-1.589
	c0.516-0.531,1.037-0.979,1.562-1.34c0.525-0.362,1.001-0.544,1.428-0.55c0.622,0.02,1.286,0.096,1.991,0.226
	c0.706,0.132,1.386,0.34,2.042,0.625c0.655,0.285,1.229,0.68,1.72,1.182c0.491,0.503,0.855,1.181,1.093,2.035
	c0.051,0.24,0.188,0.628,0.409,1.163c0.222,0.537,0.445,1.122,0.672,1.757c0.227,0.634,0.414,1.249,0.56,1.845
	c0.147,0.596,0.17,1.047,0.07,1.354c-0.178,0.318-0.229,0.655-0.152,1.014c0.076,0.359,0.163,0.728,0.26,1.108
	c0.097,0.382,0.156,0.755,0.174,1.121c0.019,0.365-0.1,0.712-0.355,1.039c-1.055,1.411-1.988,2.708-2.801,3.891
	c-0.813,1.184-1.854,2.299-3.12,3.343c0.048,0.191-0.068,0.376-0.35,0.56c-0.282,0.184-0.398,0.395-0.347,0.634
	c0.146,0.57-0.023,1.096-0.502,1.574c-0.48,0.48-1.02,0.952-1.617,1.421c-0.598,0.469-1.136,0.953-1.614,1.458
	c-0.48,0.503-0.643,1.089-0.493,1.757c0.097,0.381,0.238,0.658,0.421,0.831c0.184,0.173,0.327,0.523,0.432,1.05
	c0.095,0.332,0.188,0.639,0.28,0.922c0.092,0.283,0.186,0.615,0.284,0.995c0.091,0.283,0.21,0.514,0.356,0.692
	c0.145,0.178,0.266,0.457,0.363,0.838c0.151,0.669-0.052,1.258-0.608,1.771c-0.557,0.513-1.12,0.88-1.692,1.099
	c-0.534,0.214-1.036,0.255-1.508,0.117c-0.473-0.135-0.913-0.387-1.32-0.753c-0.407-0.365-0.761-0.825-1.061-1.376
	c-0.3-0.551-0.524-1.136-0.672-1.757c-0.205-0.955-0.151-1.822,0.159-2.599c0.31-0.776,0.718-1.527,1.225-2.254
	c0.506-0.727,1.051-1.459,1.636-2.197c0.583-0.737,1.047-1.544,1.391-2.423c0.315-0.678,0.588-1.205,0.822-1.578
	c0.233-0.372,0.478-0.711,0.735-1.014c0.256-0.302,0.541-0.609,0.855-0.919c0.314-0.31,0.692-0.715,1.132-1.212
	c0.443-0.448,0.788-1.107,1.035-1.973c0.247-0.867,0.65-1.53,1.209-1.996c0.556-0.513,0.864-1.129,0.925-1.848
	c0.06-0.719-0.014-1.422-0.224-2.108c-0.209-0.684-0.532-1.283-0.965-1.793c-0.434-0.509-0.867-0.81-1.299-0.903
	c-0.344,0.092-0.648,0.057-0.909-0.106c-0.261-0.161-0.523-0.349-0.786-0.563c-0.264-0.212-0.526-0.413-0.787-0.6
	c-0.263-0.188-0.567-0.284-0.918-0.289c-1.086,0.041-1.951,0.396-2.596,1.066c-0.645,0.672-1.18,1.415-1.605,2.231
	c-0.424,0.815-0.765,1.546-1.024,2.193c-0.258,0.648-0.562,0.968-0.911,0.963L180.687,26.695z M178.327,63.755
	c-0.04-0.78,0.115-1.548,0.465-2.306c0.349-0.756,0.771-1.435,1.265-2.039c0.493-0.602,1.001-1.109,1.524-1.519
	c0.523-0.409,0.938-0.635,1.247-0.674c0.385-0.049,0.709,0.021,0.972,0.208c0.261,0.189,0.516,0.414,0.763,0.677
	c0.246,0.264,0.503,0.563,0.774,0.897c0.269,0.334,0.566,0.628,0.889,0.881c0.323,0.254,0.683,0.466,1.081,0.637
	c0.396,0.171,0.61,0.55,0.64,1.134c0.032,0.635-0.038,1.173-0.209,1.611c-0.173,0.44-0.414,0.839-0.725,1.196
	c-0.312,0.36-0.654,0.721-1.022,1.088c-0.37,0.367-0.718,0.766-1.046,1.2c-0.258,0.279-0.453,0.636-0.586,1.07
	c-0.133,0.434-0.268,0.844-0.403,1.23c-0.136,0.385-0.304,0.725-0.501,1.021c-0.199,0.294-0.491,0.467-0.877,0.516
	c-0.347,0.044-0.634-0.056-0.86-0.296c-0.227-0.242-0.408-0.574-0.546-0.999c-0.138-0.425-0.269-0.899-0.393-1.424
	c-0.125-0.524-0.257-1.047-0.4-1.571c-0.052-0.238-0.188-0.442-0.41-0.611c-0.222-0.167-0.455-0.348-0.698-0.537
	c-0.242-0.19-0.456-0.396-0.643-0.619c-0.186-0.221-0.287-0.479-0.302-0.772L178.327,63.755z"/>
<path class="st1" d="M94.317,243.873"/>
<path class="st1" d="M-7.016,279.373"/>
<circle class="st2" cx="86.375" cy="249.354" r="1.163"/>
<path class="st0" d="M66.234,331.956"/>
<g>
	<path class="st3" d="M328.131,256.397c25.601,1.382,33.802-5.963,31.388-14.55c-2.414-8.587-4.119-8.706,2.414-18.247
		c6.533-9.541-9.374-14.908-7.385-22.302c1.988-7.394,8.522-17.531-5.539-23.614c-14.061-6.082-18.605-6.202-18.605-6.202
		s9.8,4.651,11.362,10.614c1.562,5.963-5.681,7.036-7.101,16.816c-1.42,9.779,0.994,12.403-6.533,17.174
		c-7.527,4.77-15.765,6.559-15.907,20.99S324.566,256.205,328.131,256.397z"/>
	<path class="st4" d="M354.69,210.243c-4.971-9.66-8.238-17.889-5.397-22.898c0,0-5.255,3.22-3.977,14.311
		c1.278,11.091-2.994,14.788-15.558,20.751c-12.564,5.963-6.598,11.654-9.013,15.845c-2.414,4.191-0.568,12.301,7.669,16.356
		c1.542,0.759,2.915,1.401,4.128,1.943c2.983,0.046,5.695-0.04,8.146-0.244c11.923-7.463,0.484-14.764,2.434-22.928
		C345.174,224.793,359.66,219.903,354.69,210.243z"/>
	<path class="st5" d="M332.591,256.553c1.194,0.018,2.336,0.01,3.443-0.014c1.833-2.252,3.041-6.877,0.405-11.412
		c-2.912-5.009,1.349-12.224,1.775-15.206c0.426-2.982-0.923,2.862-7.243,8.766C324.841,244.413,326.461,249.915,332.591,256.553z"
		/>
</g>
</svg>
