<?xml version="1.0" encoding="utf-8"?>
<!-- Generator: Adobe Illustrator 27.6.1, SVG Export Plug-In . SVG Version: 6.00 Build 0)  -->
<svg version="1.1" id="Layer_1" xmlns="http://www.w3.org/2000/svg" xmlns:xlink="http://www.w3.org/1999/xlink" x="0px" y="0px"
	 viewBox="0 0 407.39 394.375" style="enable-background:new 0 0 407.39 394.375;" xml:space="preserve">
<style type="text/css">
	.st0{fill:#FFDD00;}
	.st1{fill:#231F20;}
	.st2{fill:#E22A27;}
	.st3{fill:#F78C23;}
	.st4{fill:#FAE940;}
	.st5{enable-background:new    ;}
	.st6{fill:#FFFFFF;}
</style>
<path class="st0" d="M122.722,349.708c0.028,0.648-0.601,1.968-6.834,3.889c-11.459,3.531-21.55,2.835-28.889,2.556
	c-23.031-0.879-34.118,1.761-35.889-3c-0.522-1.404,0.016-2.777,0.278-3.444c2.999-7.651,19.71-7.574,35.667-7.5
	c9.223,0.043,15.389,1.38,27.722,4.056c3.456,0.75,7.873,1.81,7.945,3.444V349.708z"/>
<g>
	<path class="st0" d="M362.275,230.038c-0.027-0.375,0.45-0.998,1.05-1.641c0.008-0.958,0.051-1.908,0.115-2.85
		c-2.6-2.922-5.11-5.919-7.496-9.017l-9.104,0.992c-1.455,2.941-3.397,7.022-5.578,12.014c8.811,3.096,14.571,12.016,13.324,21.648
		c-1.433,11.068-11.566,18.88-22.634,17.447c-1.524-0.197-2.979-0.574-4.364-1.081c-0.994,3.52-1.937,7.132-2.802,10.823
		c-7.612,32.466-3.424,44.188-3.424,44.188l42.188-80.567C362.801,238.074,362.561,234.064,362.275,230.038L362.275,230.038z"/>
	<path class="st0" d="M342.746,242.895c-0.833,1.798-0.891,3.029-4.499,4.588c0,0,1.164,2.106,1.014,5.964
		c-0.077,1.729-0.031,4.533-0.134,6.705c-0.109,2.307-0.519,3.568-0.381,4.731c6.464-1.669,11.586-7.107,12.495-14.133
		c0.605-4.673-0.774-9.142-3.476-12.573c-0.185,0.09-0.311,0.145-0.311,0.145c-1.375,1.125-3.876,2.772-4.708,4.571L342.746,242.895
		z"/>
	<path class="st0" d="M339.862,237.691c2.1-1.191,3.442-1.295,5.078-1.505c0,0,0.354-0.053,0.862-0.104
		c-1.675-1.51-3.66-2.695-5.875-3.44c-0.826,1.949-1.675,4.001-2.539,6.169C338.163,238.548,338.973,238.197,339.862,237.691z"/>
	<path class="st0" d="M335.826,265.378c-1.341-1.925-3.175-5.064-3.942-7.022c-0.308-0.933-0.55-1.683-0.756-2.368
		c-0.889,2.691-1.759,5.465-2.6,8.309c1.22,0.466,2.505,0.814,3.858,0.989C333.549,265.436,334.7,265.463,335.826,265.378
		L335.826,265.378z"/>
	<path class="st0" d="M332.219,239.482c1.789,0.006,3.375-0.065,5.169-0.672c0.864-2.168,1.713-4.22,2.539-6.169
		c-1.028-0.346-2.104-0.602-3.221-0.746c-4.329-0.56-8.476,0.592-11.792,2.911C327.912,237.255,331.156,239.478,332.219,239.482
		L332.219,239.482z"/>
	<path class="st0" d="M330.02,250.649c-0.081-1.188,0.585-4.683-0.917-6.396c-0.562-0.648-2.117-1.592-9.402-3.574
		c-0.931,1.745-1.584,3.675-1.853,5.753c-1.017,7.866,3.581,15.151,10.679,17.865c0.841-2.844,1.711-5.617,2.6-8.309
		C330.612,254.279,330.344,253.02,330.02,250.649L330.02,250.649z"/>
	<path class="st1" d="M130.576,91.67c-4.021-1.961,0.617-1.506,0.834-2.008c0.078-0.18,0.154-0.36,0.233-0.541l-21.251-21.212
		c-0.122,0.098-0.247,0.194-0.37,0.291c-0.549,0.431-1.124,0.846-1.709,1.256c0.539,1.429,0.914,2.592,0.811,2.809
		c-0.016,0.033-0.032,0.061-0.048,0.093c0.386,1.006,0.772,2.012,1.159,3.018c-0.735-0.529-1.365-1.099-1.936-1.704
		c-0.637,0.866-1.436,1.454-2.613,1.82c0.617,1.72,1.075,3.152,0.994,3.217c-0.113,0.09-0.211,0.179-0.3,0.267
		c0.216,0.447,0.423,0.901,0.606,1.374c0.481,1.241,1.882,3.691,2.381,5.845l17.571,17.737c0.091-0.445,0.186-0.891,0.286-1.337
		c0.17-0.764,3.042-0.318,0.548-2.296s1.733-2.101,0.811-2.909c-4.036-3.535,0.042-1.8,0.659-2.07
		c0.819-0.359,0.545-1.575,0.757-2.146C130.275,92.43,134.597,93.632,130.576,91.67L130.576,91.67z"/>
	<path class="st1" d="M97.147,76.34c-0.218-0.453-0.464-0.929-0.699-1.396c-1.073-0.333-2.086-0.737-3.006-1.291
		c-0.151,0.154-0.298,0.316-0.45,0.467c-1.115,1.102-2.513,1.568-4.015,1.028c0.151-0.174,0.303-0.348,0.454-0.522
		c0.213-0.267,0.43-0.547,0.48-0.606c0.204-0.239,0.411-0.476,0.616-0.714c-0.406,0.066-0.826,0.122-0.883,0.065
		c-0.417-0.415,0.041-1.768,0.222-2.222c0.094-0.234,0.309-0.472,0.526-0.697c-0.692-1.027-1.237-1.198-2.388-1.874
		c-0.947,0.144-1.086-0.151-0.416-0.884c0.273-0.555,0.513-1.124,0.719-1.708c0.079-0.248,0.134-0.484,0.188-0.72
		c-0.741-0.258-1.475-0.515-2.185-0.785c0.156,0.059,1.202-1.223,2.07-2.32c-0.046-0.053-0.091-0.112-0.136-0.165
		c-0.384-0.442-0.769-0.878-1.159-1.274c-2.59-2.654-5.149-4.035-7.275-3.892c-1.496,0.087-3.113,0.79-5.013,2.876
		C60.982,75.043,17.615,123.2,0,142.752c2.509-0.456,5.074-0.502,7.679-0.547c1.628-0.028,4.331-0.629,5.869-0.212
		c1.639-0.533,1.785-0.188,0.439,1.035c-0.619,0.829-1.237,1.66-1.852,2.492c-0.565,0.834-0.912,1.75-1.042,2.748
		c0.607-0.657,1.326-1.15,2.156-1.482c0.572-0.27,4.994-1.665,5.399-1.185c1.175,1.391-1.609,2.168,0.385,2.812
		c1.109,0.358,2.648-0.889,3.828-0.363c3.089,1.379-0.489,3.359-0.582,5.536c-0.067,1.568,1.474,0.357,2.789,1.26
		c1.126,0.773,1.327,1.462,1.441,2.812c0.229,2.719-1.787,3.929-2.95,5.664c0.115,0.071,0.234,0.13,0.34,0.224
		c0.258,0.229,0.377,0.978,0.485,1.71c0.415-0.211,0.881-0.385,1.367-0.369c0.934,0.031,1.647,0.388,2.452,0.596
		c8.987-9.975,25.636-28.46,40.818-45.317c14.926-16.571,28.428-31.564,31.826-35.339c-0.172-0.442-0.394-1.004-0.666-1.669
		C99.47,81.417,98.436,79.005,97.147,76.34L97.147,76.34z"/>
	<path class="st1" d="M92.208,74.763c-0.03,0.022-0.062,0.048-0.09,0.065C92.147,74.81,92.178,74.786,92.208,74.763z"/>
	<path class="st1" d="M363.549,241.994l-42.188,80.567c0,0-4.187-11.721,3.424-44.188c0.865-3.691,1.809-7.303,2.802-10.823
		c1.386,0.507,2.84,0.884,4.364,1.081c11.068,1.433,21.201-6.379,22.634-17.447c1.247-9.633-4.513-18.552-13.324-21.648
		c2.181-4.992,4.123-9.073,5.578-12.014l-25.253,2.753l-1.524,0.166l-1.525,0.167c-0.073,0.159-0.144,0.313-0.218,0.477
		c-8.338,18.483-25.646,66.723,2.155,104.753l1.244,1.697l0.978-1.864l41.792-79.812
		C364.106,244.583,363.797,243.294,363.549,241.994L363.549,241.994z M347.764,238.179c2.702,3.431,4.081,7.9,3.476,12.573
		c-0.909,7.026-6.031,12.464-12.495,14.133c-0.138-1.163,0.272-2.425,0.381-4.731c0.103-2.172,0.057-4.976,0.134-6.705
		c0.15-3.859-1.014-5.964-1.014-5.964c3.608-1.559,3.666-2.79,4.499-4.588c0.831-1.8,3.332-3.446,4.708-4.571
		c0,0,0.126-0.056,0.311-0.145L347.764,238.179z M336.705,231.896c1.117,0.144,2.193,0.4,3.221,0.746
		c2.215,0.745,4.2,1.93,5.875,3.44c-0.508,0.051-0.862,0.104-0.862,0.104c-1.636,0.21-2.978,0.314-5.078,1.505
		c-0.889,0.505-1.699,0.857-2.474,1.12c-1.795,0.607-3.381,0.677-5.169,0.672c-1.064-0.004-4.307-2.227-7.305-4.676
		C328.229,232.489,332.376,231.336,336.705,231.896L336.705,231.896z M317.848,246.432c0.269-2.078,0.922-4.008,1.853-5.753
		c7.285,1.982,8.84,2.926,9.402,3.574c1.503,1.713,0.836,5.208,0.917,6.396c0.325,2.371,0.592,3.63,1.107,5.339
		c0.206,0.685,0.448,1.435,0.756,2.368c0.767,1.958,2.601,5.097,3.942,7.022c-1.125,0.085-2.276,0.058-3.44-0.092
		c-1.353-0.175-2.638-0.523-3.858-0.989C321.429,261.583,316.831,254.298,317.848,246.432L317.848,246.432z"/>
	<path class="st1" d="M350.517,208.94l-71.435,9.591c-0.69,1.351-1.723,3.047-2.896,4.927l43.218-4.711l1.539-0.168l1.539-0.167
		l25.295-2.757l6.938-0.756c-1.451-1.944-2.857-3.925-4.197-5.958L350.517,208.94z"/>
	<path class="st1" d="M322.56,93.67c-0.425-0.196-0.852-0.397-1.281-0.603c-2.049-0.982-4.133-2.076-6.131-3.269
		c-1.525-0.911-2.997-1.879-4.362-2.902c-0.126-0.095-0.253-0.189-0.378-0.285l-17.757,17.725c-0.035,0.289-0.069,0.574-0.104,0.863
		c-0.13,1.073-0.26,2.152-0.391,3.236c-0.513,4.277-1.025,8.627-1.521,12.967c-0.068,0.6-0.138,1.2-0.205,1.799
		c-0.054,0.474-0.106,0.945-0.159,1.417c-0.07,0.62-0.141,1.24-0.209,1.859l32.164-32.468l0.335-0.338L322.56,93.67z"/>
	<path class="st1" d="M117.269,276.681c-0.554-3.287-0.973-6.687-1.265-10.177c-0.074-0.877-0.142-1.758-0.2-2.644
		c-0.035-0.529-0.061-1.065-0.091-1.599l-45.839,45.755c0,0-2.348,1.817-2.744,4.685c-0.11,0.8-0.07,1.681,0.218,2.627
		l-32.702,32.814l0,0l-0.113,0.144c-0.103,0.137-0.25,0.355-0.399,0.626c-0.296,0.549-0.57,1.293-0.565,2.083
		c0.019,0.912,0.273,1.968,1.656,3.378c1.207,1.185,1.963,1.35,2.474,1.36c0.532,0.006,1.074-0.257,1.556-0.651
		c0.473-0.383,0.803-0.846,0.82-0.877l0,0l0.108-0.17l32.585-32.698c0.806,0.348,1.583,0.506,2.322,0.519
		c1.711,0.029,3.213-0.699,4.369-1.541c1.529-1.112,2.453-2.419,2.453-2.419l7.03-7.097l29.219-29.494
		c-0.16-0.73-0.311-1.469-0.456-2.213c-0.154-0.796-0.3-1.6-0.437-2.41L117.269,276.681z"/>
	<path class="st1" d="M400.867,59.394c0.67-0.809,1.346-1.614,2.04-2.405c1.098-1.864,2.371-3.645,3.724-5.354
		c0.274-0.604,0.534-1.218,0.759-1.853c-0.68-0.607-1.374-1.195-2.069-1.784c-3.147,2.922-6.081,6.083-9.491,8.706
		c1.237-0.951,2.219-2.629,3.243-3.806c1.033-1.188,2.067-2.779,3.318-3.741c0.749-0.576,1.471-1.184,2.181-1.805
		c-0.964-0.799-1.945-1.575-2.947-2.323c-28.689,7.188-64.394,16.131-78.582,19.687c-2.735,0.7-4.111,1.799-4.89,3.079
		c-0.833,1.381-1.049,3.307-0.609,5.73c0.271,1.503,0.795,3.156,1.5,4.87c0.423,1.029,0.912,2.08,1.451,3.134
		c1.592,3.129,3.61,6.271,5.592,9.079c1.583,2.243,3.144,4.279,4.442,5.889c1.047,1.302,1.917,2.331,2.5,3.005
		c4.925-1.234,24.498-6.136,46.132-11.557c7.023-1.759,14.262-3.573,21.289-5.334c1.445-4.395,2.906-8.785,4.378-13.17
		c-3.463-0.738-6.91-1.561-10.332-2.513c1.26,0.351,4.811-7.274,6.37-7.533L400.867,59.394z"/>
	<path class="st0" d="M85.89,214.365c-0.641,0-1.16,0.52-1.162,1.164c0.002,0.643,0.521,1.163,1.162,1.163
		c0.645,0,1.166-0.52,1.166-1.163S86.535,214.365,85.89,214.365z"/>
	<path class="st1" d="M94.873,228.369c-0.199,3.287-2.018,4.81-3.754,5.48c-1.629,0.69-2.937,1.022-3.665,2.151l-1.533,3.757
		l-1.538-3.763c-0.728-1.121-2.027-1.455-3.647-2.141c-1.74-0.669-3.568-2.188-3.768-5.484l-1.653,0.962l2.494-6.112l2.499,6.112
		l-1.57-0.912c0.241,2.604,1.249,3.116,2.696,3.823c0.913,0.406,2.106,0.749,3.141,1.486v-11.784h-2.601v0.672h-1.755v-2.743h1.755
		v0.316h2.601v-2.07c-0.946-0.482-1.6-1.456-1.6-2.591c0-1.612,1.304-2.918,2.916-2.921c1.614,0,2.92,1.309,2.92,2.921
		c0,1.136-0.655,2.109-1.603,2.592v2.069h2.552v-0.316h1.755v2.743H89.76v-0.672h-2.552v11.823c1.052-0.77,2.28-1.113,3.213-1.53
		c1.438-0.705,2.443-1.22,2.684-3.817l-1.569,0.911l2.499-6.112l2.495,6.112l-1.655-0.963L94.873,228.369z M85.89,214.365
		c-0.641,0-1.16,0.52-1.162,1.164c0.002,0.643,0.521,1.163,1.162,1.163c0.645,0,1.166-0.52,1.166-1.163
		S86.535,214.365,85.89,214.365z"/>
	<path class="st0" d="M229.186,35.252l1.07-1.892c1.709,0.03,5.778,0.136,10.97,0.495c0.394,0.027,0.815,0.061,1.222,0.092
		c4.159,0.31,8.907,0.78,13.675,1.493c2.935,0.438,5.869,0.965,8.661,1.604c1.749,0.4,4.417,0.858,6.038,1.339
		c6.727,1.996,9.767,3.245,13.882,5.488c1.102,0.6,3.994,2.255,4.827,2.864c0.725,0.53,1.183,0.902,1.757,1.338
		c0.278,0.211,0.616,0.505,0.865,0.673c0.346,0.234,0.645,0.443,0.902,0.624l-0.868,1.301l-1.11,1.663l-0.479,0.719
		c-0.581-0.692-1.378-1.522-2.439-2.431c-2.853-2.441-7.662-5.441-15.463-7.841c-1.087-0.334-2.212-0.661-3.418-0.969
		c-5.591-1.433-11.288-2.441-16.644-3.152c-2.917-0.388-5.729-0.686-8.37-0.917c-7.062-0.616-12.881-0.743-16.058-0.759l0.981-1.733
		L229.186,35.252z"/>
	<path class="st0" d="M289.153,78.798c-1.154-0.262-2.417-0.642-3.791-1.133c-0.288-0.103-0.574-0.204-0.873-0.317
		c-21.218-8.147-29.065-29.167-31.025-35.55c0.544,0.077,1.092,0.156,1.642,0.239c0.552,0.083,1.106,0.169,1.664,0.259
		c0.123,0.363,0.258,0.748,0.409,1.163c0.954,2.622,2.477,6.223,4.738,10.096c4.523,7.757,11.954,16.549,23.639,20.992l0.183,0.066
		c1.415,0.533,2.673,0.92,3.784,1.187l-0.369,2.997L289.153,78.798z"/>
	<path class="st1" d="M290.539,67.207c1.23-1.724,3.866-5.892,2.384-9.234c-0.072-0.163-0.154-0.324-0.248-0.484
		c-0.27-0.23-0.54-0.45-0.81-0.68l-0.11-0.09l0.15-0.23l0.69-1.02l0.83-1.26l2.64-3.95l1.04-1.56l-0.57-0.46
		c2.418-4.039,2.2-5.994,1.559-7.032c-1.42-2.301-5.487-1.021-11.333-2.444c-5.729-1.395-5.54-3.528-10.889-5.556
		c-6.523-2.473-8.467,0.088-24.222-1.333c-3.384-0.305-8.337-0.818-10.444-4.222c-0.956-1.544-0.397-2.182-1.333-3.111
		c-2.973-2.952-9.607,2.493-18.667,3.556c-0.597,0.07-2.361,0.257-3.778,1.556c-1.328,1.218-2.308,3.375-1.571,4.435
		c0.242,0.348,0.903,1.302,4.358,0.483c2.15-0.51,4.35-0.89,6.57-1.16l-1.33,2.36l-2.44,4.3l0.11-0.01
		c-31.77,5.04-65.23,17.12-78.27,34.5c-4.27,5.69-7.35,10.99-9.61,16.1c-0.22,0.48-0.43,0.96-0.63,1.43
		c-0.08,0.19-0.15,0.37-0.22,0.56c-0.28,0.69-0.56,1.37-0.81,2.04c-1.1,3-1.93,5.94-2.57,8.86c-0.18,0.79-0.34,1.58-0.49,2.36
		c-0.08,0.47-0.16,0.94-0.24,1.4c-0.06,0.34-0.12,0.69-0.17,1.03c-2.71,17.52,0.21,35.24-6.32,61.38
		c-1.33,5.31-1.33,9.82-0.31,13.64c0.21,0.77,0.46,1.49,0.74,2.2c0.25,0.62,0.52,1.23,0.82,1.81c-0.34,1.69-0.69,3.51-1.05,5.45
		c-0.46,2.44-0.93,5.06-1.4,7.82c-0.4,0.17-0.83,0.34-1.27,0.51c-0.41,0.16-0.83,0.32-1.26,0.49c-3.76,1.43-8.44,3.06-13.27,5.01
		l2.96-24.23c0.41-0.68,0.65-1.42,0.65-2.22c-0.01-1.6-0.95-2.96-2.3-4.04c-4.07-3.22-12.63-5.18-22.69-5.21
		c-6.7,0-12.76,0.91-17.24,2.44c-2.24,0.76-4.09,1.67-5.45,2.77c-1.04,0.83-1.83,1.83-2.15,2.97h-0.13l0.04,0.4
		c-0.03,0.22-0.06,0.44-0.06,0.67c0,0.56,0.12,1.09,0.33,1.59l8.41,70.13h-0.02c0.01,1.18,0.7,2.13,1.6,2.85
		c1.101,0.857,2.65,1.56,4.521,2.097c0.299-0.533,0.599-1.04,0.9-1.518c-0.225-0.243-0.473-0.512-0.732-0.784
		c-0.144-0.044-0.292-0.088-0.429-0.135c-1.27-0.43-2.26-0.94-2.86-1.42c-0.41-0.34-0.6-0.61-0.68-0.83l-0.03-0.26l-8.06-67.21
		c4.29,2.93,12.49,4.71,22.04,4.74c6.69-0.01,12.76-0.92,17.24-2.44c1.78-0.61,3.3-1.31,4.54-2.12l-2.69,21.98l-3.27,28.4
		l-2.06,16.65h-0.17c0,0.22-0.14,0.59-0.76,1.09c-1.82,1.52-7.04,2.88-13.04,2.84c-0.827,0.002-1.631-0.025-2.415-0.073
		c-0.311,0.423-0.603,0.838-0.84,1.169c0.033,0.033,0.074,0.076,0.103,0.102c0.179,0.161,0.524,0.539,0.936,0.984
		c0.724,0.038,1.459,0.064,2.216,0.068c4.22,0,8.05-0.57,10.91-1.54c1.43-0.49,2.63-1.07,3.54-1.79c0.75-0.6,1.36-1.38,1.54-2.3
		l0.17,0.02l2.07-16.69c4.29,0.84,8.79,1.16,12.59-0.27c0.41-0.16,0.81-0.33,1.2-0.53c0.43-0.21,0.83-0.45,1.23-0.72
		c-0.43,5.89-0.69,11.86-0.68,17.75c-0.01,2.31,0.04,4.61,0.12,6.88c0.02,0.38,0.03,0.75,0.05,1.13c0.02,0.53,0.05,1.07,0.07,1.6
		c0.05,0.9,0.11,1.79,0.17,2.68c0.25,3.54,0.61,6.99,1.12,10.32c0.13,0.82,0.26,1.63,0.4,2.44c0.14,0.75,0.28,1.5,0.43,2.23
		l0.03,0.16c1.08,5.34,2.58,10.27,4.57,14.57c5.15,11.04,13.23,17.92,26.31,17.96c1,0,2.02-0.04,3.08-0.12
		c18.87-1.49,27.72-3.43,34.04-5.65c6.3-2.21,10.31-4.84,19.3-7.66l0.06-0.02l0.05-0.01c13.61-2.84,24.7-6.39,32.12-6.41
		c0.94,0,1.83,0.06,2.66,0.19c9.14,1.49,11.75,10.54,14.59,13.33c7.74,8.14,14.17,10.75,24.4,16.55
		c8.45,4.82,28.57,11.92,35.14,12.94c0.72,0.11,1.22,0.14,1.65,0.15h0.12c1.13,0.13,2.17,0.19,3.11,0.19c2.913,0,4.469,0.032,5.64-1
		c0.376-0.332,0.993-1.016,1.301-2.36c-0.33-0.31-0.91-0.68-1.65-1.09c-1.47-0.82-3.51-1.78-5.35-3.38
		c-0.97-0.85-2.66-2.69-4.82-5.19s-4.78-5.64-7.6-9.08c-5.12-6.25-10.81-13.41-15.2-19.1l-0.15,0.38l-1.25-1.71
		c-0.06-0.07-0.15-0.18-0.24-0.31c-6.63-8.67-15.16-14.72-18.98-17.18c-1.27-0.81-2-1.22-2.01-1.22l-0.91-0.52l0.41-0.97
		c1.9-4.4,2.57-8.08,2.57-11.26c0.01-5.45-1.99-9.51-3.6-13.25c-0.09-0.22-0.18-0.44-0.27-0.65c-0.17-0.41-0.34-0.82-0.5-1.22
		c-0.26-0.71-0.44-1.49-0.57-2.33c-0.16-0.96-0.24-2-0.26-3.1c-0.01-0.25-0.02-0.5-0.02-0.75c0-3.08,0.38-6.59,0.8-9.91
		c0.03-0.19,0.05-0.37,0.07-0.56c0.05-0.37,0.1-0.74,0.15-1.1c0.04-0.29,0.08-0.57,0.11-0.85l0.04-0.26
		c0.05-0.36,0.1-0.72,0.14-1.06c0.06-0.41,0.11-0.8,0.16-1.19c0.17-1.26,0.32-2.41,0.42-3.42c0.04-0.39,0.07-0.75,0.09-1.09
		c0.03-0.39,0.04-0.75,0.05-1.07v-0.46c-0.01-0.13-0.01-0.26-0.01-0.4c-0.01-2.64,0.99-4.62,1.89-6.09
		c0.95-1.45,1.63-2.54,1.55-2.87v-0.05l-0.01-0.05c-0.04-0.02-0.18-0.08-0.45-0.07c-1.02-0.03-3.24,0.76-5.62,2.29
		c-1.43,0.89-3.36,2.93-5.4,5.76c-0.19,0.27-0.38,0.54-0.57,0.82s-0.39,0.57-0.59,0.87c-0.37,0.55-0.73,1.13-1.1,1.73
		c-1.36,2.22-2.7,4.72-3.92,7.41l-0.03,0.07c-0.21,0.45-0.41,0.9-0.6,1.36c-0.09,0.21-0.17,0.42-0.26,0.63
		c-0.11,0.26-0.21,0.51-0.32,0.77l-0.36,0.93c-0.04,0.11-0.08,0.23-0.12,0.34c-0.41,1.09-0.8,2.18-1.14,3.3
		c-0.15,0.47-0.3,0.92-0.45,1.37c-0.14,0.43-0.28,0.86-0.42,1.27c-0.15,0.43-0.3,0.86-0.45,1.28c-3.6,10.1-7.87,16.51-14.18,22.3
		c-3.61,3.33-7.2,4.87-11.14,5.53c-3.92,0.67-8.18,0.53-13.46,0.66c-0.08,0-0.31,0.02-0.65,0.02c-1.14,0.01-3.68-0.17-6.35-1.47
		c-0.3-0.14-0.6-0.3-0.91-0.48c-0.28-0.16-0.56-0.33-0.83-0.52c-0.9-0.61-1.77-1.39-2.58-2.33c-0.19-0.22-0.38-0.45-0.56-0.69
		c-0.18-0.23-0.36-0.46-0.52-0.72c-0.55-0.83-1.05-1.76-1.49-2.82c-0.23-0.59-0.36-1.18-0.36-1.77c0.04-2.22,1.66-3.66,3.56-4.99
		c1.94-1.34,4.44-2.67,7.03-4.4c5.16-3.49,10.61-8.42,12.51-17.88l0.13-0.65l0.63-0.22c0-0.01,0.24-0.09,0.64-0.25
		c-1.18,3.35-2.56,7.03-3.4,9.89c-0.37,1.28-0.64,2.39-0.73,3.23c-0.02,0.2-0.04,0.4-0.04,0.57c0,3.62-2.85,7.8-0.96,9.3
		c0.1,0.07,0.2,0.15,0.32,0.21c0.19,0.1,0.46,0.14,0.77,0.14c0.64,0,1.5-0.19,2.51-0.53l-7.47,4.66l-0.47-0.74l0.42,0.77
		l-10.42,5.74c0.87,0.93,1.81,1.62,2.75,2.13l43.02-25.41c0.44-1.24,0.88-2.53,1.31-3.9c0.2-0.62,0.41-1.24,0.63-1.85l-17.52,10.95
		c0.8-0.77,1.53-1.57,2.16-2.39c0.45-0.58,0.84-1.18,1.17-1.77c0.33-0.58,0.6-1.16,0.8-1.75c1.74-5.23,1.99-10.17,0.31-14.39
		c-0.14-0.37-0.3-0.73-0.48-1.09c-0.17-0.34-0.36-0.69-0.56-1.03c1.22-0.77,2.45-1.61,3.68-2.51c0.11-0.08,0.21-0.15,0.32-0.23
		l0.22-0.15c0.36-0.27,0.72-0.56,1.09-0.84c0.52-0.41,1.05-0.83,1.57-1.26c2.05-1.68,4.04-3.52,5.89-5.54
		c0.45-0.49,0.9-0.99,1.33-1.51c0.22-0.25,0.42-0.52,0.63-0.78s0.43-0.53,0.64-0.8c2.6-3.38,4.74-7.18,6.1-11.4
		c0.06-0.18,0.11-0.37,0.17-0.56c-5.85-0.58-11.83-0.34-17.86,0.33c-0.45,0.05-0.9,0.11-1.35,0.16c-0.39,0.05-0.79,0.09-1.19,0.15
		c-0.83,0.1-1.66,0.22-2.49,0.34c-3.26,0.48-6.52,1.04-9.78,1.64c-0.8,0.14-1.59,0.29-2.39,0.44c-0.62,0.12-1.23,0.23-1.84,0.34
		c-0.18,0.04-0.37,0.07-0.55,0.11c-4.01,0.75-8.01,1.51-11.97,2.15c-4.67,0.86-9.39,1.57-14.12,2.1c-0.24,0.03-0.47,0.05-0.71,0.08
		c-0.82,0.09-1.63,0.17-2.45,0.25c-1.03,0.09-2.07,0.18-3.1,0.26c-3.92,0.28-7.85,0.42-11.78,0.38c-0.93-0.01-1.85-0.04-2.78-0.07
		c-0.44-0.01-0.89-0.02-1.33-0.04c-0.46-0.02-0.92-0.05-1.39-0.08c-5.25-0.29-10.5-0.92-15.73-1.99c-0.11-0.03-0.21-0.06-0.32-0.09
		c-5.76-1.57-11.66-4-16.14-8.1c-1.24-1.14-2.38-2.39-3.37-3.8c-3.15-4.41-4.01-9.66-3.62-14.81c0.03-0.39,0.06-0.78,0.1-1.16
		c0.04-0.37,0.09-0.73,0.14-1.1l0.01-0.07c0.26-1.77,0.64-3.52,1.12-5.2c-0.39,1.71-0.65,3.47-0.79,5.24
		c-0.04,0.38-0.06,0.77-0.08,1.16c-0.01,0.39-0.03,0.79-0.03,1.18c-0.04,5.3,1.27,10.52,4.76,14.47c2.52,2.96,5.76,5.07,9.31,6.62
		c3.49,1.51,7.28,2.48,11,3.16c5.4,0.98,10.89,1.52,16.43,1.7c0.48,0.02,0.96,0.02,1.44,0.04c0.44,0,0.89,0.02,1.33,0.03
		c0.95,0.01,1.89,0,2.84-0.01c4.01-0.04,8.03-0.26,12.04-0.63c1.05-0.1,2.11-0.21,3.16-0.33c0.83-0.09,1.66-0.19,2.48-0.29
		c0.25-0.03,0.5-0.07,0.75-0.1c3.71-0.49,7.4-1.09,11.05-1.8c3.1-0.48,6.19-1.05,9.28-1.63c0.19-0.03,0.38-0.07,0.57-0.1
		c0.6-0.12,1.21-0.23,1.82-0.35c0.79-0.15,1.59-0.3,2.39-0.45c3.22-0.6,6.45-1.19,9.69-1.71c0.82-0.13,1.64-0.26,2.46-0.38
		c0.39-0.06,0.78-0.11,1.17-0.16c0.44-0.06,0.89-0.12,1.33-0.18c4.37-0.56,8.79-0.92,13.26-0.92c0.65,0,1.29,0.02,1.94,0.03
		c1.99,0.05,3.82,0.11,5.83,0.32c0.1,0.03,0.16,0,0.29,0.02c0.36,0.01,0.72,0.03,1.07,0.05l0.09,0.01c0.4,0.03,0.79,0.05,1.18,0.08
		c14.39,0.94,22.23-1.88,25.64-7.56c3.51-5.85-8.2-7.02-24.58-8.19c-10.29-0.73-24.29,1.31-38.2,2.63
		c-0.49,0.05-0.97,0.09-1.45,0.13c-0.39,0.04-0.77,0.07-1.16,0.1c-0.87,0.08-1.74,0.15-2.62,0.22c-0.46,0.04-0.93,0.07-1.39,0.11
		c-0.27,0.02-0.55,0.04-0.82,0.06c-0.74,0.05-1.48,0.09-2.21,0.14c-0.48,0.02-0.97,0.05-1.45,0.08c-0.51,0.02-1.03,0.05-1.54,0.07
		c-1.15,0.05-2.3,0.09-3.43,0.11c-0.249,0.005-0.495-0.002-0.743,0c-1.459,0.585-2.921,1.119-4.387,1.119
		c1.448,0,2.901-0.535,4.358-1.119c-0.688,0.004-1.375,0.007-2.058,0c-0.71,0-1.41-0.02-2.11-0.04c-0.27,0-0.53-0.01-0.79-0.02
		c-0.32-0.02-0.63-0.02-0.94-0.04c-0.35-0.02-0.71-0.02-1.06-0.04l-0.21-0.01c-0.92-0.06-1.79-0.13-2.62-0.21
		c-0.39-0.04-0.77-0.08-1.14-0.13c-0.48-0.05-0.95-0.11-1.4-0.18c-0.18-0.03-0.35-0.05-0.53-0.08c-2.76-0.44-4.82-1.04-6.26-1.76
		c-2.85-1.43-3.27-3.3-1.86-5.24c0.021,0.017,0.045,0.034,0.068,0.051c0.283-0.446,0.721-0.811,1.151-1.118
		c0.081-0.091,0.179-0.168,0.288-0.232c-0.056-0.039-0.112-0.078-0.168-0.121c0.88-0.76,2.02-1.52,3.37-2.24
		c0.18-0.1,0.36-0.19,0.55-0.29c0.43-0.22,0.89-0.43,1.36-0.64c0.5-0.23,1.01-0.45,1.55-0.67c0.14-0.06,0.3-0.11,0.46-0.16
		c2.23-0.78,5.73-1.2,10.05-1.36c0.89-0.04,1.81-0.06,2.77-0.07c0.36-0.01,0.73-0.01,1.1-0.01h0.07c0.52-0.01,1.05-0.01,1.59,0h1.17
		c0.91,0.01,1.84,0.03,2.79,0.05c3.46,0.09,7.15,0.25,10.94,0.47c0.89,0.05,1.78,0.1,2.68,0.16c0.62,0.04,1.24,0.08,1.87,0.12
		c0.26,0.02,0.52,0.04,0.79,0.06c17.13,1.16,34.81,3.08,40.94,3.08c11.7,0,14.03-2.34,10.53-10.53c-1.78-4.14-0.26-23.97,2.13-46.34
		c0.05-0.44,0.09-0.88,0.14-1.31c0.07-0.63,0.14-1.26,0.21-1.88c0.11-1.07,0.23-2.14,0.35-3.21c0.48-4.29,0.98-8.63,1.49-12.93
		c0.12-1.08,0.25-2.16,0.38-3.23c0.04-0.3,0.07-0.59,0.11-0.89c0.09-0.79,0.18-1.57,0.28-2.35c0.39-3.2,0.77-6.36,1.15-9.42
		c-1.16-0.26-2.42-0.64-3.79-1.13c-0.29-0.11-0.58-0.21-0.88-0.32c-21.22-8.15-29.06-29.17-31.02-35.55
		c0.54,0.08,1.09,0.16,1.64,0.24c0.55,0.08,1.11,0.17,1.66,0.26c0.13,0.36,0.26,0.75,0.41,1.16c0.96,2.62,2.48,6.22,4.74,10.1
		c4.52,7.75,11.95,16.55,23.64,20.99l0.18,0.07c1.42,0.53,2.67,0.92,3.79,1.18c1.37,0.33,2.52,0.48,3.44,0.48
		c0.15,0,0.29-0.01,0.43-0.02c0.454-0.032,1.919-0.169,2.89-1.16c1.217-1.241,0.937-3.098,0.9-3.32 M229.186,35.249l1.07-1.89
		c1.71,0.03,5.78,0.14,10.97,0.5c0.39,0.02,0.82,0.06,1.22,0.09c4.16,0.31,8.91,0.78,13.68,1.49c2.93,0.44,5.87,0.97,8.66,1.61
		c1.75,0.4,4.41,0.85,6.04,1.33c6.72,2,9.76,3.25,13.88,5.49c1.1,0.6,3.99,2.26,4.82,2.87c0.73,0.53,1.19,0.9,1.76,1.34
		c0.28,0.21,0.62,0.5,0.87,0.67c0.34,0.23,0.64,0.44,0.9,0.62l-0.87,1.3l-1.11,1.67l-0.48,0.72c-0.58-0.7-1.38-1.53-2.44-2.43
		c-2.85-2.45-7.66-5.45-15.46-7.85c-1.09-0.33-2.21-0.66-3.42-0.96c-5.59-1.44-11.29-2.45-16.64-3.16
		c-2.92-0.38-5.73-0.68-8.37-0.91c-7.07-0.62-12.88-0.75-16.06-0.76L229.186,35.249L229.186,35.249z M106.696,182.479
		c-3.17,2.62-11.57,4.75-21.28,4.72c-6.48,0-12.36-0.9-16.51-2.32c-2.08-0.71-3.72-1.54-4.77-2.4c-0.48-0.38-0.82-0.75-1.06-1.1
		c-0.28-0.43-0.4-0.83-0.4-1.18c0-0.32,0.1-0.68,0.33-1.07c0.23-0.38,0.6-0.79,1.13-1.22c3.15-2.59,11.44-4.71,21.06-4.71h0.22
		c6.48-0.01,12.35,0.9,16.51,2.32c2.08,0.7,3.72,1.54,4.77,2.39c0.53,0.43,0.89,0.84,1.13,1.22c0.23,0.39,0.33,0.75,0.33,1.07
		c0,0.41-0.16,0.88-0.56,1.4C107.376,181.879,107.076,182.179,106.696,182.479z"/>
</g>
<path class="st2" d="M281.49,216.857c2.672,7.809,0.324,9.666,8.004,13.517c2.514,1.26,1.072,6.267,3.293,10.037
	s-1.134,4.906,3.346,8.064c4.479,3.158,3.538-0.539,10.719,1.94c7.18,2.479,5.417,1.05,7.338,4.062s1.14,6.703,3.298,8.339
	s-0.75,8.509,4.792,13.827s5.117,0.292,12.966,4.723s9.882,1.8,13.506-3.396c3.624-5.196,3.894-9.256,10.059-9.212
	c6.165,0.043,7.853-10.573,7.429-15.599s5.924-17.692,4.362-23.616s-0.796-12.025-0.099-18.561c0.697-6.536-5.198-10.64-5.198-10.64
	s2.431,3.381,1.482,8.884c-0.95,5.503-0.145,8.328-2.472,8.503c-2.327,0.176-5.032-4.949-7.932-7.276s2.056-9.423-0.532-14.387
	s3.398-7.216,2.178-10.959s-0.356-4.59-0.223-9.522s-2.093-7.004-2.093-7.004c1.74,8.219-3.609,7.605-1.816,13.851
	s-2.457,10.912-7.753,8.325s-5.24-12.062-7.766-14.893c-2.526-2.83-0.624-8.032,2.151-9.973c2.775-1.941,1.528-4.698-1.093-6.978
	s-3.705-5.151-3.15-10.862s-5.272-9.378-5.272-9.378s3.073,6.319,0.876,9.065c-2.196,2.746-4.126-4.373-6.21-7.271
	s1.351,6.314-1.136,12.408c-2.487,6.094-4.936,7.807-0.72,13.327c4.215,5.52,2.714,9.232,0.654,12.85
	c-2.06,3.618-8.124,1.327-8.644-3.149c-0.52-4.476,0.608-7.684-2.693-8.521c-3.301-0.837-1.936-5.421,1.772-7.772
	c3.707-2.351,4.829-3.861,3.651-6.182s2.255-6.416-1.339-9.709c-3.595-3.293,2.14-6.577,2.104-9.698s-0.451-4.039,2.324-5.98
	c2.775-1.941,0.875-4.241-4.925-8.895s-0.559-13.4-0.559-13.4s-4.888,7.532-3.395,13.02s8.701,6.981,3.198,10.587
	c-5.503,3.607-5.71,9.8-4.528,17.926c1.182,8.126-1.178,10.985-6.838,13.009c-5.66,2.023-5.319,4.204-2.861,6.598
	c2.458,2.394,3.663,3.729,3.188,6.48c-0.475,2.752,2.473,4.803-3.751,8.43s-2.25,4.719-6.153,9.868s-4.301-0.863-9.926,4.28
	s-6.28,13.102-3.608,20.912"/>
<path class="st2" d="M319.271,193.767c3.862,3.777,0.245,6.255-2.042,12.854c-2.287,6.6,2.648,5.729-1.664,10.196
	s-0.754-1.731-4.66-2.386s-2.55,6.461-6.991,7.792s-0.794-8.155,1.728-15.565c2.523-7.41,3.221-11.874,7.055-22.032
	c1.829-4.847,2.711,5.362,6.573,9.14L319.271,193.767z"/>
<path class="st2" d="M324.495,128.345c2.522-4.127-1.268-3.092,0-5.131s3.135-1.053,0.467-4.079s-4.136-4.342-4.27-6.973
	s-0.867-3.158-0.934-6.118s-0.734-5.855-0.734-5.855s0.4,1.579,0,4.145s-1.982,4.013-0.757,7.105
	c1.224,3.092,0.757,2.237,2.092,5.855c1.334,3.618,0.812,4.868,1.707,7.302c0.895,2.434,1.767,4.833,2.429,3.75L324.495,128.345z"/>
<path class="st2" d="M306.149,166.83c4.269-4.593,3.736-3.355,2.335-9.078s0.734-3.75-1.601-7.96
	c-2.335-4.21-3.002-1.053-3.135-5.723c-0.133-4.671-3.602-6.842-3.602-7.105s1.868,2.302,2.201,5.394
	c0.334,3.092-1.534,3.552,0.667,7.368s4.803,3.224,2.935,7.039c-1.868,3.816-1.042,7.368-1.355,8.421
	C304.281,166.239,304.681,168.409,306.149,166.83L306.149,166.83z"/>
<path class="st2" d="M293.207,178.671c3.632-4.847,3.069-3.355,1.668-7.5s-1.735-8.552-1.468-5.46s-0.2,4.079-0.2,6.908
	S292.248,179.951,293.207,178.671z"/>
<g>
	<path class="st3" d="M301.484,199.222c0.034-0.516,0.034-0.819,0.034-0.819S301.501,198.703,301.484,199.222z"/>
	<path class="st3" d="M341.707,282.178c1.545-4.301-2.729-9.524-1.803-14.305c1.427-7.368-5.83-4.342-1.561-14.21
		c4.27-9.868-1.067-12.499-5.871-17.631c-4.803-5.132-9.206-2.105-13.476-6.71c-4.27-4.605-4.67-5.395-7.205-13.026
		c-2.535-7.631-0.801-3.026,0.4-8.026s-0.4-3.355-2.735-6.381s-0.2-3.618-0.734-6.315s-2.535-2.566-2.535-2.566l1.13,1.842
		c1.13,1.842-2.464,4.868,1.005,9.111s-0.133,1.809-1.005,9.967c-0.871,8.157,0.071,3.684,3.54,14.012
		c3.469,10.328,4.536,8.486,6.138,16.118c1.601,7.631-5.737,3.816-11.608-2.105c-5.871-5.921-3.069-7.105-2.019-14.012
		c1.05-6.908,0.819-6.25,0-11.644c-0.818-5.395-1.049-4.079-1.583-8.684c-0.398-3.435-0.351-6.867-0.301-8.391
		c-0.078,1.194-0.335,3.542-1.189,6.023c-1.223,3.552,1.357,4.473,0,13.947c-1.357,9.473-4.381,14.078-1.979,22.104
		s0.133,5.263,1.979,15.789c1.845,10.526,7.628,7.368,8.828,14.287c1.201,6.919-3.469,1.633-4.903,7.686
		c1.001,4.934,3.791,5.585,13.809,4.835c3.036-0.227,5.904-3.191,12.242-0.954C334.029,284.265,337.442,283.642,341.707,282.178
		L341.707,282.178z"/>
</g>
<path class="st3" d="M354.754,245.605c-3.602-6.019,1.501-3.355-2.402-12.039s-9.306-10.361-16.711-11.052
	s-11.779-2.072-14.845-7.697c-3.067-5.625,0.536-5.131-2.967-8.092s-4.203-7.503-4.203-7.503s0,5.727,2.201,7.7
	s-0.4-0.099,1.501,7.993s2.402,9.572,6.504,11.249s3.302-0.789,7.905,5.131c4.603,5.921-3.803,5.687,6.004,7.284
	s10.607,1.202,9.807,10.281c-0.801,9.078-0.5,12.927-2.101,20.131c-1.597,7.187-11.773,14.609-11.818,14.642c0,0,0.002,0,0.003,0
	c12.203-2.978,14.517-7.637,16.318-15.531s8.406-16.479,4.803-22.499L354.754,245.605z"/>
<g>
	<path class="st4" d="M339.563,244.88c0.125,0.491,0.217,0.953,0.281,1.39C339.788,245.782,339.691,245.322,339.563,244.88z"/>
	<path class="st4" d="M339.903,267.873c1.427-7.368-5.83-4.342-1.561-14.21c0.492-1.137,0.851-2.175,1.104-3.135
		c-1.247,3.13-4.368,4.56-4.727,8.299c-0.522,5.427,0.321,4.934-1.88,14.506s-8.606,7.204-12.044,2.862
		c-3.438-4.342,12.444-10.164,9.208-16.479s-0.467-6.908-0.867-12.828s-4.803-5.822-8.341-10.263
		c-1.326-1.664-2.061-4.778-2.461-8.02c-0.212-0.231-0.41-0.451-0.602-0.664l0,0c-0.897,5.33-2.906,6.711,3.063,14.902
		c5.969,8.19,0.636,14.604-4.868,12.927c-3.287-1.002-6.252-6.938-8.108-11.558c-0.608-0.518-1.215-1.069-1.811-1.645
		c0.168,2.801,0.474,6.71,1.013,10.538c1.001,7.105,7.705,5.822,8.206,15.986c0.497,10.095-5.712,9.291,0.575,14.948
		c0.704-0.04,1.435-0.087,2.227-0.146c3.036-0.227,5.904-3.191,12.242-0.954c3.758,1.326,7.171,0.703,11.436-0.76
		C343.252,277.878,338.978,272.655,339.903,267.873L339.903,267.873z"/>
</g>
<g>
	<g class="st5">
		<path class="st6" d="M158.104,138.206h3.204l3.998,5.396l4.022-5.396h3.227l-5.495,7.281l5.962,7.888h-3.297l-4.419-5.851
			l-4.396,5.851h-3.227l5.962-7.779L158.104,138.206z"/>
	</g>
</g>
<path class="st1" d="M291.65,30.985"/>
<path class="st0" d="M289.872,33.429"/>
<path class="st0" d="M307.206-51.904"/>
<path class="st1" d="M524.538,93.429"/>
</svg>
