<?xml version="1.0" encoding="utf-8"?>
<!-- Generator: Adobe Illustrator 27.6.1, SVG Export Plug-In . SVG Version: 6.00 Build 0)  -->
<svg version="1.1" id="Layer_1" xmlns="http://www.w3.org/2000/svg" xmlns:xlink="http://www.w3.org/1999/xlink" x="0px" y="0px"
	 viewBox="0 0 390.444 410.457" style="enable-background:new 0 0 390.444 410.457;" xml:space="preserve">
<style type="text/css">
	.st0{fill:#FFFFFF;}
	.st1{fill:#231F20;}
	.st2{fill:#FFDD00;}
	.st3{fill:none;stroke:#000000;stroke-width:2;stroke-miterlimit:10;}
	.st4{fill:#D3D3D3;stroke:#000000;stroke-width:2;stroke-miterlimit:10;}
</style>
<circle class="st0" cx="111.246" cy="143.274" r="36.881"/>
<rect x="90.476" y="19.927" transform="matrix(0.8669 -0.4985 0.4985 0.8669 -9.9988 51.5885)" class="st1" width="2.251" height="49.18"/>
<path class="st1" d="M108.192,64.696c0.66-0.285,1.315-0.573,1.985-0.851l-9.426-38.671l-2.187,0.533l9.51,39.019l0.118-0.029
	V64.696z"/>
<path class="st1" d="M113.666,62.049l1.079-0.014c0.386-0.146,0.777-0.289,1.166-0.434l-0.493-39.746l-2.25,0.029L113.666,62.049z"
	/>
<path class="st1" d="M68.774,23.554c-0.178-0.727-0.26-1.429-0.26-2.104c0.002-2.689,1.295-5.031,3.257-6.747
	c1.956-1.712,4.572-2.73,6.981-2.724c3.276,0.058,6.129,1.652,7.302,6.234l2.186-0.532l-0.021-0.09
	c-0.209-0.889-0.305-1.733-0.305-2.532c0.002-2.791,1.147-5.072,2.736-6.686c1.583-1.613,3.625-2.49,5.194-2.479
	c1.564,0.062,2.556,0.624,3.046,2.412h0.001v0.001l2.184-0.535V7.77l0,0c-0.035-0.146-0.054-0.3-0.056-0.466
	c-0.012-0.832,0.523-1.971,1.461-2.845c0.928-0.881,2.19-1.474,3.449-1.47c2.176,0,5.013,1.71,6.767,8.69l0.009,0.038l2.187-0.534
	c-0.218-0.893-0.316-1.728-0.316-2.498c0.031-4.095,2.648-6.417,5.485-6.433c2.73,0.002,6.095,2.203,7.689,8.619l2.187-0.534
	C128.262,3.335,124.115-0.002,120.061,0c-2.067,0-4.025,0.878-5.441,2.412c-0.797,0.858-1.422,1.922-1.816,3.142
	c-1.88-3.358-4.371-4.816-6.873-4.815c-2.913,0.063-5.426,1.861-6.543,4.149c-0.986-0.849-2.26-1.278-3.543-1.244
	c-4.112,0.042-8.921,3.605-9.971,9.228c-1.882-2.161-4.496-3.18-7.121-3.143C72.755,9.752,66.33,14.543,66.264,21.45
	c0,0.858,0.104,1.741,0.324,2.638L68.774,23.554L68.774,23.554z"/>
<path class="st1" d="M94,149.648c-0.327,0.291-0.614,0.604-0.882,0.926c-0.158,0.189-0.314,0.38-0.454,0.578
	c-1.079,1.539-1.599,3.339-1.726,5.187c0.59-0.298,1.513-0.715,2.679-1.085c0.721-0.229,1.534-0.44,2.422-0.595l0.11-0.01
	c0.25-0.038,0.5-0.066,0.753-0.066l0.206,0.019c0.835,0.037,1.641,0.252,2.421,0.594c1.477,0.647,2.868,1.715,4.211,2.749
	c1.27,0.994,2.505,1.945,3.663,2.542c0.147,0.076,0.293,0.14,0.438,0.204c0.601,0.265,1.18,0.429,1.726,0.421
	c0.422-0.001,0.829-0.082,1.246-0.274c0.08-0.537,0.266-1.976,0.265-3.757c0.003-1.485-0.139-3.195-0.559-4.786
	c-1.914-1.365-3.905-3.054-6.013-5.027c-0.231-0.217-0.462-0.41-0.693-0.608c-3.543,0.019-6.198,0.701-8.151,1.809
	c-0.622,0.353-1.176,0.747-1.661,1.179H94z"/>
<path class="st1" d="M103.842,159.194c-0.465-0.73-1.146-1.306-1.958-1.633c-0.111-0.045-0.229-0.072-0.345-0.107
	c-0.385-0.118-0.786-0.2-1.21-0.2l-0.072,0.007c0.247,0.255,0.405,0.592,0.441,0.967l0.016,0.157c0,0.246-0.06,0.477-0.16,0.687
	c-0.259,0.544-0.811,0.924-1.451,0.924c-0.89,0-1.614-0.723-1.615-1.609c-0.814,0.761-1.33,1.836-1.33,3.038
	c0,2.3,1.867,4.173,4.172,4.173c1.822,0,3.358-1.183,3.924-2.814c0.087-0.25,0.149-0.509,0.187-0.778
	c0.027-0.191,0.059-0.382,0.059-0.581c0-0.546-0.112-1.065-0.303-1.543c-0.097-0.242-0.216-0.47-0.354-0.687L103.842,159.194z"/>
<path class="st2" d="M218.472,52.563c0.35-1.805,1.562-4.32,3.568-6.612c2.592-3.063,5.828-4.804,7.467-4.804h0.09
	c0.514,0.008,0.779,0.125,0.973,0.287c0.229,0.197,0.445,0.594,0.453,1.422c0.034,1.763-1.26,4.887-3.685,7.671
	c-1.543,1.82-3.303,3.156-4.826,3.953c-1.087,0.569-2.058,0.872-2.727,0.845c-0.515-0.004-0.785-0.124-0.969-0.28
	c-0.236-0.204-0.453-0.601-0.461-1.428C218.349,53.308,218.398,52.946,218.472,52.563L218.472,52.563z"/>
<path class="st2" d="M163.814,50.047l1.07-1.892c1.709,0.03,5.778,0.136,10.97,0.495c0.394,0.027,0.815,0.061,1.222,0.092
	c4.159,0.31,8.907,0.78,13.675,1.493c2.935,0.438,5.869,0.965,8.661,1.604c1.749,0.4,4.417,0.858,6.038,1.339
	c6.727,1.996,9.767,3.245,13.882,5.488c1.102,0.6,3.994,2.255,4.827,2.864c0.725,0.53,1.183,0.902,1.757,1.338
	c0.278,0.211,0.616,0.505,0.865,0.673c0.346,0.234,0.645,0.443,0.902,0.624l-0.868,1.301l-1.11,1.663l-0.479,0.719
	c-0.581-0.692-1.378-1.522-2.439-2.431c-2.853-2.441-7.662-5.441-15.463-7.841c-1.087-0.334-2.212-0.661-3.418-0.969
	c-5.591-1.433-11.288-2.441-16.644-3.152c-2.917-0.388-5.729-0.686-8.37-0.917c-7.062-0.616-12.881-0.743-16.058-0.759l0.981-1.733
	L163.814,50.047z"/>
<path class="st2" d="M223.781,93.593c-1.154-0.262-2.417-0.642-3.791-1.133c-0.288-0.103-0.574-0.204-0.873-0.317
	c-21.218-8.147-29.065-29.167-31.025-35.55c0.544,0.077,1.092,0.156,1.642,0.239c0.552,0.083,1.106,0.169,1.664,0.259
	c0.123,0.363,0.258,0.748,0.409,1.163c0.954,2.622,2.477,6.223,4.738,10.096c4.523,7.757,11.954,16.549,23.639,20.992l0.183,0.066
	c1.415,0.533,2.673,0.92,3.784,1.187l-0.369,2.997L223.781,93.593z"/>
<path class="st1" d="M0,232.416c0,6.956,0.526-5.657,26.013,12.596s29.845-6.938,26.013-12.596
	c-3.833-5.658-11.646-12.596-26.013-12.596S0,225.46,0,232.416z"/>
<ellipse class="st1" cx="39.75" cy="225.344" rx="13.806" ry="5.088"/>
<path class="st0" d="M51.836,229.582c-1.651,0.463-2.71-0.173-3.336-0.912c-0.617-0.684-1.003-1.271-1.683-1.436l-2.109-0.114
	l1.589-1.398c0.427-0.549,0.37-1.245,0.431-2.159c0.032-0.97,0.468-2.128,2.055-2.789l-0.755-0.649l3.432,0.185l-2.581,2.271
	l0.181-0.928c-1.24,0.563-1.32,1.146-1.421,1.978c-0.044,0.518-0.009,1.164-0.195,1.798l5.797-2.009l-0.443-1.279l-0.331,0.115
	l-0.299-0.863l1.349-0.468l0.299,0.863l-0.155,0.054l0.443,1.279l1.018-0.353c0.076-0.548,0.443-1.035,1.002-1.229
	c0.793-0.275,1.658,0.144,1.934,0.936c0.275,0.794-0.146,1.66-0.939,1.934c-0.559,0.194-1.149,0.037-1.548-0.347l-1.018,0.353
	l0.435,1.255l0.155-0.054l0.299,0.863l-1.349,0.468l-0.299-0.863l0.331-0.115l-0.435-1.255l-5.816,2.016
	c0.558,0.386,0.936,0.932,1.3,1.32c0.592,0.587,1.017,0.994,2.335,0.67l-0.716-0.616l3.433,0.187l-2.581,2.269L51.836,229.582
	L51.836,229.582z M57.193,222.776c-0.109-0.315-0.454-0.482-0.771-0.373c-0.316,0.111-0.483,0.455-0.374,0.77
	c0.11,0.317,0.455,0.485,0.771,0.375S57.303,223.093,57.193,222.776z"/>
<path d="M56.555,362.043"/>
<circle cx="317.162" cy="231.901" r="58"/>
<rect x="38.01" y="318.292" transform="matrix(0.9353 -0.3539 0.3539 0.9353 -103.4733 90.5633)" width="315.809" height="19.889"/>
<rect x="79.083" y="328.536" transform="matrix(0.9353 -0.3539 0.3539 0.9353 -117.3688 52.7647)" width="13.043" height="37.598"/>
<rect x="201.724" y="245.262" transform="matrix(-0.9263 -0.3768 0.3768 -0.9263 296.088 637.743)" width="17.392" height="89.301"/>
<line class="st3" x1="148.127" y1="263.95" x2="324.11" y2="235.683"/>
<line class="st3" x1="11.401" y1="228.982" x2="324.11" y2="235.683"/>
<path class="st1" d="M51.425,316.709c45.857,21.117,71.13,0,58.752,16c-7.659,5.06-7.178,6.457-9.169,6
	c-14.546-1.759-29.133-4.119-43.781-7.333"/>
<rect x="68.742" y="367.355" transform="matrix(0.9775 0.211 -0.211 0.9775 83.1679 -7.1868)" width="13.043" height="37.598"/>
<rect x="304.152" y="280.336" transform="matrix(0.7722 -0.6354 0.6354 0.7722 -119.2954 265.571)" width="13.043" height="37.598"/>
<circle class="st0" cx="317.162" cy="233.027" r="7.683"/>
<path class="st1" d="M38.32,250.631c1.814,1.91,11.524,0.017,12.338-0.315s0.814-0.332,1.207-0.53
	c0.42-0.211,0.827-0.452,1.224-0.716c-0.428,5.891-0.684,11.862-0.683,17.745c0,2.313,0.043,4.609,0.126,6.884
	c0.014,0.376,0.028,0.751,0.044,1.126c0.023,0.535,0.049,1.068,0.077,1.601c0.047,0.898,0.102,1.792,0.164,2.68
	c0.249,3.539,0.616,6.994,1.122,10.319c0.126,0.823,0.261,1.637,0.404,2.443c0.133,0.753,0.276,1.495,0.425,2.232l0.03,0.155
	c1.085,5.343,2.576,10.271,4.566,14.569c5.155,11.042,13.235,17.923,26.317,17.963c0.996,0,2.019-0.04,3.074-0.122
	c18.877-1.49,27.726-3.425,34.043-5.649c6.304-2.212,10.313-4.837,19.303-7.661l0.061-0.018l0.05-0.009
	c13.611-2.845,24.695-6.388,32.119-6.411c0.939,0,1.828,0.057,2.662,0.191c9.137,1.49,11.749,10.537,14.582,13.331
	c7.738,8.137,14.174,10.747,24.401,16.546c8.451,4.822,28.573,11.925,35.145,12.939c0.713,0.113,1.216,0.146,1.648,0.149h0.046
	l0.073,0.008c1.126,0.128,2.164,0.184,3.113,0.184c2.537,0.002,4.439-0.423,5.638-1c1.223-0.587,1.627-1.249,1.658-1.642l0.007-0.09
	c-0.009-0.168-0.04-0.3-0.371-0.627c-0.323-0.311-0.908-0.684-1.642-1.088l-0.001,0.008c-1.47-0.82-3.512-1.784-5.357-3.386
	c-1.929-1.69-6.777-7.388-12.42-14.269c-5.119-6.251-10.807-13.404-15.2-19.101l-0.151,0.379l-1.247-1.702
	c-0.057-0.077-0.148-0.188-0.237-0.309c-6.637-8.68-15.161-14.728-18.981-17.181c-1.274-0.817-2.004-1.228-2.006-1.228l-0.919-0.518
	l0.417-0.967c1.897-4.402,2.57-8.078,2.57-11.258c0.004-5.454-1.995-9.51-3.603-13.256c-0.094-0.218-0.184-0.434-0.275-0.65
	c-0.17-0.408-0.337-0.813-0.491-1.217c-0.267-0.706-0.443-1.495-0.577-2.326c-0.154-0.965-0.234-2.005-0.258-3.104
	c-0.006-0.252-0.02-0.496-0.02-0.754c0.003-3.072,0.377-6.589,0.802-9.907c0.024-0.187,0.048-0.373,0.072-0.559
	c0.048-0.37,0.097-0.739,0.145-1.103c0.038-0.288,0.077-0.568,0.115-0.85l0.035-0.259c0.049-0.36,0.097-0.713,0.144-1.062
	c0.055-0.405,0.107-0.8,0.159-1.186c0.169-1.258,0.313-2.411,0.413-3.416c0.039-0.389,0.069-0.753,0.093-1.093
	c0.026-0.389,0.044-0.749,0.046-1.066l0.004-0.146c0-0.111-0.002-0.229-0.002-0.318c-0.007-0.13-0.011-0.26-0.011-0.396
	c-0.005-2.638,0.991-4.625,1.895-6.091c0.943-1.448,1.626-2.54,1.549-2.87v-0.048l-0.008-0.058c-0.044-0.02-0.185-0.071-0.453-0.068
	c-1.017-0.027-3.237,0.759-5.615,2.296c-1.431,0.885-3.362,2.928-5.401,5.759c-0.189,0.264-0.381,0.538-0.572,0.814
	c-0.195,0.283-0.391,0.573-0.587,0.869c-0.369,0.557-0.737,1.137-1.106,1.737c-1.359,2.216-2.699,4.716-3.918,7.408l-0.033,0.073
	c-0.203,0.449-0.403,0.899-0.599,1.358c-0.088,0.207-0.172,0.418-0.259,0.627c-0.105,0.256-0.213,0.51-0.316,0.768
	c-0.123,0.31-0.24,0.622-0.359,0.934c-0.043,0.112-0.084,0.226-0.126,0.339c-0.406,1.085-0.794,2.183-1.142,3.304
	c-0.146,0.467-0.295,0.913-0.443,1.366c-0.14,0.428-0.28,0.855-0.422,1.27c-0.147,0.434-0.298,0.859-0.448,1.28
	c-3.607,10.101-7.874,16.513-14.181,22.3c-3.609,3.327-7.201,4.868-11.137,5.529c-3.929,0.667-8.183,0.533-13.46,0.657
	c-0.082,0.007-0.311,0.021-0.655,0.021c-1.135,0.015-3.679-0.173-6.348-1.466c-0.301-0.146-0.604-0.304-0.907-0.479
	c-0.28-0.163-0.561-0.336-0.839-0.526c-0.894-0.611-1.767-1.383-2.579-2.324c-0.19-0.221-0.375-0.453-0.557-0.694
	c-0.177-0.233-0.355-0.463-0.523-0.717c-0.549-0.827-1.05-1.762-1.482-2.822c-0.239-0.585-0.367-1.181-0.367-1.766
	c0.042-2.226,1.665-3.664,3.56-4.989c1.948-1.342,4.447-2.674,7.03-4.409c5.168-3.486,10.616-8.418,12.516-17.875l0.131-0.652
	l0.626-0.222c0,0,0.241-0.09,0.645-0.245c-1.187,3.351-2.562,7.03-3.401,9.89c-0.377,1.283-0.64,2.392-0.727,3.23
	c-0.02,0.199-0.045,0.403-0.045,0.569c0,3.619-2.853,7.801-0.964,9.296c0.1,0.078,0.201,0.154,0.327,0.218
	c0.19,0.095,0.455,0.135,0.77,0.134c0.632-0.002,1.492-0.186,2.506-0.529l12.245-7.651c0.8-0.771,1.535-1.57,2.165-2.388
	c0.448-0.583,0.839-1.175,1.174-1.771c0.324-0.579,0.597-1.162,0.791-1.745c1.746-5.234,1.99-10.169,0.319-14.392
	c-0.145-0.367-0.306-0.729-0.48-1.086c-0.172-0.35-0.36-0.693-0.56-1.032c1.212-0.776,2.442-1.612,3.68-2.512
	c0.105-0.076,0.21-0.148,0.314-0.227l0.22-0.157c0.363-0.27,0.725-0.554,1.088-0.834c0.529-0.409,1.055-0.829,1.579-1.261
	c2.043-1.68,4.035-3.521,5.885-5.541c0.452-0.494,0.898-0.994,1.333-1.509c0.214-0.255,0.416-0.521,0.626-0.78
	c0.214-0.266,0.43-0.528,0.638-0.798c2.607-3.383,4.748-7.184,6.101-11.402c0.06-0.186,0.117-0.371,0.173-0.559
	c-5.849-0.585-11.829-0.344-17.863,0.331c-0.447,0.05-0.895,0.101-1.343,0.155c-0.397,0.049-0.795,0.095-1.192,0.147
	c-0.831,0.107-1.662,0.223-2.494,0.344c-3.254,0.475-6.516,1.039-9.775,1.637c-0.798,0.145-1.596,0.294-2.394,0.443
	c-0.613,0.114-1.227,0.227-1.839,0.343c-0.184,0.035-0.367,0.069-0.551,0.103c-4.01,0.755-8.006,1.51-11.965,2.148
	c-4.676,0.86-9.391,1.577-14.128,2.107c-0.234,0.026-0.468,0.05-0.703,0.075c-0.818,0.088-1.636,0.173-2.455,0.249
	c-1.032,0.096-2.064,0.184-3.098,0.259c-3.919,0.288-7.85,0.421-11.782,0.379c-0.924-0.01-1.849-0.032-2.773-0.062
	c-0.446-0.015-0.892-0.024-1.337-0.044c-0.461-0.02-0.922-0.049-1.383-0.074c-5.256-0.291-10.508-0.923-15.734-1.991
	c-0.106-0.028-0.212-0.06-0.318-0.089c-5.761-1.571-11.661-4.008-16.141-8.106c-1.241-1.136-2.379-2.391-3.367-3.799
	c-3.157-4.41-4.011-9.663-3.628-14.808c0.029-0.39,0.065-0.778,0.108-1.166c0.04-0.366,0.084-0.73,0.136-1.094l0.01-0.067
	c0.257-1.779,0.641-3.528,1.118-5.204c-0.383,1.707-0.652,3.467-0.792,5.235c-0.031,0.389-0.055,0.778-0.072,1.168
	c-0.017,0.391-0.03,0.782-0.033,1.172c-0.04,5.308,1.268,10.523,4.755,14.472c2.525,2.964,5.765,5.075,9.318,6.618
	c3.485,1.514,7.273,2.48,10.992,3.161c5.399,0.981,10.897,1.523,16.432,1.705c0.478,0.016,0.958,0.023,1.437,0.034
	c0.445,0.009,0.89,0.025,1.336,0.031c0.945,0.01,1.892,0.006,2.838-0.004c4.011-0.041,8.031-0.264,12.037-0.635
	c1.056-0.098,2.11-0.205,3.163-0.324c0.829-0.093,1.657-0.191,2.484-0.297c0.248-0.031,0.496-0.064,0.743-0.097
	c3.712-0.489,7.402-1.092,11.049-1.799c3.101-0.484,6.192-1.048,9.287-1.628c0.188-0.035,0.376-0.07,0.564-0.105
	c0.607-0.114,1.216-0.229,1.823-0.345c0.795-0.15,1.591-0.3,2.388-0.45c3.222-0.607,6.451-1.198,9.696-1.715
	c0.819-0.13,1.639-0.259,2.46-0.378c0.389-0.057,0.778-0.106,1.167-0.159c0.443-0.061,0.886-0.125,1.33-0.183
	c4.374-0.562,8.788-0.921,13.265-0.922c0.644,0,1.29,0.019,1.936,0.034c1.989,0.047,3.816,0.104,5.834,0.315
	c0.096,0.031,0.159,0,0.284,0.02c0.362,0.016,0.726,0.03,1.067,0.057l0.092,0.006c0.406,0.031,0.789,0.051,1.186,0.076
	c14.382,0.939,22.225-1.872,25.633-7.554c3.51-5.849-8.191-7.019-24.572-8.188c-10.295-0.734-24.291,1.303-38.206,2.627
	c-0.484,0.047-0.968,0.087-1.452,0.131c-0.384,0.035-0.768,0.07-1.151,0.103c-0.875,0.077-1.748,0.148-2.62,0.218
	c-0.465,0.036-0.93,0.071-1.393,0.105c-0.274,0.019-0.551,0.043-0.825,0.061c-0.739,0.052-1.472,0.093-2.206,0.136
	c-0.482,0.028-0.965,0.058-1.445,0.082c-0.518,0.026-1.035,0.052-1.549,0.073c-1.149,0.048-2.293,0.088-3.422,0.108
	c-0.956,0.017-1.894,0.009-2.833,0.003c-0.709-0.005-1.412-0.018-2.11-0.037c-0.266-0.007-0.526-0.019-0.791-0.029
	c-0.315-0.011-0.632-0.021-0.944-0.035c-0.349-0.016-0.709-0.019-1.055-0.039l-0.205-0.015c-0.927-0.057-1.796-0.128-2.625-0.21
	c-0.388-0.038-0.767-0.078-1.135-0.122c-0.483-0.057-0.952-0.117-1.4-0.183c-0.182-0.027-0.357-0.055-0.533-0.083
	c-2.759-0.437-4.819-1.041-6.258-1.761c-2.85-1.426-3.271-3.302-1.868-5.239c1.091,0.881,2.416,1.746,4.143,1.879
	c0.123,0.01,0.24,0.03,0.369,0.032c0.737,0,1.511-0.154,2.323-0.47c0.09,0.072,0.19,0.146,0.301,0.22
	c0.707,0.479,1.833,0.969,3.463,0.962c0.342,0,0.711-0.03,1.094-0.076c0.237-0.028,0.479-0.062,0.732-0.11
	c0.537-0.102,1.108-0.245,1.72-0.445l0.057-0.017c0.097,0.065,0.207,0.135,0.328,0.208c0.302,0.183,0.684,0.383,1.12,0.565
	c0.297,0.124,0.62,0.237,0.97,0.332c0.541,0.147,1.137,0.251,1.785,0.259h0.046l0.179-0.008c0.286-0.009,0.577-0.04,0.873-0.097
	c0.944-0.182,1.923-0.614,2.822-1.376c0.928,0.413,2.619,1.042,4.443,1.058c0.939,0.009,1.963-0.216,2.855-0.768
	c0.133-0.082,0.271-0.15,0.398-0.248c0.535,0.275,1.318,0.618,2.258,0.849c0.398,0.098,0.824,0.176,1.271,0.22
	c0.236,0.022,0.477,0.038,0.725,0.04c0.195,0,0.4-0.022,0.601-0.04l0.238-0.016c0.391-0.049,0.785-0.14,1.18-0.27
	c0.594-0.195,1.184-0.479,1.736-0.893c0.111,0.037,0.262,0.079,0.396,0.119c0.199,0.06,0.42,0.117,0.664,0.177
	c0.764,0.186,1.707,0.352,2.752,0.356c1.236,0.002,2.637-0.246,3.853-1.044c0.533,0.218,1.365,0.512,2.367,0.704
	c0.523,0.1,1.096,0.166,1.695,0.185l0.266,0.011c0.855,0,1.777-0.135,2.68-0.469c0.197-0.073,0.395-0.149,0.588-0.244l0.059-0.024
	l0.039,0.015l0.242,0.096c0.957,0.372,2.644,0.911,4.478,0.922c1.107,0.002,2.312-0.216,3.367-0.871
	c0.879,0.193,2.789,0.553,4.851,0.555c1.266-0.002,2.6-0.132,3.822-0.576c0.633,0.175,1.941,0.482,3.387,0.486
	c0.869-0.003,1.807-0.113,2.684-0.497c0.728,0.134,2.365,0.403,3.971,0.406c0.951-0.011,1.895-0.075,2.74-0.446l4.588,0.193
	l0.098-1.947l-5.195-0.22l-0.273,0.158c-0.258,0.17-1.065,0.323-1.957,0.31c-0.902,0-1.875-0.108-2.621-0.217
	c-0.748-0.11-1.271-0.218-1.271-0.216l-0.41-0.084l-0.359,0.199c-0.098,0.055-0.207,0.099-0.32,0.142
	c-0.102,0.039-0.207,0.071-0.318,0.101c-0.404,0.109-0.867,0.167-1.353,0.166c-0.437,0-0.877-0.041-1.287-0.099
	c-0.31-0.043-0.607-0.096-0.859-0.15c-0.588-0.126-0.943-0.247-0.945-0.245l-0.402-0.132l-0.387,0.169
	c-0.891,0.388-2.109,0.549-3.328,0.547c-1.217,0-2.408-0.151-3.301-0.302c-0.9-0.153-1.494-0.307-1.496-0.3l-0.533-0.139
	l-0.424,0.333c-0.662,0.518-1.508,0.723-2.465,0.725c-1.035,0.002-2.146-0.257-2.977-0.528c-0.422-0.135-0.762-0.268-0.998-0.366
	c-0.228-0.096-0.359-0.159-0.361-0.156l-0.549-0.267l-0.516,0.319c-0.832,0.514-1.752,0.7-2.685,0.7
	c-1.024,0.002-2.037-0.234-2.783-0.478c-0.744-0.243-1.178-0.475-1.18-0.468l-0.664-0.34l-0.555,0.476
	c-0.824,0.708-1.885,0.953-3,0.955c-0.332,0-0.656-0.027-0.975-0.064c-0.258-0.03-0.506-0.069-0.742-0.115
	c-0.289-0.056-0.566-0.118-0.805-0.183c-0.41-0.11-0.703-0.213-0.883-0.279c-0.117-0.043-0.193-0.075-0.195-0.073l-0.662-0.28
	l-0.51,0.476c-0.83,0.757-1.668,1.016-2.539,1.065l-0.258,0.02l-0.172-0.012c-0.547-0.018-1.088-0.123-1.586-0.27
	c-0.324-0.096-0.635-0.202-0.902-0.315c-0.363-0.153-0.66-0.309-0.863-0.42c-0.201-0.112-0.287-0.172-0.289-0.172l-0.807-0.536
	l-0.006-0.004l-0.619,0.731c-0.273,0.316-0.584,0.526-0.93,0.668c-0.391,0.16-0.828,0.232-1.334,0.239
	c-0.937,0.004-2-0.275-2.805-0.572c-0.418-0.153-0.75-0.301-0.98-0.41c-0.211-0.099-0.336-0.166-0.338-0.164l-0.74-0.402
	l-0.568,0.595c-1.057,1.085-2.001,1.354-2.904,1.374h-0.027c-0.383,0.002-0.76-0.063-1.12-0.158
	c-0.45-0.118-0.872-0.286-1.222-0.466l-0.009-0.005c-0.174-0.09-0.324-0.178-0.459-0.261c-0.103-0.064-0.201-0.126-0.276-0.178
	c-0.171-0.12-0.238-0.178-0.238-0.178l-0.484-0.402l-0.604,0.224c-0.562,0.208-1.06,0.348-1.526,0.458
	c-0.727,0.171-1.353,0.25-1.866,0.25l-0.054-0.003c-0.383-0.005-0.698-0.049-0.979-0.108c-0.496-0.104-0.862-0.265-1.114-0.419
	c-0.197-0.126-0.334-0.247-0.409-0.325l-0.076-0.085l-0.203-0.306l-0.308-0.462l-0.866,0.429c-0.226,0.111-0.435,0.2-0.635,0.275
	c-0.565,0.212-1.034,0.291-1.442,0.291c-1.015,0.023-2.112-0.544-3.173-1.382c0.881-0.759,2.024-1.512,3.377-2.237
	c0.179-0.096,0.358-0.191,0.544-0.287c0.432-0.219,0.889-0.435,1.359-0.648c0.499-0.225,1.012-0.447,1.552-0.664
	c0.145-0.058,0.3-0.112,0.457-0.166c2.236-0.772,5.737-1.191,10.053-1.356c0.888-0.034,1.814-0.057,2.767-0.07
	c0.364-0.005,0.732-0.009,1.105-0.012h0.064c0.523-0.003,1.055-0.003,1.594-0.001h0.061c0.367,0.002,0.738,0.005,1.112,0.009
	c0.91,0.01,1.84,0.026,2.787,0.049c3.465,0.083,7.155,0.247,10.938,0.466c0.889,0.051,1.782,0.105,2.678,0.162
	c0.623,0.039,1.247,0.08,1.873,0.121c0.262,0.018,0.525,0.036,0.788,0.054c17.132,1.162,34.811,3.088,40.938,3.088
	c11.701,0,14.039-2.342,10.531-10.531c-1.777-4.146-0.256-23.978,2.134-46.347c0.047-0.436,0.094-0.872,0.141-1.31
	c0.067-0.625,0.136-1.252,0.204-1.88c0.116-1.064,0.234-2.133,0.354-3.205c0.479-4.295,0.98-8.634,1.487-12.933
	c0.127-1.079,0.256-2.156,0.384-3.229c0.035-0.297,0.07-0.592,0.106-0.888c0.094-0.786,0.187-1.569,0.281-2.35
	c0.387-3.203,0.771-6.355,1.148-9.42c-1.154-0.262-2.417-0.642-3.791-1.133c-0.288-0.103-0.574-0.204-0.873-0.317
	c-21.218-8.147-29.065-29.167-31.025-35.55c0.544,0.077,1.092,0.156,1.642,0.239c0.552,0.083,1.106,0.169,1.664,0.259
	c0.123,0.363,0.258,0.748,0.409,1.163c0.954,2.622,2.477,6.223,4.738,10.096c4.523,7.757,11.954,16.549,23.639,20.992l0.183,0.066
	c1.415,0.533,2.673,0.92,3.784,1.187c1.37,0.33,2.519,0.48,3.442,0.478c0.153-0.001,0.289-0.011,0.43-0.019
	c1.577-0.087,2.37-0.552,2.893-1.166c0.572-0.678,0.9-1.813,0.897-3.316c0.02-2.648-1.02-6.101-2.123-8.969
	c-0.639-1.662-1.299-3.128-1.785-4.125c-0.266-0.549-0.473-0.957-0.596-1.196c-0.27-0.232-0.54-0.453-0.81-0.678l-0.113-0.095
	l0.152-0.229l0.683-1.023l0.837-1.254l2.64-3.956l1.039-1.557l-0.575-0.456c5.723-14.74,42.367-32.293,15.752-45.101
	c-17.248-8.309-57.029,2.222-69.502,4.794c-11.012,2.272-19.279,6.289-25.262,11.685c-6.836,6.169-5.076,16.805,2.691,14.95
	c2.155-0.515,4.351-0.893,6.571-1.157l-1.331,2.352l-2.433,4.299l0.106-0.002c-31.765,5.032-65.233,17.114-78.271,34.499
	c-4.263,5.684-7.344,10.988-9.612,16.1c-0.211,0.475-0.43,0.954-0.627,1.426c-0.079,0.19-0.146,0.377-0.223,0.566
	c-0.277,0.682-0.554,1.364-0.803,2.04c-1.103,2.993-1.932,5.933-2.575,8.858c-0.173,0.788-0.336,1.576-0.482,2.362
	c-0.086,0.465-0.168,0.931-0.246,1.396c-0.058,0.343-0.116,0.688-0.169,1.031c-2.708,17.517,0.213,35.243-6.32,61.38
	c-1.327,5.31-1.331,9.817-0.308,13.643c0.204,0.761,0.455,1.49,0.738,2.197c0.248,0.62,0.519,1.225,0.825,1.806
	c-0.342,1.696-0.697,3.514-1.06,5.448c-0.458,2.441-0.926,5.064-1.391,7.826c-0.407,0.167-0.83,0.336-1.269,0.508
	c-0.412,0.161-1.734,0.528-1.268,0.489c3.488-0.292,4.605-2.747-13.262,5.016 M39.075,222.208 M218.471,52.564
	c0.35-1.805,1.562-4.32,3.568-6.612c2.592-3.063,5.828-4.804,7.467-4.804h0.09c0.514,0.008,0.779,0.125,0.973,0.287
	c0.229,0.197,0.445,0.594,0.453,1.422c0.034,1.763-1.26,4.887-3.685,7.671c-1.543,1.82-3.303,3.156-4.826,3.953
	c-1.087,0.569-2.058,0.872-2.727,0.845c-0.515-0.004-0.785-0.124-0.969-0.28c-0.236-0.204-0.453-0.601-0.461-1.428
	C218.348,53.309,218.397,52.947,218.471,52.564z M163.814,50.048l1.07-1.892c1.709,0.03,5.778,0.136,10.97,0.495
	c0.394,0.027,0.815,0.061,1.222,0.092c4.159,0.31,8.907,0.78,13.675,1.493c2.935,0.438,5.869,0.965,8.661,1.604
	c1.749,0.4,4.417,0.858,6.038,1.339c6.727,1.996,9.767,3.245,13.882,5.488c1.102,0.6,3.994,2.255,4.827,2.864
	c0.725,0.53,1.183,0.902,1.757,1.338c0.278,0.211,0.616,0.505,0.865,0.673c0.346,0.234,0.645,0.443,0.902,0.624l-0.868,1.301
	l-1.11,1.663l-0.479,0.719c-0.581-0.692-1.378-1.522-2.439-2.431c-2.853-2.441-7.662-5.441-15.463-7.841
	c-1.087-0.334-2.212-0.661-3.418-0.969c-5.591-1.433-11.288-2.441-16.644-3.152c-2.917-0.388-5.729-0.686-8.37-0.917
	c-7.062-0.616-12.881-0.743-16.058-0.759L163.814,50.048L163.814,50.048z M85.969,144.438c0.203-0.158,0.405-0.314,0.61-0.46
	l-0.001-0.003c0.352-0.252,0.708-0.484,1.066-0.703c0.612-0.376,1.232-0.702,1.857-0.982c3.506-1.572,7.182-1.682,10.748-0.658
	c1.728,0.496,3.429,1.257,5.074,2.245c1.205,0.724,2.379,1.569,3.509,2.522c0.224,0.188,0.446,0.379,0.666,0.576
	c4.235,3.791,6.288,6.044,8.664,6.939c2.208,0.831,4.695,0.489,9.475-0.898c-2.48,2.026-4.902,2.96-7.359,3.021
	c-0.635,0.016-1.272-0.023-1.914-0.123c-0.442-0.069-0.887-0.167-1.334-0.289c-1.746-0.478-3.532-1.353-5.387-2.564v0.006
	c0.269,1.384,0.36,2.779,0.361,4.017c0,2.35-0.311,4.126-0.313,4.144l-0.039,0.221l-0.197,0.106
	c-0.613,0.332-1.247,0.486-1.876,0.486h-0.013c-0.144-0.001-0.284-0.029-0.426-0.044c-0.651-0.069-1.289-0.263-1.917-0.56
	c-0.097,0.383-0.214,0.757-0.367,1.114c-0.184,0.43-0.406,0.839-0.662,1.225c-0.126,0.19-0.262,0.373-0.404,0.55
	c-1.393,1.736-3.527,2.851-5.924,2.851c-4.193,0-7.598-3.409-7.598-7.605c0-1.102,0.24-2.147,0.663-3.093
	c-0.262,0.1-0.511,0.201-0.731,0.297c-0.971,0.42-1.51,0.758-1.512,0.758l-0.709,0.442v-0.835c0-2.327,0.602-4.676,2.035-6.638
	c0.144-0.197,0.293-0.392,0.455-0.581c0.184-0.215,0.368-0.431,0.575-0.634c0.099-0.097,0.214-0.184,0.318-0.277
	c0.487-0.439,1.02-0.851,1.626-1.215c1.922-1.155,4.473-1.884,7.718-2.022c-4.455-3.311-8.754-3.456-12.236-2.512
	c-0.743,0.201-1.449,0.449-2.11,0.729c-0.421,0.178-0.827,0.365-1.211,0.561c-0.239,0.122-0.47,0.247-0.693,0.373
	c-2.465,1.387-3.969,2.927-3.969,2.927C83.605,146.5,84.771,145.371,85.969,144.438z"/>
<rect x="9.171" y="244.541" transform="matrix(-0.9775 -0.211 0.211 -0.9775 112.3776 506.4064)" class="st4" width="148.066" height="5.333"/>
</svg>
