<?xml version="1.0" encoding="utf-8"?>
<!-- Generator: Adobe Illustrator 27.6.1, SVG Export Plug-In . SVG Version: 6.00 Build 0)  -->
<svg version="1.1" id="Layer_1" xmlns="http://www.w3.org/2000/svg" xmlns:xlink="http://www.w3.org/1999/xlink" x="0px" y="0px"
	 viewBox="0 0 420.683 389.56" style="enable-background:new 0 0 420.683 389.56;" xml:space="preserve">
<style type="text/css">
	.st0{fill:#FFDD00;}
	.st1{fill:#231F20;}
	.st2{fill:#FFFFFF;stroke:#010101;stroke-width:3;stroke-miterlimit:10;}
	.st3{fill:#FFFFFF;}
</style>
<g>
	<path class="st0" d="M336.008,246.528c1.422-1.951,2.601-2.599,4.006-3.465c0,0,0.301-0.194,0.742-0.45
		c-2.148-0.686-4.445-0.946-6.77-0.712c0.051,2.116,0.124,4.336,0.23,6.667C334.814,248.009,335.406,247.355,336.008,246.528
		L336.008,246.528z"/>
	<path class="st0" d="M343.746,273.417c-2.016-1.201-4.98-3.305-6.486-4.772c-0.665-0.724-1.195-1.307-1.665-1.846
		c0.3,2.818,0.65,5.704,1.057,8.642c1.304-0.078,2.618-0.291,3.923-0.689c1.122-0.343,2.182-0.793,3.172-1.334L343.746,273.417z"/>
	<path class="st0" d="M329.783,251.312c1.632-0.732,3.048-1.45,4.433-2.743c-0.106-2.331-0.18-4.551-0.23-6.667
		c-1.079,0.108-2.165,0.319-3.242,0.648c-4.175,1.274-7.477,4.034-9.543,7.514c3.741,0.995,7.612,1.683,8.583,1.248H329.783z"/>
	<path class="st1" d="M353.95,349.156c0.288-0.947,0.328-1.828,0.218-2.628c-0.395-2.868-2.744-4.686-2.744-4.686l-79.64-79.493
		c-0.059,0.44-0.119,0.885-0.178,1.333c-0.11,0.836-0.217,1.68-0.317,2.528c-0.319,2.697-0.565,5.406-0.563,7.801
		c-0.002,1.206,0.067,2.319,0.207,3.289c0.115,0.8,0.278,1.503,0.496,2.064c0.261,0.696,0.571,1.424,0.903,2.186
		c0.57,1.311,1.205,2.731,1.785,4.289l58.658,59.21l6.61,6.673c0,0,0.92,1.302,2.443,2.413c1.157,0.844,2.662,1.576,4.377,1.547
		c0.738-0.013,1.516-0.17,2.32-0.518l32.584,32.697l0.119,0.183l0.016,0.021l0.136,0.179c0.127,0.157,0.326,0.378,0.565,0.586
		c0.496,0.433,1.085,0.738,1.65,0.729c0.511-0.011,1.268-0.175,2.472-1.358c1.382-1.412,1.64-2.472,1.657-3.38
		c0.03-1.325-0.839-2.583-1.057-2.832l-32.72-32.833L353.95,349.156z"/>
	<path class="st1" d="M110.505,102.027c-0.617,0.484-1.259,0.953-1.919,1.411c-2.192,1.52-4.587,2.898-7.002,4.137
		c-0.293,0.15-0.586,0.303-0.879,0.449c-0.621,0.309-1.239,0.605-1.854,0.895l0.687,0.693l27.883,28.146
		c0.091-0.445,0.186-0.891,0.286-1.337c0.17-0.764,0.351-1.529,0.548-2.296c0.728-2.839,1.646-5.709,2.804-8.628
		c0.264-0.666,0.544-1.336,0.834-2.008c0.078-0.18,0.154-0.36,0.233-0.541l-21.251-21.212c-0.122,0.098-0.247,0.194-0.37,0.29
		L110.505,102.027z"/>
	<path class="st1" d="M253.387,245.4c-0.437,0.513-0.88,1.018-1.332,1.51c-1.861,2.025-3.85,3.874-5.876,5.55
		c-0.523,0.434-1.049,0.854-1.575,1.265c-0.437,0.34-0.874,0.674-1.311,0.998l9.535,9.625c0.225-0.565,0.454-1.126,0.689-1.678
		c0.285-0.666,0.578-1.32,0.877-1.966c1.253-2.704,2.612-5.206,4.002-7.431c0.371-0.595,0.743-1.172,1.117-1.726
		c0.198-0.294,0.396-0.57,0.596-0.852l-6.079-6.068c-0.212,0.261-0.427,0.518-0.643,0.772L253.387,245.4z"/>
	<path class="st1" d="M84.561,110.288c0.45-0.149,1.023-0.342,1.701-0.579c1.775-0.62,4.237-1.529,6.965-2.68
		c0.849-0.355,1.728-0.744,2.615-1.146c4.243-1.922,8.766-4.344,12.166-7.008c0.461-0.361,0.916-0.723,1.331-1.092
		c2.783-2.45,4.294-4.935,4.261-7.065c-0.01-1.498-0.628-3.149-2.615-5.154C95.819,70.417,46.92,21.601,29.856,4.556l0,0
		c-3.298-3.274-6.807-4.54-10.346-4.555h-0.04c-4.76,0-9.681,2.488-13.377,6.317C2.379,10.146-0.014,15.244,0,20.054
		c0.015,3.579,1.236,7.017,4.302,10.097c8.055,8.047,28.335,28.297,46.603,46.536C66.686,92.445,80.966,106.7,84.561,110.288
		L84.561,110.288z"/>
	
		<rect x="156.326" y="38.959" transform="matrix(0.8669 -0.4985 0.4985 0.8669 -10.7206 86.949)" class="st1" width="2.251" height="49.18"/>
	<path class="st1" d="M174.045,83.728c0.66-0.285,1.315-0.573,1.985-0.851l-9.426-38.671l-2.187,0.533l9.51,39.019L174.045,83.728
		L174.045,83.728z"/>
	<path class="st1" d="M179.52,81.082l1.079-0.014c0.386-0.146,0.777-0.289,1.166-0.434l-0.493-39.746l-2.25,0.029L179.52,81.082z"/>
	<path class="st1" d="M134.628,42.586c-0.178-0.727-0.26-1.429-0.26-2.104c0.002-2.689,1.295-5.031,3.257-6.747
		c1.956-1.712,4.572-2.73,6.981-2.724c3.276,0.058,6.129,1.652,7.302,6.234l2.186-0.532l-0.021-0.09
		c-0.209-0.889-0.305-1.733-0.305-2.532c0.002-2.791,1.147-5.072,2.736-6.686c1.583-1.613,3.625-2.49,5.194-2.479
		c1.564,0.062,2.556,0.624,3.046,2.412h0.001v0.001l2.184-0.535v-0.002l0,0c-0.035-0.146-0.054-0.3-0.056-0.466
		c-0.012-0.832,0.523-1.971,1.461-2.845c0.928-0.881,2.19-1.474,3.449-1.47c2.176,0,5.013,1.71,6.767,8.69l0.009,0.038l2.187-0.534
		c-0.218-0.893-0.316-1.728-0.316-2.498c0.031-4.095,2.648-6.417,5.485-6.433c2.73,0.002,6.095,2.203,7.689,8.619l2.187-0.534
		c-1.675-7.002-5.822-10.339-9.876-10.337c-2.067,0-4.025,0.878-5.441,2.412c-0.797,0.858-1.422,1.922-1.816,3.142
		c-1.88-3.358-4.371-4.816-6.873-4.815c-2.913,0.063-5.426,1.861-6.543,4.149c-0.986-0.849-2.26-1.278-3.543-1.244
		c-4.112,0.042-8.921,3.605-9.971,9.228c-1.882-2.161-4.496-3.18-7.121-3.143c-5.998,0.023-12.423,4.814-12.489,11.721
		c0,0.858,0.104,1.741,0.324,2.638L134.628,42.586L134.628,42.586z"/>
	<path class="st2" d="M354.145,327.475 M312.18,234.195l-0.002,0.001l-1.32,0.779l-1.32,0.78c0,0.175-0.002,0.345-0.002,0.524
		c0.023,20.276,4.144,71.361,45.152,94.547l1.833,1.033l0.122-2.102l7.247-126.107l-1.359,0.802l-1.361,0.805"/>
	<path class="st1" d="M367.102,203.715l-3.496-6.356l-90.871,56.773c-0.071,1.516-0.313,3.486-0.607,5.683l37.432-22.11l1.333-0.787
		l1.333-0.787l21.908-12.94l27.157-16.042l1.362-0.804l1.358-0.803L367.102,203.715L367.102,203.715z"/>
	<path class="st1" d="M322.578,109.274c-0.425-0.196-0.852-0.397-1.281-0.603c-2.049-0.982-4.133-2.076-6.131-3.269
		c-1.525-0.911-2.997-1.879-4.362-2.902c-0.126-0.095-0.253-0.189-0.378-0.285l-17.757,17.725c-0.035,0.289-0.069,0.574-0.104,0.863
		c-0.13,1.073-0.26,2.152-0.391,3.236c-0.513,4.277-1.025,8.627-1.521,12.967c-0.068,0.6-0.138,1.2-0.205,1.799
		c-0.054,0.474-0.106,0.945-0.159,1.417c-0.07,0.62-0.141,1.24-0.209,1.859l32.164-32.468l0.335-0.338L322.578,109.274z"/>
	<path class="st1" d="M117.751,310.508c-0.554-3.287-0.973-6.687-1.265-10.177c-0.074-0.877-0.142-1.758-0.2-2.644
		c-0.035-0.529-0.061-1.065-0.091-1.599l-45.839,45.755c0,0-2.348,1.817-2.744,4.685c-0.11,0.8-0.07,1.681,0.218,2.627
		l-32.702,32.814l0,0l-0.113,0.144c-0.103,0.137-0.25,0.355-0.399,0.626c-0.296,0.549-0.57,1.293-0.565,2.083
		c0.019,0.912,0.273,1.968,1.656,3.378c1.207,1.185,1.963,1.35,2.474,1.36c0.532,0.006,1.074-0.257,1.556-0.651
		c0.473-0.383,0.803-0.846,0.82-0.877l0,0l0.108-0.17l32.585-32.698c0.806,0.348,1.583,0.506,2.322,0.519
		c1.711,0.029,3.213-0.699,4.369-1.541c1.529-1.112,2.453-2.419,2.453-2.419l7.03-7.097l29.219-29.494
		c-0.16-0.73-0.311-1.469-0.456-2.213C118.033,312.123,117.887,311.319,117.751,310.508L117.751,310.508z"/>
	<path class="st1" d="M328.788,365.946c-0.33-0.31-0.91-0.68-1.65-1.09c-1.47-0.82-3.51-1.78-5.35-3.38
		c-0.97-0.85-2.66-2.69-4.82-5.19s-4.78-5.64-7.6-9.08c-5.12-6.25-10.81-13.41-15.2-19.1l-0.15,0.38l-1.25-1.71
		c-0.06-0.07-0.15-0.18-0.24-0.31c-6.63-8.67-15.16-14.72-18.98-17.18c-1.27-0.81-2-1.22-2.01-1.22l-0.91-0.52l0.41-0.97
		c1.9-4.4,2.57-8.08,2.57-11.26c0.01-5.45-1.99-9.51-3.6-13.25c-0.09-0.22-0.18-0.44-0.27-0.65c-0.17-0.41-0.34-0.82-0.5-1.22
		c-0.26-0.71-0.44-1.49-0.57-2.33c-0.16-0.96-0.24-2-0.26-3.1c-0.01-0.25-0.02-0.5-0.02-0.75c0-3.08,0.38-6.59,0.8-9.91
		c0.03-0.19,0.05-0.37,0.07-0.56c0.05-0.37,0.1-0.74,0.15-1.1c0.04-0.29,0.08-0.57,0.11-0.85l0.04-0.26
		c0.05-0.36,0.1-0.72,0.14-1.06c0.06-0.41,0.11-0.8,0.16-1.19c0.17-1.26,0.32-2.41,0.42-3.42c0.04-0.39,0.07-0.75,0.09-1.09
		c0.03-0.39,0.04-0.75,0.05-1.07v-0.46c-0.01-0.13-0.01-0.26-0.01-0.4c-0.01-2.64,0.99-4.62,1.89-6.09
		c0.95-1.45,1.63-2.54,1.55-2.87v-0.05l-0.01-0.05c-0.04-0.02-0.18-0.08-0.45-0.07c-1.02-0.03-3.24,0.76-5.62,2.29
		c-1.43,0.89-3.36,2.93-5.4,5.76c-0.19,0.27-0.38,0.54-0.57,0.82s-0.39,0.57-0.59,0.87c-0.37,0.55-0.73,1.13-1.1,1.73
		c-1.36,2.22-2.7,4.72-3.92,7.41l-0.03,0.07c-0.21,0.45-0.41,0.9-0.6,1.36c-0.09,0.21-0.17,0.42-0.26,0.63
		c-0.11,0.26-0.21,0.51-0.32,0.77l-0.36,0.93c-0.04,0.11-0.08,0.23-0.12,0.34c-0.41,1.09-0.8,2.18-1.14,3.3
		c-0.15,0.47-0.3,0.92-0.45,1.37c-0.14,0.43-0.28,0.86-0.42,1.27c-0.15,0.43-0.3,0.86-0.45,1.28c-3.6,10.1-7.87,16.51-14.18,22.3
		c-3.61,3.33-7.2,4.87-11.14,5.53c-3.92,0.67-8.18,0.53-13.46,0.66c-0.08,0-0.31,0.02-0.65,0.02c-1.14,0.01-3.68-0.17-6.35-1.47
		c-0.3-0.14-0.6-0.3-0.91-0.48c-0.28-0.16-0.56-0.33-0.83-0.52c-0.9-0.61-1.77-1.39-2.58-2.33c-0.19-0.22-0.38-0.45-0.56-0.69
		c-0.18-0.23-0.36-0.46-0.52-0.72c-0.55-0.83-1.05-1.76-1.49-2.82c-0.23-0.59-0.36-1.18-0.36-1.77c0.04-2.22,1.66-3.66,3.56-4.99
		c1.94-1.34,4.44-2.67,7.03-4.4c5.16-3.49,10.61-8.42,12.51-17.88l0.13-0.65l0.63-0.22c0-0.01,0.24-0.09,0.64-0.25
		c-1.18,3.35-2.56,7.03-3.4,9.89c-0.37,1.28-0.64,2.39-0.73,3.23c-0.02,0.2-0.04,0.4-0.04,0.57c0,3.62-2.85,7.8-0.96,9.3
		c0.1,0.07,0.2,0.15,0.32,0.21c0.19,0.1,0.46,0.14,0.77,0.14c0.64,0,1.5-0.19,2.51-0.53l-7.47,4.66l-0.47-0.74l0.42,0.77
		l-10.42,5.74c0.87,0.93,1.81,1.62,2.75,2.13l43.02-25.41c0.44-1.24,0.88-2.53,1.31-3.9c0.2-0.62,0.41-1.24,0.63-1.85l-17.52,10.95
		c0.8-0.77,1.53-1.57,2.16-2.39c0.45-0.58,0.84-1.18,1.17-1.77c0.33-0.58,0.6-1.16,0.8-1.75c1.74-5.23,1.99-10.17,0.31-14.39
		c-0.14-0.37-0.3-0.73-0.48-1.09c-0.17-0.34-0.36-0.69-0.56-1.03c1.22-0.77,2.45-1.61,3.68-2.51c0.11-0.08,0.21-0.15,0.32-0.23
		l0.22-0.15c0.36-0.27,0.72-0.56,1.09-0.84c0.52-0.41,1.05-0.83,1.57-1.26c2.05-1.68,4.04-3.52,5.89-5.54
		c0.45-0.49,0.9-0.99,1.33-1.51c0.22-0.25,0.42-0.52,0.63-0.78s0.43-0.53,0.64-0.8c2.6-3.38,4.74-7.18,6.1-11.4
		c0.06-0.18,0.11-0.37,0.17-0.56c-5.85-0.58-11.83-0.34-17.86,0.33c-0.45,0.05-0.9,0.11-1.35,0.16c-0.39,0.05-0.79,0.09-1.19,0.15
		c-0.83,0.1-1.66,0.22-2.49,0.34c-3.26,0.48-6.52,1.04-9.78,1.64c-0.8,0.14-1.59,0.29-2.39,0.44c-0.62,0.12-1.23,0.23-1.84,0.34
		c-0.18,0.04-0.37,0.07-0.55,0.11c-4.01,0.75-8.01,1.51-11.97,2.15c-4.67,0.86-9.39,1.57-14.12,2.1c-0.24,0.03-0.47,0.05-0.71,0.08
		c-0.82,0.09-1.63,0.17-2.45,0.25c-1.03,0.09-2.07,0.18-3.1,0.26c-3.92,0.28-7.85,0.42-11.78,0.38c-0.93-0.01-1.85-0.04-2.78-0.07
		c-0.44-0.01-0.89-0.02-1.33-0.04c-0.46-0.02-0.92-0.05-1.39-0.08c-5.25-0.29-10.5-0.92-15.73-1.99c-0.11-0.03-0.21-0.06-0.32-0.09
		c-5.76-1.57-11.66-4-16.14-8.1c-1.24-1.14-2.38-2.39-3.37-3.8c-3.15-4.41-4.01-9.66-3.62-14.81c0.03-0.39,0.06-0.78,0.1-1.16
		c0.04-0.37,0.09-0.73,0.14-1.1l0.01-0.07c0.26-1.77,0.64-3.52,1.12-5.2c-0.39,1.71-0.65,3.47-0.79,5.24
		c-0.04,0.38-0.06,0.77-0.08,1.16c-0.01,0.39-0.03,0.79-0.03,1.18c-0.04,5.3,1.27,10.52,4.76,14.47c2.52,2.96,5.76,5.07,9.31,6.62
		c3.49,1.51,7.28,2.48,11,3.16c5.4,0.98,10.89,1.52,16.43,1.7c0.48,0.02,0.96,0.02,1.44,0.04c0.44,0,0.89,0.02,1.33,0.03
		c0.95,0.01,1.89,0,2.84-0.01c4.01-0.04,8.03-0.26,12.04-0.63c1.05-0.1,2.11-0.21,3.16-0.33c0.83-0.09,1.66-0.19,2.48-0.29
		c0.25-0.03,0.5-0.07,0.75-0.1c3.71-0.49,7.4-1.09,11.05-1.8c3.1-0.48,6.19-1.05,9.28-1.63c0.19-0.03,0.38-0.07,0.57-0.1
		c0.6-0.12,1.21-0.23,1.82-0.35c0.79-0.15,1.59-0.3,2.39-0.45c3.22-0.6,6.45-1.19,9.69-1.71c0.82-0.13,1.64-0.26,2.46-0.38
		c0.39-0.06,0.78-0.11,1.17-0.16c0.44-0.06,0.89-0.12,1.33-0.18c4.37-0.56,8.79-0.92,13.26-0.92c0.65,0,1.29,0.02,1.94,0.03
		c1.99,0.05,3.82,0.11,5.83,0.32c0.1,0.03,0.16,0,0.29,0.02c0.36,0.01,0.72,0.03,1.07,0.05l0.09,0.01c0.4,0.03,0.79,0.05,1.18,0.08
		c14.39,0.94,22.23-1.88,25.64-7.56c3.51-5.85-8.2-7.02-24.58-8.19c-10.29-0.73-24.29,1.31-38.2,2.63
		c-0.49,0.05-0.97,0.09-1.45,0.13c-0.39,0.04-0.77,0.07-1.16,0.1c-0.87,0.08-1.74,0.15-2.62,0.22c-0.46,0.04-0.93,0.07-1.39,0.11
		c-0.27,0.02-0.55,0.04-0.82,0.06c-0.74,0.05-1.48,0.09-2.21,0.14c-0.48,0.02-0.97,0.05-1.45,0.08c-0.51,0.02-1.03,0.05-1.54,0.07
		c-1.15,0.05-2.3,0.09-3.43,0.11c-0.95,0.02-1.89,0.01-2.83,0c-0.71,0-1.41-0.02-2.11-0.04c-0.27,0-0.53-0.01-0.79-0.02
		c-0.32-0.02-0.63-0.02-0.94-0.04c-0.35-0.02-0.71-0.02-1.06-0.04l-0.21-0.01c-0.92-0.06-1.79-0.13-2.62-0.21
		c-0.39-0.04-0.77-0.08-1.14-0.13c-0.48-0.05-0.95-0.11-1.4-0.18c-0.18-0.03-0.35-0.05-0.53-0.08c-2.76-0.44-4.82-1.04-6.26-1.76
		c-2.85-1.43-3.27-3.3-1.86-5.24c1.09,0.88,2.41,1.75,4.14,1.88c0.12,0.01,0.24,0.03,0.37,0.03c0.74,0,1.51-0.15,2.32-0.47
		c0.09,0.07,0.19,0.15,0.3,0.22c0.71,0.48,1.84,0.97,3.47,0.96c0.34,0,0.71-0.03,1.09-0.07c0.24-0.03,0.48-0.07,0.73-0.11
		c0.54-0.11,1.11-0.25,1.72-0.45l0.06-0.02c0.09,0.07,0.21,0.14,0.33,0.21c0.3,0.19,0.68,0.39,1.12,0.57
		c0.29,0.12,0.62,0.24,0.97,0.33c0.54,0.15,1.13,0.25,1.78,0.26h0.05l0.18-0.01c0.28-0.01,0.57-0.04,0.87-0.1
		c0.94-0.18,1.92-0.61,2.82-1.37c0.93,0.41,2.62,1.04,4.44,1.06c0.94,0,1.97-0.22,2.86-0.77c0.13-0.08,0.27-0.15,0.4-0.25
		c0.53,0.27,1.32,0.62,2.26,0.85c0.39,0.1,0.82,0.17,1.27,0.22c0.23,0.02,0.47,0.04,0.72,0.04c0.2,0,0.4-0.02,0.6-0.04l0.24-0.02
		c0.39-0.05,0.79-0.14,1.18-0.27c0.6-0.19,1.19-0.48,1.74-0.89c0.11,0.04,0.26,0.08,0.39,0.12c0.2,0.06,0.42,0.11,0.67,0.18
		c0.76,0.18,1.71,0.35,2.75,0.35c1.24,0,2.64-0.24,3.85-1.04c0.54,0.22,1.37,0.51,2.37,0.7c0.52,0.1,1.1,0.17,1.7,0.19l0.26,0.01
		c0.86,0,1.78-0.14,2.68-0.47c0.2-0.08,0.4-0.15,0.59-0.25l0.06-0.02l0.04,0.02l0.24,0.09c0.96,0.37,2.64,0.91,4.48,0.92
		c1.11,0,2.31-0.21,3.37-0.87c0.87,0.19,2.78,0.55,4.85,0.56c1.26-0.01,2.6-0.14,3.82-0.58c0.63,0.18,1.94,0.48,3.39,0.49
		c0.86-0.01,1.8-0.12,2.68-0.5c0.73,0.13,2.36,0.4,3.97,0.41c0.95-0.01,1.89-0.08,2.74-0.45l4.59,0.19l0.1-1.94l-5.2-0.22
		l-0.27,0.15c-0.26,0.17-1.07,0.33-1.96,0.32c-0.9,0-1.88-0.11-2.62-0.22c-0.75-0.11-1.27-0.22-1.27-0.22l-0.41-0.08l-0.36,0.2
		c-0.1,0.05-0.21,0.1-0.32,0.14c-0.1,0.04-0.21,0.07-0.32,0.1c-0.41,0.11-0.87,0.17-1.35,0.17c-0.44,0-0.88-0.05-1.29-0.1
		c-0.31-0.05-0.61-0.1-0.86-0.15c-0.59-0.13-0.94-0.25-0.95-0.25l-0.4-0.13l-0.39,0.17c-0.89,0.39-2.1,0.55-3.32,0.55
		s-2.41-0.15-3.3-0.31c-0.9-0.15-1.5-0.3-1.5-0.3l-0.53-0.13l-0.43,0.33c-0.66,0.52-1.51,0.72-2.46,0.72
		c-1.04,0.01-2.15-0.25-2.98-0.52c-0.42-0.14-0.76-0.27-1-0.37c-0.23-0.1-0.36-0.16-0.36-0.16l-0.55-0.26l-0.51,0.32
		c-0.83,0.51-1.75,0.7-2.69,0.7c-1.02,0-2.04-0.24-2.78-0.48c-0.73-0.24-1.16-0.47-1.18-0.47l-0.66-0.34l-0.56,0.48
		c-0.82,0.7-1.88,0.95-3,0.95c-0.33,0-0.66-0.03-0.97-0.06c-0.26-0.03-0.51-0.07-0.75-0.12c-0.29-0.05-0.56-0.12-0.8-0.18
		c-0.41-0.11-0.7-0.21-0.88-0.28c-0.11-0.04-0.18-0.07-0.2-0.07l-0.66-0.28l-0.51,0.47c-0.83,0.76-1.67,1.02-2.54,1.07l-0.26,0.02
		l-0.17-0.01c-0.55-0.02-1.09-0.13-1.59-0.27c-0.32-0.1-0.63-0.2-0.9-0.32c-0.36-0.15-0.66-0.31-0.86-0.42s-0.29-0.17-0.29-0.17
		l-0.81-0.54l-0.62,0.73c-0.28,0.32-0.59,0.53-0.93,0.67c-0.39,0.16-0.83,0.23-1.34,0.24c-0.93,0-2-0.28-2.8-0.57
		c-0.42-0.16-0.75-0.31-0.98-0.41c-0.21-0.1-0.34-0.17-0.34-0.17l-0.74-0.4l-0.57,0.59c-1.05,1.09-2,1.36-2.9,1.38h-0.03
		c-0.38,0-0.76-0.06-1.12-0.16c-0.45-0.12-0.87-0.29-1.22-0.47h-0.01c-0.17-0.09-0.32-0.18-0.46-0.26c-0.1-0.07-0.2-0.13-0.27-0.18
		c-0.18-0.12-0.24-0.18-0.24-0.18l-0.49-0.4l-0.6,0.22c-0.56,0.21-1.06,0.35-1.53,0.46c-0.72,0.17-1.35,0.25-1.86,0.25h-0.06
		c-0.38-0.01-0.7-0.05-0.98-0.11c-0.49-0.1-0.86-0.26-1.11-0.42c-0.2-0.12-0.33-0.24-0.41-0.32l-0.08-0.09l-0.2-0.3l-0.31-0.47
		l-0.86,0.43c-0.23,0.11-0.44,0.2-0.64,0.28c-0.56,0.21-1.03,0.29-1.44,0.29c-1.02,0.02-2.11-0.55-3.17-1.38
		c0.88-0.76,2.02-1.52,3.37-2.24c0.18-0.1,0.36-0.19,0.55-0.29c0.43-0.22,0.89-0.43,1.36-0.64c0.5-0.23,1.01-0.45,1.55-0.67
		c0.14-0.06,0.3-0.11,0.46-0.16c2.23-0.78,5.73-1.2,10.05-1.36c0.89-0.04,1.81-0.06,2.77-0.07c0.36-0.01,0.73-0.01,1.1-0.01h0.07
		c0.52-0.01,1.05-0.01,1.59,0h1.17c0.91,0.01,1.84,0.03,2.79,0.05c3.46,0.09,7.15,0.25,10.94,0.47c0.89,0.05,1.78,0.1,2.68,0.16
		c0.62,0.04,1.24,0.08,1.87,0.12c0.26,0.02,0.52,0.04,0.79,0.06c17.13,1.16,34.81,3.08,40.94,3.08c11.7,0,14.03-2.34,10.53-10.53
		c-1.78-4.14-0.26-23.97,2.13-46.34c0.05-0.44,0.09-0.88,0.14-1.31c0.07-0.63,0.14-1.26,0.21-1.88c0.11-1.07,0.23-2.14,0.35-3.21
		c0.48-4.29,0.98-8.63,1.49-12.93c0.12-1.08,0.25-2.16,0.38-3.23c0.04-0.3,0.07-0.59,0.11-0.89c0.09-0.79,0.18-1.57,0.28-2.35
		c0.39-3.2,0.77-6.36,1.15-9.42c-1.16-0.26-2.42-0.64-3.79-1.13c-0.29-0.11-0.58-0.21-0.88-0.32
		c-21.22-8.15-29.06-29.17-31.02-35.55c0.54,0.08,1.09,0.16,1.64,0.24c0.55,0.08,1.11,0.17,1.66,0.26c0.13,0.36,0.26,0.75,0.41,1.16
		c0.96,2.62,2.48,6.22,4.74,10.1c4.52,7.75,11.95,16.55,23.64,20.99l0.18,0.07c1.42,0.53,2.67,0.92,3.79,1.18
		c1.37,0.33,2.52,0.48,3.44,0.48c0.15,0,0.29-0.01,0.43-0.02c1.58-0.08,2.37-0.55,2.89-1.16c0.57-0.68,0.9-1.82,0.9-3.32
		c0.02-2.65-1.02-6.1-2.13-8.97c-0.63-1.66-1.29-3.13-1.78-4.12c-0.27-0.55-0.47-0.96-0.6-1.2c-0.27-0.23-0.54-0.45-0.81-0.68
		l-0.11-0.09l0.15-0.23l0.69-1.02l0.83-1.26l2.64-3.95l1.04-1.56l-0.57-0.46c5.72-14.74,42.36-32.29,15.75-45.1
		c-17.25-8.31-57.03,2.22-69.5,4.8c-11.02,2.27-19.28,6.28-25.27,11.68c-6.83,6.17-5.07,16.81,2.7,14.95
		c2.15-0.51,4.35-0.89,6.57-1.16l-1.33,2.36l-2.44,4.3l0.11-0.01c-31.77,5.04-65.23,17.12-78.27,34.5
		c-4.27,5.69-7.35,10.99-9.61,16.1c-0.22,0.48-0.43,0.96-0.63,1.43c-0.08,0.19-0.15,0.37-0.22,0.56c-0.28,0.69-0.56,1.37-0.81,2.04
		c-1.1,3-1.93,5.94-2.57,8.86c-0.18,0.79-0.34,1.58-0.49,2.36c-0.08,0.47-0.16,0.94-0.24,1.4c-0.06,0.34-0.12,0.69-0.17,1.03
		c-2.71,17.52,0.21,35.24-6.32,61.38c-1.33,5.31-1.33,9.82-0.31,13.64c0.21,0.77,0.46,1.49,0.74,2.2c0.25,0.62,0.52,1.23,0.82,1.81
		c-0.34,1.69-0.69,3.51-1.05,5.45c-0.46,2.44-0.93,5.06-1.4,7.82c-0.4,0.17-0.83,0.34-1.27,0.51c-0.41,0.16-0.83,0.32-1.26,0.49
		c-3.76,1.43-8.44,3.06-13.27,5.01l2.96-24.23c0.41-0.68,0.65-1.42,0.65-2.22c-0.01-1.6-0.95-2.96-2.3-4.04
		c-4.07-3.22-12.63-5.18-22.69-5.21c-6.7,0-12.76,0.91-17.24,2.44c-2.24,0.76-4.09,1.67-5.45,2.77c-1.04,0.83-1.83,1.83-2.15,2.97
		h-0.13l0.04,0.4c-0.03,0.22-0.06,0.44-0.06,0.67c0,0.56,0.12,1.09,0.33,1.59l8.41,70.13h-0.02c0.01,1.18,0.7,2.13,1.6,2.85
		c2.71,2.11,8.1,3.3,14.46,3.33c4.22,0,8.05-0.57,10.91-1.54c1.43-0.49,2.63-1.07,3.54-1.79c0.75-0.6,1.36-1.38,1.54-2.3l0.17,0.02
		l2.07-16.69c4.29,0.84,8.79,1.16,12.59-0.27c0.41-0.16,0.81-0.33,1.2-0.53c0.43-0.21,0.83-0.45,1.23-0.72
		c-0.43,5.89-0.69,11.86-0.68,17.75c-0.01,2.31,0.04,4.61,0.12,6.88c0.02,0.38,0.03,0.75,0.05,1.13c0.02,0.53,0.05,1.07,0.07,1.6
		c0.05,0.9,0.11,1.79,0.17,2.68c0.25,3.54,0.61,6.99,1.12,10.32c0.13,0.82,0.26,1.63,0.4,2.44c0.14,0.75,0.28,1.5,0.43,2.23
		l0.03,0.16c1.08,5.34,2.58,10.27,4.57,14.57c5.15,11.04,13.23,17.92,26.31,17.96c1,0,2.02-0.04,3.08-0.12
		c18.87-1.49,27.72-3.43,34.04-5.65c6.3-2.21,10.31-4.84,19.3-7.66l0.06-0.02l0.05-0.01c13.61-2.84,24.7-6.39,32.12-6.41
		c0.94,0,1.83,0.06,2.66,0.19c9.14,1.49,11.75,10.54,14.59,13.33c7.74,8.14,14.17,10.75,24.4,16.55
		c8.45,4.82,28.57,11.92,35.14,12.94c0.72,0.11,1.22,0.14,1.65,0.15h0.12c1.13,0.13,2.17,0.19,3.11,0.19c2.54,0,4.44-0.42,5.64-1
		c1.22-0.59,1.63-1.25,1.66-1.64l0.01-0.09C329.148,366.406,329.118,366.276,328.788,365.946L328.788,365.946z M284.328,71.596
		c0.35-1.81,1.56-4.32,3.57-6.61c2.59-3.07,5.82-4.81,7.46-4.81l0.09,0.01c0.52,0,0.78,0.12,0.97,0.28c0.23,0.2,0.45,0.59,0.46,1.42
		c0.03,1.77-1.26,4.89-3.69,7.67c-1.54,1.82-3.3,3.16-4.82,3.96c-1.09,0.57-2.06,0.87-2.73,0.84c-0.52,0-0.79-0.12-0.97-0.28
		c-0.24-0.2-0.45-0.6-0.46-1.43C284.198,72.336,284.248,71.976,284.328,71.596L284.328,71.596z M229.668,69.076l1.07-1.89
		c1.71,0.03,5.78,0.14,10.97,0.5c0.39,0.02,0.82,0.06,1.22,0.09c4.16,0.31,8.91,0.78,13.68,1.49c2.93,0.44,5.87,0.97,8.66,1.61
		c1.75,0.4,4.41,0.85,6.04,1.33c6.72,2,9.76,3.25,13.88,5.49c1.1,0.6,3.99,2.26,4.82,2.87c0.73,0.53,1.19,0.9,1.76,1.34
		c0.28,0.21,0.62,0.5,0.87,0.67c0.34,0.23,0.64,0.44,0.9,0.62l-0.87,1.3l-1.11,1.67l-0.48,0.72c-0.58-0.7-1.38-1.53-2.44-2.43
		c-2.85-2.45-7.66-5.45-15.46-7.85c-1.09-0.33-2.21-0.66-3.42-0.96c-5.59-1.44-11.29-2.45-16.64-3.16
		c-2.92-0.38-5.73-0.68-8.37-0.91c-7.07-0.62-12.88-0.75-16.06-0.76L229.668,69.076L229.668,69.076z M63.158,214.026
		c0-0.32,0.1-0.68,0.33-1.07c0.23-0.38,0.6-0.79,1.13-1.22c3.15-2.59,11.44-4.71,21.06-4.71h0.22c6.48-0.01,12.35,0.9,16.51,2.32
		c2.08,0.7,3.72,1.54,4.77,2.39c0.53,0.43,0.89,0.84,1.13,1.22c0.23,0.39,0.33,0.75,0.33,1.07c0,0.41-0.16,0.88-0.56,1.4
		c-0.22,0.28-0.52,0.58-0.9,0.88c-3.17,2.62-11.57,4.75-21.28,4.72c-6.48,0-12.36-0.9-16.51-2.32c-2.08-0.71-3.72-1.54-4.77-2.4
		c-0.48-0.38-0.82-0.75-1.06-1.1C63.278,214.776,63.158,214.376,63.158,214.026z M101.718,269.096l-2.06,16.65h-0.17
		c0,0.22-0.14,0.59-0.76,1.09c-1.82,1.52-7.04,2.88-13.04,2.84c-4.02,0.01-7.66-0.55-10.2-1.42c-1.27-0.43-2.26-0.94-2.86-1.42
		c-0.41-0.34-0.6-0.61-0.68-0.83l-0.03-0.26l-8.06-67.21c4.29,2.93,12.49,4.71,22.04,4.74c6.69-0.01,12.76-0.92,17.24-2.44
		c1.78-0.61,3.3-1.31,4.54-2.12l-2.69,21.98L101.718,269.096L101.718,269.096z"/>
	<path class="st1" d="M309.7,85.564c-1.988,2.005-2.604,3.655-2.615,5.153c-0.006,1.612,0.798,3.376,2.419,5.229
		c1.005,1.151,2.303,2.3,3.787,3.409c0.892,0.666,1.851,1.316,2.853,1.944c2.973,1.868,6.317,3.528,9.46,4.92
		c2.51,1.112,4.895,2.058,6.835,2.773c1.566,0.58,2.842,1.016,3.688,1.295C339.72,106.7,354,92.444,369.782,76.685
		c18.267-18.238,38.549-38.49,46.601-46.536c3.063-3.079,4.283-6.516,4.298-10.095c0.013-4.813-2.38-9.909-6.092-13.737
		c-3.703-3.839-8.642-6.33-13.412-6.317c-3.539,0.015-7.048,1.283-10.346,4.555h0.001C373.767,21.602,324.868,70.417,309.7,85.564z"
		/>
	<polygon class="st1" points="281.508,205.323 281.508,207.867 281.508,209.714 281.508,211.948 289.861,212.772 312.511,215.008 
		312.511,202.26 287.013,204.779 	"/>
	<polygon class="st1" points="313.349,215.274 313.682,215.274 314.521,215.274 314.521,202.325 313.682,202.325 313.349,202.325 	
		"/>
	<rect x="315.173" y="202.325" class="st1" width="1.17" height="12.947"/>
	<rect x="317.002" y="202.324" class="st1" width="1.171" height="12.951"/>
	<path class="st0" d="M103.442,229.414c-0.171-0.253-0.403-0.521-0.752-0.812c-0.807-0.672-2.092-1.349-3.728-1.919
		c-3.272-1.148-7.927-1.888-13.066-1.886h-0.2c-7.61,0-14.177,1.745-16.59,3.805c-0.349,0.291-0.581,0.56-0.752,0.812
		c-0.129,0.19-0.229,0.372-0.278,0.538c-0.039,0.131-0.057,0.255-0.056,0.37l0.024,0.165c0.055,0.429,0.335,0.95,1.061,1.558
		c0.804,0.671,2.092,1.35,3.726,1.919c3.272,1.149,7.925,1.89,13.064,1.888c7.696,0.031,14.358-1.728,16.794-3.807
		c0.726-0.606,1.006-1.128,1.061-1.556l0.024-0.167c0-0.115-0.017-0.239-0.056-0.37c-0.049-0.166-0.149-0.348-0.278-0.538
		L103.442,229.414z"/>
	<path class="st0" d="M86.372,248.192c-0.641,0-1.16,0.52-1.162,1.164c0.002,0.643,0.521,1.163,1.162,1.163
		c0.645,0,1.166-0.52,1.166-1.163S87.017,248.192,86.372,248.192z"/>
	<path class="st0" d="M102.349,238.37c-0.938,0.609-2.073,1.137-3.384,1.594c-3.412,1.181-8.004,1.885-13.074,1.889
		c-7.198-0.027-13.374-1.367-16.694-3.646l4.916,44.228h0.114c-0.057,0.167-0.095,0.337-0.095,0.51l0.004,0.029
		c0.004,0.183,0.048,0.361,0.115,0.537c0.322,0.855,1.358,1.626,2.887,2.234c2.113,0.841,5.152,1.372,8.543,1.372
		s6.433-0.531,8.546-1.372c1.53-0.608,2.565-1.38,2.887-2.234c0.066-0.176,0.111-0.354,0.115-0.537l0.004-0.029
		c0-0.173-0.038-0.343-0.095-0.51h0.314l4.897-44.064L102.349,238.37z M95.355,262.196c-0.199,3.287-2.018,4.81-3.754,5.48
		c-1.629,0.69-2.937,1.022-3.665,2.151l-1.533,3.757l-1.538-3.763c-0.728-1.121-2.027-1.455-3.647-2.141
		c-1.74-0.669-3.568-2.188-3.768-5.484l-1.653,0.962l2.494-6.112l2.499,6.112l-1.57-0.912c0.241,2.604,1.249,3.116,2.696,3.823
		c0.913,0.406,2.106,0.749,3.141,1.486v-11.784h-2.601v0.672h-1.755V253.7h1.755v0.316h2.601v-2.07
		c-0.946-0.482-1.6-1.456-1.6-2.591c0-1.612,1.304-2.918,2.916-2.921c1.614,0,2.92,1.309,2.92,2.921
		c0,1.136-0.655,2.109-1.603,2.592v2.069h2.552V253.7h1.755v2.743h-1.755v-0.672H87.69v11.823c1.052-0.77,2.28-1.113,3.213-1.53
		c1.438-0.705,2.443-1.22,2.684-3.817l-1.569,0.911l2.499-6.112l2.495,6.112l-1.655-0.963L95.355,262.196z"/>
	<path class="st1" d="M95.355,262.196c-0.199,3.287-2.018,4.81-3.754,5.48c-1.629,0.69-2.937,1.022-3.665,2.151l-1.533,3.757
		l-1.538-3.763c-0.728-1.121-2.027-1.455-3.647-2.141c-1.74-0.669-3.568-2.188-3.768-5.484l-1.653,0.962l2.494-6.112l2.499,6.112
		l-1.57-0.912c0.241,2.604,1.249,3.116,2.696,3.823c0.913,0.406,2.106,0.749,3.141,1.486v-11.784h-2.601v0.672h-1.755V253.7h1.755
		v0.316h2.601v-2.07c-0.946-0.482-1.6-1.456-1.6-2.591c0-1.612,1.304-2.918,2.916-2.921c1.614,0,2.92,1.309,2.92,2.921
		c0,1.136-0.655,2.109-1.603,2.592v2.069h2.552V253.7h1.755v2.743h-1.755v-0.672H87.69v11.823c1.052-0.77,2.28-1.113,3.213-1.53
		c1.438-0.705,2.443-1.22,2.684-3.817l-1.569,0.911l2.499-6.112l2.495,6.112l-1.655-0.963L95.355,262.196z M86.372,248.192
		c-0.641,0-1.16,0.52-1.162,1.164c0.002,0.643,0.521,1.163,1.162,1.163c0.645,0,1.166-0.52,1.166-1.163
		S87.017,248.192,86.372,248.192z"/>
	<path class="st0" d="M284.325,71.595c0.35-1.805,1.562-4.32,3.568-6.612c2.592-3.063,5.828-4.804,7.467-4.804h0.09
		c0.514,0.008,0.779,0.125,0.973,0.287c0.229,0.197,0.445,0.594,0.453,1.422c0.034,1.763-1.26,4.887-3.685,7.671
		c-1.543,1.82-3.303,3.156-4.826,3.953c-1.087,0.569-2.058,0.872-2.727,0.845c-0.515-0.004-0.785-0.124-0.969-0.28
		c-0.236-0.204-0.453-0.601-0.461-1.428C284.202,72.34,284.251,71.978,284.325,71.595L284.325,71.595z"/>
	<path class="st0" d="M229.668,69.08l1.07-1.892c1.709,0.03,5.778,0.136,10.97,0.495c0.394,0.027,0.815,0.061,1.222,0.092
		c4.159,0.31,8.907,0.78,13.675,1.493c2.935,0.438,5.869,0.965,8.661,1.604c1.749,0.4,4.417,0.858,6.038,1.339
		c6.727,1.996,9.767,3.245,13.882,5.488c1.102,0.6,3.994,2.255,4.827,2.864c0.725,0.53,1.183,0.902,1.757,1.338
		c0.278,0.211,0.616,0.505,0.865,0.673c0.346,0.234,0.645,0.443,0.902,0.624l-0.868,1.301l-1.11,1.663l-0.479,0.719
		c-0.581-0.692-1.378-1.522-2.439-2.431c-2.853-2.441-7.662-5.441-15.463-7.841c-1.087-0.334-2.212-0.661-3.418-0.969
		c-5.591-1.433-11.288-2.441-16.644-3.152c-2.917-0.388-5.729-0.686-8.37-0.917c-7.062-0.616-12.881-0.743-16.058-0.759l0.981-1.733
		L229.668,69.08z"/>
	<path class="st0" d="M289.635,112.625c-1.154-0.262-2.417-0.642-3.791-1.133c-0.288-0.103-0.574-0.204-0.873-0.317
		c-21.218-8.147-29.065-29.167-31.025-35.55c0.544,0.077,1.092,0.156,1.642,0.239c0.552,0.083,1.106,0.169,1.664,0.259
		c0.123,0.363,0.258,0.748,0.409,1.163c0.954,2.622,2.477,6.223,4.738,10.096c4.523,7.757,11.954,16.549,23.639,20.992l0.183,0.066
		c1.415,0.533,2.673,0.92,3.784,1.187l-0.369,2.997L289.635,112.625z"/>
</g>
<circle class="st3" cx="166.008" cy="179.01" r="7.526"/>
<path class="st1" d="M169.932,178.153c-0.465-0.73-1.146-1.306-1.958-1.633c-0.111-0.045-0.229-0.072-0.345-0.107
	c-0.385-0.118-0.786-0.2-1.21-0.2l-0.072,0.007c0.247,0.255,0.405,0.592,0.441,0.967l0.016,0.157c0,0.246-0.06,0.477-0.16,0.687
	c-0.259,0.544-0.811,0.924-1.451,0.924c-0.89,0-1.614-0.723-1.615-1.609c-0.814,0.761-1.33,1.836-1.33,3.038
	c0,2.3,1.867,4.173,4.172,4.173c1.822,0,3.358-1.183,3.924-2.814c0.087-0.25,0.149-0.509,0.187-0.778
	c0.027-0.191,0.059-0.382,0.059-0.581c0-0.546-0.112-1.065-0.303-1.543c-0.097-0.242-0.216-0.47-0.354-0.687L169.932,178.153z"/>
<path class="st3" d="M155.982,172.744c-0.564-0.639,2.35-6.085,7.551-7.551c6.448-1.817,12.983,3.449,12.783,3.967
	c-0.134,0.345-3.186-1.592-7.875-1.375c-7.351,0.34-11.843,5.656-12.458,4.958L155.982,172.744z"/>
<path class="st3" d="M-104-96.11"/>
</svg>
